  0
SECTION
  2
HEADER
  9
$ACADVER
  1
AC1006
  9
$EXTMIN
 10
0.000000
 20
0.000000
 30
0.000000
  9
$EXTMAX
 10
600.000000
 20
600.000000
 30
0.000000
  0
ENDSEC
  0
SECTION
  2
ENTITIES
  0
POLYLINE
  8
0
 66
1
 70
1
  0
VERTEX
  8
0
 10
233.000000
 20
483.871431
 42
0.040150
  0
VERTEX
  8
0
 10
173.798134
 20
474.253130
 42
0.051748
  0
VERTEX
  8
0
 10
121.968560
 20
455.643392
 42
0.056402
  0
VERTEX
  8
0
 10
78.733920
 20
428.488656
 42
0.065302
  0
VERTEX
  8
0
 10
45.017535
 20
393.500000
 42
0.028715
  0
VERTEX
  8
0
 10
32.972459
 20
375.077148
 42
0.034939
  0
VERTEX
  8
0
 10
23.974131
 20
356.533907
 42
0.036130
  0
VERTEX
  8
0
 10
17.873972
 20
337.471402
 42
0.034860
  0
VERTEX
  8
0
 10
14.491175
 20
317.500000
 42
0.000000
  0
VERTEX
  8
0
 10
13.802286
 20
310.500000
 42
0.000000
  0
VERTEX
  8
0
 10
21.151143
 20
317.587027
 42
-0.014387
  0
VERTEX
  8
0
 10
27.374170
 20
323.251997
 42
-0.013823
  0
VERTEX
  8
0
 10
33.994597
 20
328.628424
 42
-0.014485
  0
VERTEX
  8
0
 10
40.291022
 20
333.175629
 42
-0.031104
  0
VERTEX
  8
0
 10
45.442761
 20
336.224008
 42
0.000000
  0
VERTEX
  8
0
 10
49.385522
 20
338.237326
 42
0.000000
  0
VERTEX
  8
0
 10
47.487145
 20
335.368663
 42
0.015243
  0
VERTEX
  8
0
 10
41.471174
 20
325.646411
 42
0.016548
  0
VERTEX
  8
0
 10
36.230703
 20
315.834283
 42
0.017331
  0
VERTEX
  8
0
 10
31.885586
 20
306.176754
 42
0.021618
  0
VERTEX
  8
0
 10
28.560161
 20
296.920414
 42
0.020187
  0
VERTEX
  8
0
 10
26.526673
 20
289.316172
 42
0.012353
  0
VERTEX
  8
0
 10
24.716112
 20
280.208043
 42
0.012280
  0
VERTEX
  8
0
 10
23.410160
 20
271.385878
 42
0.030293
  0
VERTEX
  8
0
 10
23.005895
 20
264.856580
 42
0.000000
  0
VERTEX
  8
0
 10
23.000000
 20
260.213159
 42
0.000000
  0
VERTEX
  8
0
 10
29.978188
 20
267.409796
 42
-0.026771
  0
VERTEX
  8
0
 10
35.214928
 20
272.261771
 42
-0.019179
  0
VERTEX
  8
0
 10
41.544306
 20
277.127497
 42
-0.014750
  0
VERTEX
  8
0
 10
47.589555
 20
281.153654
 42
-0.140424
  0
VERTEX
  8
0
 10
50.543674
 20
282.000000
 42
-0.482766
  0
VERTEX
  8
0
 10
50.811154
 20
281.663258
 42
-0.020137
  0
VERTEX
  8
0
 10
50.344116
 20
279.966048
 42
-0.021866
  0
VERTEX
  8
0
 10
49.522309
 20
277.732238
 42
-0.012067
  0
VERTEX
  8
0
 10
48.334840
 20
275.075907
 42
0.027029
  0
VERTEX
  8
0
 10
43.096309
 20
262.348883
 42
0.032214
  0
VERTEX
  8
0
 10
39.609412
 20
249.848215
 42
0.030725
  0
VERTEX
  8
0
 10
37.646665
 20
236.517747
 42
0.021193
  0
VERTEX
  8
0
 10
37.000000
 20
221.267704
 42
0.000000
  0
VERTEX
  8
0
 10
37.000000
 20
206.797389
 42
0.000000
  0
VERTEX
  8
0
 10
43.958112
 20
214.248068
 42
-0.020701
  0
VERTEX
  8
0
 10
49.217044
 20
219.431563
 42
-0.016785
  0
VERTEX
  8
0
 10
55.258320
 20
224.553310
 42
-0.008175
  0
VERTEX
  8
0
 10
61.053927
 20
228.989362
 42
-0.371372
  0
VERTEX
  8
0
 10
62.447609
 20
228.885724
 42
-0.252227
  0
VERTEX
  8
0
 10
62.565337
 20
228.493007
 42
-0.004184
  0
VERTEX
  8
0
 10
62.071423
 20
226.189974
 42
-0.009682
  0
VERTEX
  8
0
 10
61.409782
 20
223.474434
 42
-0.006143
  0
VERTEX
  8
0
 10
60.539165
 20
220.336515
 42
0.017838
  0
VERTEX
  8
0
 10
57.971262
 20
210.163442
 42
0.019279
  0
VERTEX
  8
0
 10
56.211091
 20
200.092505
 42
0.019075
  0
VERTEX
  8
0
 10
55.218298
 20
189.818203
 42
0.016719
  0
VERTEX
  8
0
 10
54.951354
 20
179.034686
 42
0.004604
  0
VERTEX
  8
0
 10
55.049236
 20
173.564772
 42
0.005219
  0
VERTEX
  8
0
 10
55.246151
 20
168.321693
 42
0.004773
  0
VERTEX
  8
0
 10
55.502370
 20
163.872453
 42
0.028611
  0
VERTEX
  8
0
 10
55.789858
 20
161.571079
 42
0.000000
  0
VERTEX
  8
0
 10
56.510820
 20
157.642157
 42
0.000000
  0
VERTEX
  8
0
 10
65.874208
 20
174.071079
 42
-0.023370
  0
VERTEX
  8
0
 10
95.809009
 20
221.317637
 42
-0.024794
  0
VERTEX
  8
0
 10
129.476911
 20
264.603467
 42
-0.025671
  0
VERTEX
  8
0
 10
166.007788
 20
302.887659
 42
-0.029982
  0
VERTEX
  8
0
 10
204.511999
 20
335.158605
 42
-0.017267
  0
VERTEX
  8
0
 10
222.119540
 20
347.284316
 42
-0.015551
  0
VERTEX
  8
0
 10
241.137047
 20
358.618121
 42
-0.016054
  0
VERTEX
  8
0
 10
259.975290
 20
368.288072
 42
-0.024256
  0
VERTEX
  8
0
 10
277.000000
 20
375.358604
 42
-0.011236
  0
VERTEX
  8
0
 10
285.909322
 20
378.337396
 42
-0.008722
  0
VERTEX
  8
0
 10
295.727362
 20
381.189839
 42
-0.006779
  0
VERTEX
  8
0
 10
304.684597
 20
383.493654
 42
-0.058609
  0
VERTEX
  8
0
 10
308.770324
 20
383.990878
 42
0.000000
  0
VERTEX
  8
0
 10
311.040648
 20
384.000000
 42
0.000000
  0
VERTEX
  8
0
 10
309.091120
 20
380.178610
 42
0.058252
  0
VERTEX
  8
0
 10
304.278056
 20
367.209889
 42
0.066340
  0
VERTEX
  8
0
 10
302.870631
 20
354.046440
 42
0.068409
  0
VERTEX
  8
0
 10
304.958695
 20
341.316251
 42
0.068290
  0
VERTEX
  8
0
 10
310.404669
 20
329.613430
 42
0.056822
  0
VERTEX
  8
0
 10
317.129107
 20
321.389808
 42
0.051611
  0
VERTEX
  8
0
 10
325.738502
 20
314.587104
 42
0.051169
  0
VERTEX
  8
0
 10
335.636763
 20
309.641943
 42
0.053748
  0
VERTEX
  8
0
 10
346.171677
 20
306.910550
 42
0.041483
  0
VERTEX
  8
0
 10
353.242089
 20
306.461880
 42
0.035927
  0
VERTEX
  8
0
 10
360.645609
 20
307.140226
 42
0.035344
  0
VERTEX
  8
0
 10
368.002709
 20
308.892754
 42
0.036827
  0
VERTEX
  8
0
 10
374.935328
 20
311.646701
 42
0.057139
  0
VERTEX
  8
0
 10
380.799868
 20
315.371874
 42
0.026224
  0
VERTEX
  8
0
 10
387.543491
 20
321.437207
 42
0.026222
  0
VERTEX
  8
0
 10
393.612677
 20
328.172348
 42
0.057383
  0
VERTEX
  8
0
 10
397.333221
 20
334.023635
 42
0.053900
  0
VERTEX
  8
0
 10
401.339545
 20
345.205855
 42
0.063317
  0
VERTEX
  8
0
 10
402.573075
 20
356.388002
 42
0.058798
  0
VERTEX
  8
0
 10
400.982747
 20
368.180000
 42
0.038261
  0
VERTEX
  8
0
 10
396.550096
 20
381.206040
 42
-0.052965
  0
VERTEX
  8
0
 10
396.273270
 20
382.105231
 42
-0.378945
  0
VERTEX
  8
0
 10
396.485452
 20
382.466020
 42
-0.139700
  0
VERTEX
  8
0
 10
397.154463
 20
382.490863
 42
-0.009704
  0
VERTEX
  8
0
 10
398.994147
 20
382.001679
 42
-0.066343
  0
VERTEX
  8
0
 10
405.707062
 20
379.069725
 42
-0.048226
  0
VERTEX
  8
0
 10
412.248686
 20
374.192481
 42
-0.040275
  0
VERTEX
  8
0
 10
418.772127
 20
367.235566
 42
-0.023812
  0
VERTEX
  8
0
 10
425.437299
 20
358.000000
 42
0.027402
  0
VERTEX
  8
0
 10
434.920948
 20
345.055746
 42
0.058726
  0
VERTEX
  8
0
 10
443.827459
 20
336.481686
 42
0.073611
  0
VERTEX
  8
0
 10
453.042648
 20
331.422173
 42
0.072894
  0
VERTEX
  8
0
 10
463.359538
 20
329.227321
 42
0.113980
  0
VERTEX
  8
0
 10
480.760362
 20
332.087128
 42
0.120330
  0
VERTEX
  8
0
 10
494.748389
 20
342.272786
 42
0.117717
  0
VERTEX
  8
0
 10
502.670816
 20
357.964328
 42
0.105846
  0
VERTEX
  8
0
 10
503.077271
 20
376.200022
 42
0.061502
  0
VERTEX
  8
0
 10
499.391187
 20
387.649308
 42
0.048105
  0
VERTEX
  8
0
 10
492.779963
 20
398.921101
 42
0.039742
  0
VERTEX
  8
0
 10
482.848931
 20
410.568274
 42
0.022007
  0
VERTEX
  8
0
 10
469.058373
 20
423.193509
 42
0.044367
  0
VERTEX
  8
0
 10
434.176674
 20
447.501820
 42
0.043972
  0
VERTEX
  8
0
 10
395.451316
 20
465.358948
 42
0.040246
  0
VERTEX
  8
0
 10
351.150657
 20
477.320974
 42
0.027627
  0
VERTEX
  8
0
 10
299.500000
 20
483.970818
 42
0.013041
  0
VERTEX
  8
0
 10
285.137614
 20
484.642343
 42
0.005534
  0
VERTEX
  8
0
 10
265.862564
 20
484.826869
 42
0.005493
  0
VERTEX
  8
0
 10
246.734617
 20
484.588129
 42
0.014335
  0
SEQEND
  0
POLYLINE
  8
0
 66
1
 70
1
  0
VERTEX
  8
0
 10
260.955465
 20
338.750000
 42
0.026926
  0
VERTEX
  8
0
 10
247.179400
 20
330.869816
 42
0.028305
  0
VERTEX
  8
0
 10
234.568029
 20
321.674156
 42
0.030327
  0
VERTEX
  8
0
 10
224.430304
 20
312.281691
 42
0.071535
  0
VERTEX
  8
0
 10
218.455442
 20
303.913834
 42
0.000000
  0
VERTEX
  8
0
 10
217.032897
 20
301.162935
 42
0.000000
  0
VERTEX
  8
0
 10
222.418473
 20
303.055812
 42
-0.052143
  0
VERTEX
  8
0
 10
235.827779
 20
306.249230
 42
-0.067967
  0
VERTEX
  8
0
 10
248.429992
 20
306.172077
 42
-0.075094
  0
VERTEX
  8
0
 10
259.539787
 20
302.835525
 42
-0.086146
  0
VERTEX
  8
0
 10
268.590496
 20
296.462135
 42
-0.144970
  0
VERTEX
  8
0
 10
274.872684
 20
284.893049
 42
-0.147268
  0
VERTEX
  8
0
 10
273.788664
 20
271.847341
 42
-0.109315
  0
VERTEX
  8
0
 10
264.856182
 20
258.595576
 42
-0.058561
  0
VERTEX
  8
0
 10
248.986099
 20
246.706953
 42
-0.015717
  0
VERTEX
  8
0
 10
246.433204
 20
245.330415
 42
-0.003378
  0
VERTEX
  8
0
 10
241.920401
 20
243.115128
 42
-0.003524
  0
VERTEX
  8
0
 10
236.656286
 20
240.620610
 42
-0.003356
  0
VERTEX
  8
0
 10
231.271329
 20
238.158992
 42
0.039125
  0
VERTEX
  8
0
 10
208.455846
 20
225.687016
 42
0.071373
  0
VERTEX
  8
0
 10
192.543974
 20
211.703675
 42
0.086913
  0
VERTEX
  8
0
 10
183.223705
 20
195.938737
 42
0.091032
  0
VERTEX
  8
0
 10
180.014781
 20
178.200779
 42
0.070438
  0
VERTEX
  8
0
 10
182.026894
 20
164.249520
 42
0.067551
  0
VERTEX
  8
0
 10
187.840623
 20
151.188123
 42
0.066886
  0
VERTEX
  8
0
 10
196.990483
 20
140.039550
 42
0.066699
  0
VERTEX
  8
0
 10
208.766812
 20
131.689532
 42
0.064095
  0
VERTEX
  8
0
 10
225.559611
 20
125.453669
 42
0.049543
  0
VERTEX
  8
0
 10
244.939406
 20
122.948793
 42
0.047839
  0
VERTEX
  8
0
 10
265.168526
 20
124.287318
 42
0.049828
  0
VERTEX
  8
0
 10
284.487728
 20
129.452544
 42
0.020336
  0
VERTEX
  8
0
 10
292.113495
 20
132.690082
 42
0.013864
  0
VERTEX
  8
0
 10
300.513167
 20
136.955590
 42
0.013624
  0
VERTEX
  8
0
 10
308.881255
 20
141.800934
 42
0.016609
  0
VERTEX
  8
0
 10
316.425199
 20
146.801008
 42
0.027697
  0
VERTEX
  8
0
 10
324.922126
 20
153.586978
 42
0.012168
  0
VERTEX
  8
0
 10
335.424660
 20
163.442435
 42
0.012201
  0
VERTEX
  8
0
 10
345.497411
 20
173.862790
 42
0.025878
  0
VERTEX
  8
0
 10
352.659366
 20
182.500000
 42
0.032223
  0
VERTEX
  8
0
 10
366.694367
 20
204.104193
 42
0.033321
  0
VERTEX
  8
0
 10
377.662532
 20
227.097977
 42
0.034599
  0
VERTEX
  8
0
 10
385.118796
 20
250.431424
 42
0.042341
  0
VERTEX
  8
0
 10
388.663949
 20
273.046509
 42
0.000000
  0
VERTEX
  8
0
 10
389.299145
 20
281.995198
 42
0.000000
  0
VERTEX
  8
0
 10
383.550243
 20
280.017286
 42
-0.043420
  0
VERTEX
  8
0
 10
367.770656
 20
276.079077
 42
-0.043423
  0
VERTEX
  8
0
 10
351.548438
 20
274.925307
 42
-0.044300
  0
VERTEX
  8
0
 10
335.689310
 20
276.585934
 42
-0.049603
  0
VERTEX
  8
0
 10
320.987573
 20
281.005124
 42
-0.062890
  0
VERTEX
  8
0
 10
304.540376
 20
290.351032
 42
-0.056602
  0
VERTEX
  8
0
 10
290.270846
 20
303.790087
 42
-0.056541
  0
VERTEX
  8
0
 10
279.364883
 20
320.102568
 42
-0.062456
  0
VERTEX
  8
0
 10
272.829973
 20
337.916253
 42
0.019675
  0
VERTEX
  8
0
 10
272.298849
 20
339.864117
 42
0.029687
  0
VERTEX
  8
0
 10
271.671392
 20
341.506649
 42
0.029473
  0
VERTEX
  8
0
 10
271.037131
 20
342.715535
 42
0.262994
  0
VERTEX
  8
0
 10
270.533717
 20
343.000000
 42
0.100577
  0
VERTEX
  8
0
 10
269.783574
 20
342.847564
 42
0.004164
  0
VERTEX
  8
0
 10
267.256956
 20
341.751562
 42
0.007081
  0
VERTEX
  8
0
 10
264.276534
 20
340.378268
 42
0.004954
  0
SEQEND
  0
POLYLINE
  8
0
 66
1
 70
1
  0
VERTEX
  8
0
 10
519.000000
 20
338.887438
 42
0.026456
  0
VERTEX
  8
0
 10
507.989184
 20
332.112671
 42
0.013106
  0
VERTEX
  8
0
 10
494.735305
 20
322.435025
 42
0.012017
  0
VERTEX
  8
0
 10
480.301059
 20
310.740286
 42
0.010128
  0
VERTEX
  8
0
 10
465.581849
 20
297.693925
 42
0.017814
  0
VERTEX
  8
0
 10
450.261322
 20
282.504521
 42
0.013880
  0
VERTEX
  8
0
 10
434.686846
 20
264.971664
 42
0.013917
  0
VERTEX
  8
0
 10
421.245522
 20
248.030970
 42
0.038602
  0
VERTEX
  8
0
 10
413.099963
 20
235.202422
 42
0.000000
  0
VERTEX
  8
0
 10
411.878707
 20
232.904844
 42
0.000000
  0
VERTEX
  8
0
 10
416.850714
 20
235.424351
 42
-0.031741
  0
VERTEX
  8
0
 10
424.200559
 20
238.580128
 42
-0.033632
  0
VERTEX
  8
0
 10
431.751402
 20
240.709487
 42
-0.028766
  0
VERTEX
  8
0
 10
440.477139
 20
242.029250
 42
-0.014842
  0
VERTEX
  8
0
 10
451.500000
 20
242.723670
 42
-0.015224
  0
VERTEX
  8
0
 10
462.819471
 20
242.755238
 42
-0.023983
  0
VERTEX
  8
0
 10
472.507021
 20
242.021335
 42
-0.025684
  0
VERTEX
  8
0
 10
481.578439
 20
240.418129
 42
-0.021515
  0
VERTEX
  8
0
 10
491.000000
 20
237.817681
 42
-0.067374
  0
VERTEX
  8
0
 10
514.644007
 20
226.487361
 42
-0.083828
  0
VERTEX
  8
0
 10
532.474751
 20
209.920119
 42
-0.089894
  0
VERTEX
  8
0
 10
543.024086
 20
189.434302
 42
-0.091860
  0
VERTEX
  8
0
 10
545.603840
 20
166.708019
 42
0.000000
  0
VERTEX
  8
0
 10
545.056129
 20
158.916037
 42
0.000000
  0
VERTEX
  8
0
 10
549.634716
 20
162.204130
 42
0.033986
  0
VERTEX
  8
0
 10
554.739497
 20
166.423705
 42
0.014453
  0
VERTEX
  8
0
 10
561.001981
 20
172.713795
 42
0.014535
  0
VERTEX
  8
0
 10
567.001048
 20
179.482012
 42
0.027913
  0
VERTEX
  8
0
 10
571.332678
 20
185.295627
 42
0.065278
  0
VERTEX
  8
0
 10
581.786793
 20
206.709144
 42
0.054271
  0
VERTEX
  8
0
 10
587.206759
 20
231.486021
 42
0.052671
  0
VERTEX
  8
0
 10
587.250632
 20
257.609235
 42
0.053630
  0
VERTEX
  8
0
 10
581.819608
 20
283.000000
 42
0.044665
  0
VERTEX
  8
0
 10
573.743768
 20
301.726748
 42
0.046390
  0
VERTEX
  8
0
 10
562.555365
 20
318.468325
 42
0.049084
  0
VERTEX
  8
0
 10
549.202975
 20
331.967366
 42
0.066749
  0
VERTEX
  8
0
 10
534.699731
 20
341.049436
 42
0.037121
  0
VERTEX
  8
0
 10
530.762243
 20
342.495479
 42
0.104022
  0
VERTEX
  8
0
 10
527.846160
 20
342.701260
 42
0.076505
  0
VERTEX
  8
0
 10
524.593828
 20
341.732275
 42
0.014102
  0
SEQEND
  0
POLYLINE
  8
0
 66
1
 70
1
  0
VERTEX
  8
0
 10
403.000000
 20
198.473800
 42
0.029232
  0
VERTEX
  8
0
 10
403.107403
 20
196.638321
 42
0.010749
  0
VERTEX
  8
0
 10
403.465648
 20
194.066289
 42
0.010613
  0
VERTEX
  8
0
 10
403.978273
 20
191.266945
 42
0.012537
  0
VERTEX
  8
0
 10
404.585185
 20
188.644345
 42
0.069195
  0
VERTEX
  8
0
 10
410.275284
 20
174.827400
 42
0.063776
  0
VERTEX
  8
0
 10
419.647111
 20
162.656846
 42
0.063820
  0
VERTEX
  8
0
 10
431.776635
 20
153.248046
 42
0.069479
  0
VERTEX
  8
0
 10
445.552300
 20
147.528393
 42
0.042422
  0
VERTEX
  8
0
 10
452.197391
 20
146.387628
 42
0.022021
  0
VERTEX
  8
0
 10
460.613908
 20
146.040782
 42
0.021963
  0
VERTEX
  8
0
 10
468.900747
 20
146.428606
 42
0.049514
  0
VERTEX
  8
0
 10
475.068499
 20
147.612435
 42
0.024693
  0
VERTEX
  8
0
 10
479.137818
 20
149.042549
 42
0.011032
  0
VERTEX
  8
0
 10
484.346962
 20
151.302848
 42
0.010807
  0
VERTEX
  8
0
 10
489.354884
 20
153.740933
 42
0.031546
  0
VERTEX
  8
0
 10
492.654508
 20
155.708760
 42
0.681233
  0
VERTEX
  8
0
 10
492.583232
 20
156.018658
 42
0.015251
  0
VERTEX
  8
0
 10
490.486993
 20
156.267573
 42
0.014604
  0
VERTEX
  8
0
 10
487.471772
 20
156.444116
 42
0.007319
  0
VERTEX
  8
0
 10
483.654508
 20
156.500000
 42
-0.008571
  0
VERTEX
  8
0
 10
478.227446
 20
156.593039
 42
-0.026992
  0
VERTEX
  8
0
 10
474.601442
 20
156.913879
 42
-0.037544
  0
VERTEX
  8
0
 10
471.743331
 20
157.544842
 42
-0.035273
  0
VERTEX
  8
0
 10
468.949195
 20
158.605656
 42
-0.059150
  0
VERTEX
  8
0
 10
461.956318
 20
162.907738
 42
-0.075707
  0
VERTEX
  8
0
 10
456.809350
 20
168.432842
 42
-0.079222
  0
VERTEX
  8
0
 10
453.700291
 20
175.024187
 42
-0.072826
  0
VERTEX
  8
0
 10
452.674342
 20
182.453048
 42
-0.005693
  0
VERTEX
  8
0
 10
452.721662
 20
184.873672
 42
-0.006864
  0
VERTEX
  8
0
 10
452.823211
 20
187.145998
 42
-0.005933
  0
VERTEX
  8
0
 10
452.957453
 20
189.053659
 42
-0.045431
  0
VERTEX
  8
0
 10
453.111842
 20
189.937583
 42
0.402280
  0
VERTEX
  8
0
 10
452.321546
 20
191.380016
 42
0.008823
  0
VERTEX
  8
0
 10
443.949289
 20
193.850961
 42
0.014922
  0
VERTEX
  8
0
 10
433.351075
 20
196.438912
 42
0.008626
  0
VERTEX
  8
0
 10
420.469785
 20
198.948423
 42
-0.000441
  0
VERTEX
  8
0
 10
415.685148
 20
199.799514
 42
-0.000537
  0
VERTEX
  8
0
 10
411.208312
 20
200.604888
 42
-0.000450
  0
VERTEX
  8
0
 10
407.443868
 20
201.289778
 42
-0.003790
  0
VERTEX
  8
0
 10
405.750000
 20
201.612818
 42
0.031186
  0
VERTEX
  8
0
 10
404.104665
 20
201.834080
 42
0.234852
  0
VERTEX
  8
0
 10
403.399514
 20
201.544210
 42
0.166732
  0
VERTEX
  8
0
 10
403.066135
 20
200.730889
 42
0.014647
  0
SEQEND
  0
POLYLINE
  8
0
 66
1
 70
1
  0
VERTEX
  8
0
 10
352.029753
 20
158.477684
 42
0.067030
  0
VERTEX
  8
0
 10
347.401812
 20
155.590049
 42
0.075170
  0
VERTEX
  8
0
 10
343.906570
 20
151.676764
 42
0.075693
  0
VERTEX
  8
0
 10
341.741608
 20
146.929575
 42
0.069305
  0
VERTEX
  8
0
 10
341.000000
 20
141.604938
 42
0.035493
  0
VERTEX
  8
0
 10
341.277812
 20
137.696262
 42
0.053580
  0
VERTEX
  8
0
 10
342.118042
 20
134.391464
 42
0.056198
  0
VERTEX
  8
0
 10
343.602946
 20
131.455911
 42
0.044317
  0
VERTEX
  8
0
 10
345.813618
 20
128.660724
 42
0.041082
  0
VERTEX
  8
0
 10
348.816461
 20
125.968319
 42
0.064250
  0
VERTEX
  8
0
 10
351.823518
 20
124.244589
 42
0.062210
  0
VERTEX
  8
0
 10
355.240947
 20
123.306447
 42
0.035930
  0
VERTEX
  8
0
 10
359.500000
 20
123.000000
 42
0.059583
  0
VERTEX
  8
0
 10
365.254513
 20
123.688188
 42
0.086990
  0
VERTEX
  8
0
 10
369.922901
 20
125.726075
 42
0.087309
  0
VERTEX
  8
0
 10
373.607945
 20
129.223729
 42
0.060455
  0
VERTEX
  8
0
 10
376.452272
 20
134.231529
 42
0.087393
  0
VERTEX
  8
0
 10
377.827672
 20
140.340945
 42
0.082215
  0
VERTEX
  8
0
 10
377.081447
 20
146.691582
 42
0.083315
  0
VERTEX
  8
0
 10
374.347199
 20
152.391519
 42
0.093439
  0
VERTEX
  8
0
 10
369.987405
 20
156.627033
 42
0.069850
  0
VERTEX
  8
0
 10
365.928404
 20
158.563430
 42
0.050784
  0
VERTEX
  8
0
 10
361.022625
 20
159.579222
 42
0.051507
  0
VERTEX
  8
0
 10
356.107651
 20
159.578097
 42
0.080382
  0
SEQEND
  0
POLYLINE
  8
0
 66
1
 70
1
  0
VERTEX
  8
0
 10
364.992659
 20
154.386261
 42
-0.126891
  0
VERTEX
  8
0
 10
370.708801
 20
150.191833
 42
-0.130520
  0
VERTEX
  8
0
 10
373.607985
 20
143.798683
 42
-0.127178
  0
VERTEX
  8
0
 10
372.988119
 20
136.677390
 42
-0.117281
  0
VERTEX
  8
0
 10
368.999012
 20
130.499053
 42
-0.097911
  0
VERTEX
  8
0
 10
365.365633
 20
128.176410
 42
-0.070468
  0
VERTEX
  8
0
 10
360.669256
 20
127.062518
 42
-0.069821
  0
VERTEX
  8
0
 10
355.801551
 20
127.292650
 42
-0.091987
  0
VERTEX
  8
0
 10
351.666765
 20
128.896933
 42
-0.139237
  0
VERTEX
  8
0
 10
346.639561
 20
134.396820
 42
-0.130015
  0
VERTEX
  8
0
 10
345.083524
 20
141.871123
 42
-0.128862
  0
VERTEX
  8
0
 10
347.424435
 20
149.188145
 42
-0.135640
  0
VERTEX
  8
0
 10
353.019933
 20
154.248446
 42
-0.040055
  0
VERTEX
  8
0
 10
356.061238
 20
155.482666
 42
-0.073617
  0
VERTEX
  8
0
 10
358.694460
 20
155.903504
 42
-0.068153
  0
VERTEX
  8
0
 10
361.471179
 20
155.555765
 42
-0.029991
  0
SEQEND
  0
POLYLINE
  8
0
 66
1
 70
1
  0
VERTEX
  8
0
 10
352.000000
 20
141.500000
 42
0.004147
  0
VERTEX
  8
0
 10
352.048109
 20
135.699654
 42
0.047763
  0
VERTEX
  8
0
 10
352.302632
 20
133.437500
 42
0.164310
  0
VERTEX
  8
0
 10
352.912441
 20
132.404328
 42
0.179874
  0
VERTEX
  8
0
 10
354.000000
 20
132.000000
 42
0.094959
  0
VERTEX
  8
0
 10
355.021586
 20
132.195784
 42
0.184152
  0
VERTEX
  8
0
 10
355.625000
 20
132.750000
 42
0.098846
  0
VERTEX
  8
0
 10
355.925179
 20
133.849164
 42
0.017388
  0
VERTEX
  8
0
 10
356.000000
 20
136.000000
 42
-0.018030
  0
VERTEX
  8
0
 10
356.075151
 20
138.083355
 42
-0.090421
  0
VERTEX
  8
0
 10
356.365508
 20
139.208911
 42
-0.172527
  0
VERTEX
  8
0
 10
356.932277
 20
139.788166
 42
-0.114142
  0
VERTEX
  8
0
 10
357.848126
 20
140.000000
 42
-0.140402
  0
VERTEX
  8
0
 10
358.753131
 20
139.740761
 42
-0.068332
  0
VERTEX
  8
0
 10
359.684768
 20
138.964914
 42
-0.051584
  0
VERTEX
  8
0
 10
360.611560
 20
137.711934
 42
-0.027544
  0
VERTEX
  8
0
 10
361.500000
 20
136.000000
 42
0.024120
  0
VERTEX
  8
0
 10
362.509841
 20
134.021135
 42
0.074053
  0
VERTEX
  8
0
 10
363.439288
 20
132.842969
 42
0.105046
  0
VERTEX
  8
0
 10
364.469238
 20
132.217575
 42
0.084293
  0
VERTEX
  8
0
 10
365.750650
 20
132.000000
 42
0.000000
  0
VERTEX
  8
0
 10
368.197552
 20
132.000000
 42
0.000000
  0
VERTEX
  8
0
 10
366.003697
 20
135.718307
 42
-0.019046
  0
VERTEX
  8
0
 10
365.133641
 20
137.330196
 42
-0.049654
  0
VERTEX
  8
0
 10
364.672948
 20
138.562928
 42
-0.086693
  0
VERTEX
  8
0
 10
364.601211
 20
139.400255
 42
-0.298837
  0
VERTEX
  8
0
 10
364.922778
 20
139.807593
 42
0.089906
  0
VERTEX
  8
0
 10
366.441814
 20
140.639578
 42
0.065548
  0
VERTEX
  8
0
 10
367.770145
 20
142.038619
 42
0.065730
  0
VERTEX
  8
0
 10
368.687675
 20
143.728979
 42
0.091764
  0
VERTEX
  8
0
 10
369.000000
 20
145.416441
 42
0.125295
  0
VERTEX
  8
0
 10
368.355047
 20
147.949780
 42
0.145164
  0
VERTEX
  8
0
 10
366.598036
 20
149.701535
 42
0.093098
  0
VERTEX
  8
0
 10
363.477024
 20
150.701023
 42
0.031076
  0
VERTEX
  8
0
 10
358.671259
 20
151.000000
 42
0.000000
  0
VERTEX
  8
0
 10
352.000000
 20
151.000000
 42
0.000000
  0
SEQEND
  0
POLYLINE
  8
0
 66
1
 70
1
  0
VERTEX
  8
0
 10
364.500000
 20
145.500000
 42
-0.105014
  0
VERTEX
  8
0
 10
364.283122
 20
144.478771
 42
-0.165196
  0
VERTEX
  8
0
 10
363.680313
 20
143.826429
 42
-0.089092
  0
VERTEX
  8
0
 10
362.494258
 20
143.433789
 42
-0.017439
  0
VERTEX
  8
0
 10
360.250000
 20
143.192502
 42
-0.012344
  0
VERTEX
  8
0
 10
357.649572
 20
143.068786
 42
-0.130803
  0
VERTEX
  8
0
 10
356.626913
 20
143.316098
 42
-0.226401
  0
VERTEX
  8
0
 10
356.138527
 20
143.988620
 42
-0.045732
  0
VERTEX
  8
0
 10
356.000000
 20
145.500000
 42
-0.045732
  0
VERTEX
  8
0
 10
356.138527
 20
147.011380
 42
-0.226401
  0
VERTEX
  8
0
 10
356.626913
 20
147.683902
 42
-0.130803
  0
VERTEX
  8
0
 10
357.649572
 20
147.931214
 42
-0.012344
  0
VERTEX
  8
0
 10
360.250000
 20
147.807498
 42
-0.017439
  0
VERTEX
  8
0
 10
362.494258
 20
147.566211
 42
-0.089092
  0
VERTEX
  8
0
 10
363.680313
 20
147.173571
 42
-0.165196
  0
VERTEX
  8
0
 10
364.283122
 20
146.521229
 42
-0.105014
  0
SEQEND
  0
ENDSEC
  0
EOF
