<?xml version="1.0" encoding="UTF-8" standalone="no"?>
<!-- Created with Inkscape (http://www.inkscape.org/) -->

<svg
   xmlns:dc="http://purl.org/dc/elements/1.1/"
   xmlns:cc="http://creativecommons.org/ns#"
   xmlns:rdf="http://www.w3.org/1999/02/22-rdf-syntax-ns#"
   xmlns:svg="http://www.w3.org/2000/svg"
   xmlns="http://www.w3.org/2000/svg"
   xmlns:sodipodi="http://sodipodi.sourceforge.net/DTD/sodipodi-0.dtd"
   xmlns:inkscape="http://www.inkscape.org/namespaces/inkscape"
   width="210mm"
   height="297mm"
   viewBox="0 0 210 297"
   version="1.1"
   id="svg163"
   inkscape:version="0.92.3 (2405546, 2018-03-11)"
   sodipodi:docname="music_pulse.svg">
  <defs
     id="defs157" />
  <sodipodi:namedview
     id="base"
     pagecolor="#ffffff"
     bordercolor="#666666"
     borderopacity="1.0"
     inkscape:pageopacity="0.0"
     inkscape:pageshadow="2"
     inkscape:zoom="0.35"
     inkscape:cx="400"
     inkscape:cy="560"
     inkscape:document-units="mm"
     inkscape:current-layer="layer1"
     showgrid="false"
     inkscape:window-width="3840"
     inkscape:window-height="2061"
     inkscape:window-x="0"
     inkscape:window-y="28"
     inkscape:window-maximized="1" />
  <metadata
     id="metadata160">
    <rdf:RDF>
      <cc:Work
         rdf:about="">
        <dc:format>image/svg+xml</dc:format>
        <dc:type
           rdf:resource="http://purl.org/dc/dcmitype/StillImage" />
        <dc:title></dc:title>
      </cc:Work>
    </rdf:RDF>
  </metadata>
  <g
     inkscape:label="Layer 1"
     inkscape:groupmode="layer"
     id="layer1">
    <path
       style="fill:#000000;stroke-width:0.26458332"
       d="m 107.07651,183.66869 c -0.13156,-0.8405 -0.28055,-2.64744 -1.08538,-13.16302 -0.21719,-2.83765 -0.50901,-6.64765 -0.64849,-8.46666 -0.13948,-1.81902 -0.61256,-8.01027 -1.05128,-13.75834 -0.82944,-10.8673 -1.07361,-13.58289 -1.20882,-13.44384 -0.0441,0.0453 -0.2724,1.21348 -0.50743,2.59593 -0.94982,5.58688 -2.630718,9.04999 -5.093002,10.49299 -1.099286,0.64422 -1.360371,0.679 -5.363181,0.71449 -3.821562,0.0339 -4.276183,0.0881 -4.954622,0.5908 -1.583814,1.17357 -2.653109,3.57993 -5.796391,13.04427 -0.283361,0.85319 -0.3835,0.35147 -2.634858,-13.20089 -0.664793,-4.00182 -1.276829,-7.45463 -1.360078,-7.67291 -0.08401,-0.22028 -0.360852,0.4059 -0.622152,1.4072 -0.616632,2.36295 -0.983194,3.24867 -1.917004,4.63204 -1.037722,1.53732 -2.121117,2.16027 -3.76233,2.16333 -1.587722,0.003 -3.134889,0.39902 -3.560088,0.91135 -0.239797,0.28894 -0.208412,0.66269 0.138483,1.64912 0.580843,1.65166 0.603295,4.90963 0.04286,6.22046 -0.531751,1.24375 -2.281758,3.14849 -3.491079,3.79976 -0.514464,0.27705 -0.935389,0.6728 -0.935389,0.87942 0,0.20663 0.309883,2.53104 0.688631,5.16536 0.761241,5.2947 0.730342,7.41112 -0.132895,9.10321 -1.468186,2.87788 -5.260067,4.18757 -8.950799,3.09154 -2.54105,-0.75461 -4.834104,-4.04259 -4.834104,-6.93155 0,-3.12616 2.43532,-5.46503 5.158468,-4.95417 1.309113,0.24559 3.167406,1.97805 3.747039,3.4933 0.661858,1.7302 0.600835,3.9664 -0.142621,5.22647 -0.320267,0.54281 -0.541647,1.02759 -0.491953,1.07728 0.04969,0.0497 0.539174,-0.0474 1.087734,-0.21575 2.035927,-0.62485 2.897034,-2.52675 2.908343,-6.42358 0.0071,-2.45123 -0.532728,-7.22725 -0.880515,-7.78998 -0.151723,-0.2455 -0.578819,-0.24713 -1.888673,-0.007 -4.220353,0.77302 -9.150787,-0.92373 -11.690517,-4.02313 -1.369089,-1.67079 -2.234044,-3.55822 -2.943885,-6.4239 -0.345517,-1.39487 -0.766453,-2.7027 -0.935414,-2.90629 -0.630973,-0.76027 -4.482486,-1.09888 -16.65369,-1.46414 -4.538977,-0.13621 -8.154048,-0.35405 -8.300148,-0.50015 -0.378278,-0.37828 1.0991,-0.51137 9.197713,-0.82857 8.723577,-0.34168 13.983824,-0.72663 15.213542,-1.11335 1.501267,-0.47213 2.087725,-0.98575 3.478045,-3.04612 1.43043,-2.1198 3.763994,-4.95818 5.883492,-7.15625 l 1.342646,-1.39243 -0.723773,-3.50237 c -0.849545,-4.11098 -0.956307,-8.06915 -0.302961,-11.23221 0.7912,-3.83043 1.896272,-5.3644 4.006104,-5.56091 1.763953,-0.1643 2.849994,0.61464 3.999585,2.8686 2.606534,5.11054 1.863645,13.49154 -1.657978,18.70466 -2.584592,3.82602 -2.406226,3.04101 -1.447204,6.3693 l 0.842147,2.92268 1.099119,-0.15065 c 0.64294,-0.0881 2.027645,0.0483 3.336303,0.32862 1.542265,0.33039 3.224343,0.46795 5.41519,0.44284 3.419909,-0.0392 4.431628,-0.26986 4.883029,-1.11331 0.158401,-0.29597 0.825958,-3.06988 1.483463,-6.16423 2.035307,-9.57858 2.277602,-10.57861 2.507157,-10.34785 0.122473,0.12311 1.054587,5.22447 2.071362,11.33634 1.016776,6.11188 1.958901,11.40821 2.093616,11.76962 0.273397,0.73347 0.194734,0.88191 0.839015,-1.58316 0.392272,-1.50085 1.503347,-3.14576 2.528004,-3.7426 1.004636,-0.58519 3.652692,-1.01534 6.266344,-1.0179 3.732737,-0.004 5.733577,-0.79106 6.684907,-2.63073 0.516186,-0.99819 1.940338,-8.26087 3.842663,-19.59627 0.89139,-5.31151 1.73785,-9.77536 1.88102,-9.91966 0.2927,-0.29501 0.75625,0.26548 0.76406,0.92383 0.003,0.21828 0.24262,3.43297 0.53341,7.14375 0.29079,3.71078 0.76635,9.78297 1.05681,13.49375 0.29046,3.71078 0.88987,11.33078 1.33202,16.93333 0.44215,5.60256 0.8775,11.35157 0.96745,12.77559 0.0899,1.42402 0.23993,2.63634 0.3333,2.69405 0.0934,0.0577 0.49005,-2.29803 0.88152,-5.23497 1.17334,-8.80279 2.59118,-13.77505 4.23511,-14.8522 0.44564,-0.29199 1.65462,-0.49764 3.80328,-0.64694 4.01428,-0.27894 4.92529,-0.7154 6.02563,-2.88686 0.61757,-1.21872 1.86455,-5.32569 2.94013,-9.68334 0.49949,-2.02371 0.9585,-3.72979 1.02001,-3.79129 0.14489,-0.1449 0.40616,1.17511 2.00232,10.11659 0.72736,4.07458 1.58162,8.83708 1.89834,10.58333 l 0.57587,3.175 0.57258,-1.85208 c 0.97803,-3.16355 1.90728,-4.41344 3.97249,-5.34317 0.92381,-0.41589 1.71989,-0.46745 6.26299,-0.40565 5.18352,0.0705 5.2077,0.0682 5.95312,-0.57474 0.73075,-0.63025 0.74791,-0.70713 0.72472,-3.24641 -0.0247,-2.70181 -0.17573,-3.64894 -1.42764,-8.95086 -1.58276,-6.70308 -1.63588,-7.2715 -0.54027,-5.7817 2.19381,2.98312 5.99904,3.9903 9.88926,2.6175 3.75455,-1.32491 6.5801,-3.69322 8.33358,-6.985 0.48695,-0.91413 0.93856,-1.60884 1.0036,-1.54381 0.065,0.065 -0.0866,2.96069 -0.33701,6.4348 -0.37047,5.14011 -0.40955,7.38703 -0.20985,12.06427 0.22263,5.21411 0.29454,5.79589 0.77458,6.26643 0.45708,0.44805 1.15994,0.55918 5.15938,0.81576 6.07181,0.38954 12.27343,0.74996 16.53645,0.96106 3.7454,0.18547 4.88435,0.45802 3.01262,0.72092 -2.41457,0.33916 -17.55553,1.01522 -23.65012,1.05601 -6.27492,0.042 -6.36325,0.0349 -7.47084,-0.59949 -2.74535,-1.57246 -4.06943,-5.97169 -2.42615,-8.0608 1.00931,-1.28313 3.2907,-1.17757 5.39369,0.24955 l 0.99682,0.67647 -0.17743,-3.91682 c -0.0976,-2.15426 -0.23821,-4.39308 -0.31249,-4.97516 l -0.13506,-1.05834 -1.65287,1.5875 c -3.30418,3.17351 -7.1813,4.42038 -10.64985,3.42495 -0.53846,-0.15453 -0.55063,-0.10822 -0.32838,1.25 0.48092,2.93897 1.0187,9.1894 1.01927,11.84655 7.9e-4,4.1275 -0.48394,9.84771 -1.10009,12.97955 -0.87253,4.43496 -1.79316,5.87375 -3.75846,5.87375 -2.81358,0 -5.17708,-3.04798 -5.18922,-6.69204 -0.0176,-5.29769 4.91419,-6.73415 7.02573,-2.04632 l 0.50908,1.13021 0.1724,-1.18332 c 0.0948,-0.65083 0.2598,-2.8577 0.36663,-4.90416 0.16706,-3.20044 0.13235,-3.85121 -0.24813,-4.65302 -0.93446,-1.96923 -4.21286,-2.87344 -8.55956,-2.36081 -5.02262,0.59235 -6.14755,2.00275 -8.25453,10.34928 -0.59541,2.35863 -1.19078,4.48179 -1.32305,4.71815 -0.2057,0.36755 -0.27695,0.33387 -0.4924,-0.23279 -0.24153,-0.63527 -0.96735,-4.79206 -2.17116,-12.43435 -0.5783,-3.67125 -1.50587,-8.93228 -1.76099,-9.98802 -0.22499,-0.93102 -0.49915,-0.70637 -0.81666,0.66918 -1.2328,5.34076 -3.21611,7.19293 -7.71838,7.20798 -3.19765,0.0107 -4.39352,1.01229 -4.9132,4.11505 -0.0957,0.57118 -0.39688,2.16961 -0.66935,3.55206 -0.72868,3.69717 -1.97718,10.35867 -2.90091,15.47812 -1.2532,6.94548 -2.14958,11.33149 -2.41979,11.84011 -0.39872,0.75051 -0.98429,0.54517 -1.13173,-0.39688 z M 54.748526,171.39112 c 0.109461,-0.76808 -0.900446,-1.49039 -1.577316,-1.12814 -0.481052,0.25745 -0.667925,1.29775 -0.299331,1.66634 0.10391,0.10391 0.550394,0.15352 0.992187,0.11024 0.589733,-0.0578 0.824844,-0.23014 0.88446,-0.64844 z m 5.065152,-10.16779 c 0.734766,-0.15758 1.335939,-0.35563 1.335939,-0.44012 0,-0.0845 -0.614143,-2.63446 -1.36476,-5.66662 -0.928294,-3.74986 -1.478063,-5.513 -1.71903,-5.513 -0.194847,0 -0.829728,0.42955 -1.410843,0.95455 -1.349068,1.2188 -1.789107,2.63953 -1.343327,4.33712 0.403535,1.5367 0.672375,1.79485 1.288479,1.23728 1.386369,-1.25464 3.229581,0.24301 2.533044,2.05815 -0.262464,0.68398 -1.647259,1.26897 -2.586696,1.09272 -1.089528,-0.20439 -2.691517,-1.54057 -3.316997,-2.76661 -0.793253,-1.5549 -1.176012,-3.9706 -0.83172,-5.24921 0.542618,-2.01513 2.251884,-4.05503 4.608928,-5.50046 0.394009,-0.24162 0.376295,-0.47887 -0.204142,-2.73387 -0.349578,-1.3581 -0.684544,-2.51822 -0.744366,-2.57805 -0.05982,-0.0598 -1.476687,1.22995 -3.148584,2.86616 -3.320727,3.24984 -4.151945,4.57368 -4.733621,7.53899 -0.25618,1.30598 -0.256119,2.0006 2.65e-4,3.30391 0.400722,2.03684 0.808686,2.84372 2.202122,4.35542 2.299451,2.49461 5.77124,3.48944 9.435282,2.70364 z M 146.82515,160.13 c 0.0682,-0.59191 -0.0438,-0.75015 -0.63647,-0.89891 -0.91822,-0.23045 -1.55906,0.48625 -1.1381,1.27282 0.43054,0.80446 1.66879,0.54356 1.77457,-0.37391 z m -82.681219,-1.24727 c 1.486183,-1.64502 1.83751,-3.5608 1.105214,-6.0267 -0.471712,-1.58843 -1.949397,-3.07139 -3.485488,-3.49794 -1.512943,-0.42012 -1.756169,-0.37232 -1.585833,0.31164 1.085752,4.35971 2.728698,10.25018 2.859235,10.25124 0.09221,8e-4 0.590299,-0.46645 1.106872,-1.03824 z m 97.229849,-15.68206 c 0.86613,-0.86613 -0.45451,-2.05658 -1.40573,-1.26715 -0.69303,0.57517 -0.26947,1.58465 0.6649,1.58465 0.23283,0 0.56621,-0.14287 0.74083,-0.3175 z M 57.632352,131.06271 c 3.095641,-3.81974 4.291854,-8.28975 2.681092,-10.0187 -0.763207,-0.81921 -1.495113,-0.66418 -2.739575,0.58028 -1.50199,1.50199 -2.265209,3.89782 -2.270342,7.12686 -0.0043,2.72568 0.236762,4.2447 0.652174,4.10901 0.164518,-0.0537 0.919012,-0.86259 1.676651,-1.79745 z"
       id="path146"
       inkscape:connector-curvature="0" />
  </g>
</svg>
