  0
SECTION
  2
HEADER
  9
$ACADVER
  1
AC1014
  9
$HANDSEED
  5
FFFF
  9
$MEASUREMENT
 70
     1
  0
ENDSEC
  0
SECTION
  2
TABLES
  0
TABLE
  2
VPORT
  5
8
330
0
100
AcDbSymbolTable
 70
     4
  0
VPORT
  5
2E
330
8
100
AcDbSymbolTableRecord
100
AcDbViewportTableRecord
  2
*ACTIVE
 70
     0
 10
0.0
 20
0.0
 11
1.0
 21
1.0
 12
210.0
 22
148.5
 13
0.0
 23
0.0
 14
10.0
 24
10.0
 15
10.0
 25
10.0
 16
0.0
 26
0.0
 36
1.0
 17
0.0
 27
0.0
 37
0.0
 40
341.0
 41
1.24
 42
50.0
 43
0.0
 44
0.0
 50
0.0
 51
0.0
 71
     0
 72
   100
 73
     1
 74
     3
 75
     0
 76
     0
 77
     0
 78
     0
  0
ENDTAB
  0
TABLE
  2
LTYPE
  5
5
330
0
100
AcDbSymbolTable
 70
     1
  0
LTYPE
  5
14
330
5
100
AcDbSymbolTableRecord
100
AcDbLinetypeTableRecord
  2
BYBLOCK
 70
     0
  3

 72
    65
 73
     0
 40
0.0
  0
LTYPE
  5
15
330
5
100
AcDbSymbolTableRecord
100
AcDbLinetypeTableRecord
  2
BYLAYER
 70
     0
  3

 72
    65
 73
     0
 40
0.0
  0
LTYPE
  5
16
330
5
100
AcDbSymbolTableRecord
100
AcDbLinetypeTableRecord
  2
CONTINUOUS
 70
     0
  3
Solid line
 72
    65
 73
     0
 40
0.0
  0
ENDTAB
  0
TABLE
  2
LAYER
  5
2
100
AcDbSymbolTable
 70
2
  0
LAYER
  5
50
100
AcDbSymbolTableRecord
100
AcDbLayerTableRecord
  2
0
 70
0
  6
CONTINUOUS
  0
LAYER
  5
51
100
AcDbSymbolTableRecord
100
AcDbLayerTableRecord
  2
Layer_1
 70
0
  6
CONTINUOUS
  0
ENDTAB
  0
TABLE
  2
STYLE
  5
3
330
0
100
AcDbSymbolTable
 70
     1
  0
STYLE
  5
11
330
3
100
AcDbSymbolTableRecord
100
AcDbTextStyleTableRecord
  2
STANDARD
 70
     0
 40
0.0
 41
1.0
 50
0.0
 71
     0
 42
2.5
  3
txt
  4

  0
ENDTAB
  0
TABLE
  2
VIEW
  5
6
330
0
100
AcDbSymbolTable
 70
     0
  0
ENDTAB
  0
TABLE
  2
UCS
  5
7
330
0
100
AcDbSymbolTable
 70
     0
  0
ENDTAB
  0
TABLE
  2
APPID
  5
9
330
0
100
AcDbSymbolTable
 70
     2
  0
APPID
  5
12
330
9
100
AcDbSymbolTableRecord
100
AcDbRegAppTableRecord
  2
ACAD
 70
     0
  0
ENDTAB
  0
TABLE
  2
DIMSTYLE
  5
A
330
0
100
AcDbSymbolTable
 70
     1
  0
DIMSTYLE
105
27
330
A
100
AcDbSymbolTableRecord
100
AcDbDimStyleTableRecord
  2
ISO-25
 70
     0
  3

  4

  5

  6

  7

 40
1.0
 41
2.5
 42
0.625
 43
3.75
 44
1.25
 45
0.0
 46
0.0
 47
0.0
 48
0.0
140
2.5
141
2.5
142
0.0
143
0.03937007874016
144
1.0
145
0.0
146
1.0
147
0.625
 71
     0
 72
     0
 73
     0
 74
     0
 75
     0
 76
     0
 77
     1
 78
     8
170
     0
171
     3
172
     1
173
     0
174
     0
175
     0
176
     0
177
     0
178
     0
270
     2
271
     2
272
     2
273
     2
274
     3
340
11
275
     0
280
     0
281
     0
282
     0
283
     0
284
     8
285
     0
286
     0
287
     3
288
     0
  0
ENDTAB
  0
TABLE
  2
BLOCK_RECORD
  5
1
330
0
100
AcDbSymbolTable
 70
     1
  0
BLOCK_RECORD
  5
1F
330
1
100
AcDbSymbolTableRecord
100
AcDbBlockTableRecord
  2
*MODEL_SPACE
  0
BLOCK_RECORD
  5
1B
330
1
100
AcDbSymbolTableRecord
100
AcDbBlockTableRecord
  2
*PAPER_SPACE
  0
ENDTAB
  0
ENDSEC
  0
SECTION
  2
BLOCKS
  0
BLOCK
  5
20
330
1F
100
AcDbEntity
  8
0
100
AcDbBlockBegin
  2
*MODEL_SPACE
 70
     0
 10
0.0
 20
0.0
 30
0.0
  3
*MODEL_SPACE
  1

  0
ENDBLK
  5
21
330
1F
100
AcDbEntity
  8
0
100
AcDbBlockEnd
  0
BLOCK
  5
1C
330
1B
100
AcDbEntity
 67
     1
  8
0
100
AcDbBlockBegin
  2
*PAPER_SPACE
  1

  0
ENDBLK
  5
1D
330
1B
100
AcDbEntity
 67
     1
  8
0
100
AcDbBlockEnd
  0
ENDSEC
  0
SECTION
  2
ENTITIES
  0
SPLINE
  5
100
100
AcDbEntity
  8
Layer_1
 62
7
100
AcDbSpline
 70
8
 71
3
 72
8
 73
4
 74
0
 40
0
 40
0
 40
0
 40
0
 40
1
 40
1
 40
1
 40
1
 10
303.523965
 20
321.254107
 30
0.0
 10
303.151039
 20
323.636627
 30
0.0
 10
302.728706
 20
328.758661
 30
0.0
 10
300.447298
 20
358.566605
 30
0.0
  0
SPLINE
  5
101
100
AcDbEntity
  8
Layer_1
 62
7
100
AcDbSpline
 70
8
 71
3
 72
8
 73
4
 74
0
 40
0
 40
0
 40
0
 40
0
 40
1
 40
1
 40
1
 40
1
 10
300.447298
 20
358.566605
 30
0.0
 10
299.831641
 20
366.610337
 30
0.0
 10
299.004435
 20
377.410337
 30
0.0
 10
298.609058
 20
382.566586
 30
0.0
  0
SPLINE
  5
102
100
AcDbEntity
  8
Layer_1
 62
7
100
AcDbSpline
 70
8
 71
3
 72
8
 73
4
 74
0
 40
0
 40
0
 40
0
 40
0
 40
1
 40
1
 40
1
 40
1
 10
298.609058
 20
382.566586
 30
0.0
 10
298.213682
 20
387.722863
 30
0.0
 10
296.872668
 20
405.272863
 30
0.0
 10
295.629052
 20
421.566605
 30
0.0
  0
SPLINE
  5
103
100
AcDbEntity
  8
Layer_1
 62
7
100
AcDbSpline
 70
8
 71
3
 72
8
 73
4
 74
0
 40
0
 40
0
 40
0
 40
0
 40
1
 40
1
 40
1
 40
1
 10
295.629052
 20
421.566605
 30
0.0
 10
293.277883
 20
452.371550
 30
0.0
 10
292.585748
 20
460.069285
 30
0.0
 10
292.202476
 20
459.675128
 30
0.0
  0
SPLINE
  5
104
100
AcDbEntity
  8
Layer_1
 62
7
100
AcDbSpline
 70
8
 71
3
 72
8
 73
4
 74
0
 40
0
 40
0
 40
0
 40
0
 40
1
 40
1
 40
1
 40
1
 10
292.202476
 20
459.675128
 30
0.0
 10
292.077468
 20
459.546718
 30
0.0
 10
291.430318
 20
456.235342
 30
0.0
 10
290.764091
 20
452.316586
 30
0.0
  0
SPLINE
  5
105
100
AcDbEntity
  8
Layer_1
 62
7
100
AcDbSpline
 70
8
 71
3
 72
8
 73
4
 74
0
 40
0
 40
0
 40
0
 40
0
 40
1
 40
1
 40
1
 40
1
 10
290.764091
 20
452.316586
 30
0.0
 10
288.071688
 20
436.479761
 30
0.0
 10
283.306938
 20
426.663071
 30
0.0
 10
276.327235
 20
422.572677
 30
0.0
  0
SPLINE
  5
106
100
AcDbEntity
  8
Layer_1
 62
7
100
AcDbSpline
 70
8
 71
3
 72
8
 73
4
 74
0
 40
0
 40
0
 40
0
 40
0
 40
1
 40
1
 40
1
 40
1
 10
276.327235
 20
422.572677
 30
0.0
 10
273.211149
 20
420.746542
 30
0.0
 10
272.471066
 20
420.647953
 30
0.0
 10
261.124517
 20
420.547351
 30
0.0
  0
SPLINE
  5
107
100
AcDbEntity
  8
Layer_1
 62
7
100
AcDbSpline
 70
8
 71
3
 72
8
 73
4
 74
0
 40
0
 40
0
 40
0
 40
0
 40
1
 40
1
 40
1
 40
1
 10
261.124517
 20
420.547351
 30
0.0
 10
250.291743
 20
420.451257
 30
0.0
 10
249.003054
 20
420.297619
 30
0.0
 10
247.079920
 20
418.872643
 30
0.0
  0
SPLINE
  5
108
100
AcDbEntity
  8
Layer_1
 62
7
100
AcDbSpline
 70
8
 71
3
 72
8
 73
4
 74
0
 40
0
 40
0
 40
0
 40
0
 40
1
 40
1
 40
1
 40
1
 10
247.079920
 20
418.872643
 30
0.0
 10
242.590368
 20
415.545987
 30
0.0
 10
239.559296
 20
408.724809
 30
0.0
 10
230.649205
 20
381.896759
 30
0.0
  0
SPLINE
  5
109
100
AcDbEntity
  8
Layer_1
 62
7
100
AcDbSpline
 70
8
 71
3
 72
8
 73
4
 74
0
 40
0
 40
0
 40
0
 40
0
 40
1
 40
1
 40
1
 40
1
 10
230.649205
 20
381.896759
 30
0.0
 10
229.845977
 20
379.478268
 30
0.0
 10
229.562118
 20
380.900466
 30
0.0
 10
223.180316
 20
419.316605
 30
0.0
  0
SPLINE
  5
10a
100
AcDbEntity
  8
Layer_1
 62
7
100
AcDbSpline
 70
8
 71
3
 72
8
 73
4
 74
0
 40
0
 40
0
 40
0
 40
0
 40
1
 40
1
 40
1
 40
1
 10
223.180316
 20
419.316605
 30
0.0
 10
221.295864
 20
430.660346
 30
0.0
 10
219.560958
 20
440.447839
 30
0.0
 10
219.324977
 20
441.066586
 30
0.0
  0
SPLINE
  5
10b
100
AcDbEntity
  8
Layer_1
 62
7
100
AcDbSpline
 70
8
 71
3
 72
8
 73
4
 74
0
 40
0
 40
0
 40
0
 40
0
 40
1
 40
1
 40
1
 40
1
 10
219.324977
 20
441.066586
 30
0.0
 10
219.086838
 20
441.691002
 30
0.0
 10
218.302089
 20
439.916003
 30
0.0
 10
217.561397
 20
437.077672
 30
0.0
  0
SPLINE
  5
10c
100
AcDbEntity
  8
Layer_1
 62
7
100
AcDbSpline
 70
8
 71
3
 72
8
 73
4
 74
0
 40
0
 40
0
 40
0
 40
0
 40
1
 40
1
 40
1
 40
1
 10
217.561397
 20
437.077672
 30
0.0
 10
215.813463
 20
430.379546
 30
0.0
 10
214.774390
 20
427.868844
 30
0.0
 10
212.127369
 20
423.947480
 30
0.0
  0
SPLINE
  5
10d
100
AcDbEntity
  8
Layer_1
 62
7
100
AcDbSpline
 70
8
 71
3
 72
8
 73
4
 74
0
 40
0
 40
0
 40
0
 40
0
 40
1
 40
1
 40
1
 40
1
 10
212.127369
 20
423.947480
 30
0.0
 10
209.185795
 20
419.589723
 30
0.0
 10
206.114754
 20
417.823880
 30
0.0
 10
201.462497
 20
417.815206
 30
0.0
  0
SPLINE
  5
10e
100
AcDbEntity
  8
Layer_1
 62
7
100
AcDbSpline
 70
8
 71
3
 72
8
 73
4
 74
0
 40
0
 40
0
 40
0
 40
0
 40
1
 40
1
 40
1
 40
1
 10
201.462497
 20
417.815206
 30
0.0
 10
196.961868
 20
417.806702
 30
0.0
 10
192.576197
 20
416.684126
 30
0.0
 10
191.370909
 20
415.231852
 30
0.0
  0
SPLINE
  5
10f
100
AcDbEntity
  8
Layer_1
 62
7
100
AcDbSpline
 70
8
 71
3
 72
8
 73
4
 74
0
 40
0
 40
0
 40
0
 40
0
 40
1
 40
1
 40
1
 40
1
 10
191.370909
 20
415.231852
 30
0.0
 10
190.691169
 20
414.412809
 30
0.0
 10
190.780135
 20
413.353361
 30
0.0
 10
191.763459
 20
410.557181
 30
0.0
  0
SPLINE
  5
110
100
AcDbEntity
  8
Layer_1
 62
7
100
AcDbSpline
 70
8
 71
3
 72
8
 73
4
 74
0
 40
0
 40
0
 40
0
 40
0
 40
1
 40
1
 40
1
 40
1
 10
191.763459
 20
410.557181
 30
0.0
 10
193.409943
 20
405.875310
 30
0.0
 10
193.473587
 20
396.640120
 30
0.0
 10
191.884952
 20
392.924381
 30
0.0
  0
SPLINE
  5
111
100
AcDbEntity
  8
Layer_1
 62
7
100
AcDbSpline
 70
8
 71
3
 72
8
 73
4
 74
0
 40
0
 40
0
 40
0
 40
0
 40
1
 40
1
 40
1
 40
1
 10
191.884952
 20
392.924381
 30
0.0
 10
190.377626
 20
389.398791
 30
0.0
 10
185.416977
 20
383.999528
 30
0.0
 10
181.988980
 20
382.153408
 30
0.0
  0
SPLINE
  5
112
100
AcDbEntity
  8
Layer_1
 62
7
100
AcDbSpline
 70
8
 71
3
 72
8
 73
4
 74
0
 40
0
 40
0
 40
0
 40
0
 40
1
 40
1
 40
1
 40
1
 10
181.988980
 20
382.153408
 30
0.0
 10
180.530657
 20
381.368069
 30
0.0
 10
179.337484
 20
380.246258
 30
0.0
 10
179.337484
 20
379.660564
 30
0.0
  0
SPLINE
  5
113
100
AcDbEntity
  8
Layer_1
 62
7
100
AcDbSpline
 70
8
 71
3
 72
8
 73
4
 74
0
 40
0
 40
0
 40
0
 40
0
 40
1
 40
1
 40
1
 40
1
 10
179.337484
 20
379.660564
 30
0.0
 10
179.337484
 20
379.074841
 30
0.0
 10
180.215892
 20
372.485962
 30
0.0
 10
181.289509
 20
365.018598
 30
0.0
  0
SPLINE
  5
114
100
AcDbEntity
  8
Layer_1
 62
7
100
AcDbSpline
 70
8
 71
3
 72
8
 73
4
 74
0
 40
0
 40
0
 40
0
 40
0
 40
1
 40
1
 40
1
 40
1
 10
181.289509
 20
365.018598
 30
0.0
 10
183.447357
 20
350.010000
 30
0.0
 10
183.359769
 20
344.010699
 30
0.0
 10
180.912798
 20
339.214224
 30
0.0
  0
SPLINE
  5
115
100
AcDbEntity
  8
Layer_1
 62
7
100
AcDbSpline
 70
8
 71
3
 72
8
 73
4
 74
0
 40
0
 40
0
 40
0
 40
0
 40
1
 40
1
 40
1
 40
1
 10
180.912798
 20
339.214224
 30
0.0
 10
176.751011
 20
331.056454
 30
0.0
 10
166.002372
 20
327.343946
 30
0.0
 10
155.540455
 20
330.450803
 30
0.0
  0
SPLINE
  5
116
100
AcDbEntity
  8
Layer_1
 62
7
100
AcDbSpline
 70
8
 71
3
 72
8
 73
4
 74
0
 40
0
 40
0
 40
0
 40
0
 40
1
 40
1
 40
1
 40
1
 10
155.540455
 20
330.450803
 30
0.0
 10
148.337478
 20
332.589855
 30
0.0
 10
141.837483
 20
341.910113
 30
0.0
 10
141.837483
 20
350.099291
 30
0.0
  0
SPLINE
  5
117
100
AcDbEntity
  8
Layer_1
 62
7
100
AcDbSpline
 70
8
 71
3
 72
8
 73
4
 74
0
 40
0
 40
0
 40
0
 40
0
 40
1
 40
1
 40
1
 40
1
 10
141.837483
 20
350.099291
 30
0.0
 10
141.837483
 20
358.960847
 30
0.0
 10
148.740752
 20
365.590715
 30
0.0
 10
156.459912
 20
364.142608
 30
0.0
  0
SPLINE
  5
118
100
AcDbEntity
  8
Layer_1
 62
7
100
AcDbSpline
 70
8
 71
3
 72
8
 73
4
 74
0
 40
0
 40
0
 40
0
 40
0
 40
1
 40
1
 40
1
 40
1
 10
156.459912
 20
364.142608
 30
0.0
 10
160.170783
 20
363.446447
 30
0.0
 10
165.438386
 20
358.535537
 30
0.0
 10
167.081440
 20
354.240340
 30
0.0
  0
SPLINE
  5
119
100
AcDbEntity
  8
Layer_1
 62
7
100
AcDbSpline
 70
8
 71
3
 72
8
 73
4
 74
0
 40
0
 40
0
 40
0
 40
0
 40
1
 40
1
 40
1
 40
1
 10
167.081440
 20
354.240340
 30
0.0
 10
168.957573
 20
349.335836
 30
0.0
 10
168.784594
 20
342.997002
 30
0.0
 10
166.677160
 20
339.425150
 30
0.0
  0
SPLINE
  5
11a
100
AcDbEntity
  8
Layer_1
 62
7
100
AcDbSpline
 70
8
 71
3
 72
8
 73
4
 74
0
 40
0
 40
0
 40
0
 40
0
 40
1
 40
1
 40
1
 40
1
 10
166.677160
 20
339.425150
 30
0.0
 10
165.769316
 20
337.886476
 30
0.0
 10
165.141782
 20
336.512296
 30
0.0
 10
165.282647
 20
336.371443
 30
0.0
  0
SPLINE
  5
11b
100
AcDbEntity
  8
Layer_1
 62
7
100
AcDbSpline
 70
8
 71
3
 72
8
 73
4
 74
0
 40
0
 40
0
 40
0
 40
0
 40
1
 40
1
 40
1
 40
1
 10
165.282647
 20
336.371443
 30
0.0
 10
165.423501
 20
336.230561
 30
0.0
 10
166.811014
 20
336.505805
 30
0.0
 10
168.365988
 20
336.983017
 30
0.0
  0
SPLINE
  5
11c
100
AcDbEntity
  8
Layer_1
 62
7
100
AcDbSpline
 70
8
 71
3
 72
8
 73
4
 74
0
 40
0
 40
0
 40
0
 40
0
 40
1
 40
1
 40
1
 40
1
 10
168.365988
 20
336.983017
 30
0.0
 10
174.137119
 20
338.754246
 30
0.0
 10
176.578053
 20
344.145458
 30
0.0
 10
176.610110
 20
355.191591
 30
0.0
  0
SPLINE
  5
11d
100
AcDbEntity
  8
Layer_1
 62
7
100
AcDbSpline
 70
8
 71
3
 72
8
 73
4
 74
0
 40
0
 40
0
 40
0
 40
0
 40
1
 40
1
 40
1
 40
1
 10
176.610110
 20
355.191591
 30
0.0
 10
176.630236
 20
362.139959
 30
0.0
 10
175.100014
 20
375.678283
 30
0.0
 10
174.114162
 20
377.273424
 30
0.0
  0
SPLINE
  5
11e
100
AcDbEntity
  8
Layer_1
 62
7
100
AcDbSpline
 70
8
 71
3
 72
8
 73
4
 74
0
 40
0
 40
0
 40
0
 40
0
 40
1
 40
1
 40
1
 40
1
 10
174.114162
 20
377.273424
 30
0.0
 10
173.684081
 20
377.969329
 30
0.0
 10
172.473415
 20
377.973950
 30
0.0
 10
168.760443
 20
377.293266
 30
0.0
  0
SPLINE
  5
11f
100
AcDbEntity
  8
Layer_1
 62
7
100
AcDbSpline
 70
8
 71
3
 72
8
 73
4
 74
0
 40
0
 40
0
 40
0
 40
0
 40
1
 40
1
 40
1
 40
1
 10
168.760443
 20
377.293266
 30
0.0
 10
156.797237
 20
375.102028
 30
0.0
 10
142.821204
 20
379.911713
 30
0.0
 10
135.621969
 20
388.697414
 30
0.0
  0
SPLINE
  5
120
100
AcDbEntity
  8
Layer_1
 62
7
100
AcDbSpline
 70
8
 71
3
 72
8
 73
4
 74
0
 40
0
 40
0
 40
0
 40
0
 40
1
 40
1
 40
1
 40
1
 10
135.621969
 20
388.697414
 30
0.0
 10
131.741087
 20
393.433512
 30
0.0
 10
129.289246
 20
398.783707
 30
0.0
 10
127.277099
 20
406.906894
 30
0.0
  0
SPLINE
  5
121
100
AcDbEntity
  8
Layer_1
 62
7
100
AcDbSpline
 70
8
 71
3
 72
8
 73
4
 74
0
 40
0
 40
0
 40
0
 40
0
 40
1
 40
1
 40
1
 40
1
 10
127.277099
 20
406.906894
 30
0.0
 10
126.297680
 20
410.860857
 30
0.0
 10
125.104476
 20
414.568091
 30
0.0
 10
124.625531
 20
415.145197
 30
0.0
  0
SPLINE
  5
122
100
AcDbEntity
  8
Layer_1
 62
7
100
AcDbSpline
 70
8
 71
3
 72
8
 73
4
 74
0
 40
0
 40
0
 40
0
 40
0
 40
1
 40
1
 40
1
 40
1
 10
124.625531
 20
415.145197
 30
0.0
 10
122.836946
 20
417.300293
 30
0.0
 10
111.919272
 20
418.260132
 30
0.0
 10
77.418221
 20
419.295515
 30
0.0
  0
SPLINE
  5
123
100
AcDbEntity
  8
Layer_1
 62
7
100
AcDbSpline
 70
8
 71
3
 72
8
 73
4
 74
0
 40
0
 40
0
 40
0
 40
0
 40
1
 40
1
 40
1
 40
1
 10
77.418221
 20
419.295515
 30
0.0
 10
64.551830
 20
419.681622
 30
0.0
 10
54.304384
 20
420.299121
 30
0.0
 10
53.890243
 20
420.713263
 30
0.0
  0
SPLINE
  5
124
100
AcDbEntity
  8
Layer_1
 62
7
100
AcDbSpline
 70
8
 71
3
 72
8
 73
4
 74
0
 40
0
 40
0
 40
0
 40
0
 40
1
 40
1
 40
1
 40
1
 10
53.890243
 20
420.713263
 30
0.0
 10
52.817958
 20
421.785553
 30
0.0
 10
57.005802
 20
422.162816
 30
0.0
 10
79.962500
 20
423.061965
 30
0.0
  0
SPLINE
  5
125
100
AcDbEntity
  8
Layer_1
 62
7
100
AcDbSpline
 70
8
 71
3
 72
8
 73
4
 74
0
 40
0
 40
0
 40
0
 40
0
 40
1
 40
1
 40
1
 40
1
 10
79.962500
 20
423.061965
 30
0.0
 10
104.690750
 20
424.030507
 30
0.0
 10
119.601686
 20
425.121704
 30
0.0
 10
123.087501
 20
426.217918
 30
0.0
  0
SPLINE
  5
126
100
AcDbEntity
  8
Layer_1
 62
7
100
AcDbSpline
 70
8
 71
3
 72
8
 73
4
 74
0
 40
0
 40
0
 40
0
 40
0
 40
1
 40
1
 40
1
 40
1
 10
123.087501
 20
426.217918
 30
0.0
 10
127.343061
 20
427.556239
 30
0.0
 10
129.005461
 20
429.012170
 30
0.0
 10
132.946526
 20
434.852589
 30
0.0
  0
SPLINE
  5
127
100
AcDbEntity
  8
Layer_1
 62
7
100
AcDbSpline
 70
8
 71
3
 72
8
 73
4
 74
0
 40
0
 40
0
 40
0
 40
0
 40
1
 40
1
 40
1
 40
1
 10
132.946526
 20
434.852589
 30
0.0
 10
137.001288
 20
440.861471
 30
0.0
 10
143.616115
 20
448.907272
 30
0.0
 10
149.624141
 20
455.138022
 30
0.0
  0
SPLINE
  5
128
100
AcDbEntity
  8
Layer_1
 62
7
100
AcDbSpline
 70
8
 71
3
 72
8
 73
4
 74
0
 40
0
 40
0
 40
0
 40
0
 40
1
 40
1
 40
1
 40
1
 10
151.378427
 20
469.013046
 30
0.0
 10
148.970268
 20
480.666217
 30
0.0
 10
148.667635
 20
491.886227
 30
0.0
 10
150.519640
 20
500.852381
 30
0.0
  0
SPLINE
  5
129
100
AcDbEntity
  8
Layer_1
 62
7
100
AcDbSpline
 70
8
 71
3
 72
8
 73
4
 74
0
 40
0
 40
0
 40
0
 40
0
 40
1
 40
1
 40
1
 40
1
 10
150.519640
 20
500.852381
 30
0.0
 10
152.762411
 20
511.710293
 30
0.0
 10
155.894899
 20
516.058554
 30
0.0
 10
161.875525
 20
516.615591
 30
0.0
  0
SPLINE
  5
12a
100
AcDbEntity
  8
Layer_1
 62
7
100
AcDbSpline
 70
8
 71
3
 72
8
 73
4
 74
0
 40
0
 40
0
 40
0
 40
0
 40
1
 40
1
 40
1
 40
1
 10
161.875525
 20
516.615591
 30
0.0
 10
166.875707
 20
517.081323
 30
0.0
 10
169.954248
 20
514.873304
 30
0.0
 10
173.212931
 20
508.484126
 30
0.0
  0
SPLINE
  5
12b
100
AcDbEntity
  8
Layer_1
 62
7
100
AcDbSpline
 70
8
 71
3
 72
8
 73
4
 74
0
 40
0
 40
0
 40
0
 40
0
 40
1
 40
1
 40
1
 40
1
 10
173.212931
 20
508.484126
 30
0.0
 10
180.601532
 20
493.997556
 30
0.0
 10
178.495705
 20
470.240391
 30
0.0
 10
168.513151
 20
455.463043
 30
0.0
  0
SPLINE
  5
12c
100
AcDbEntity
  8
Layer_1
 62
7
100
AcDbSpline
 70
8
 71
3
 72
8
 73
4
 74
0
 40
0
 40
0
 40
0
 40
0
 40
1
 40
1
 40
1
 40
1
 10
168.513151
 20
455.463043
 30
0.0
 10
161.186749
 20
444.617632
 30
0.0
 10
161.692353
 20
446.842857
 30
0.0
 10
164.410841
 20
437.408334
 30
0.0
  0
LWPOLYLINE
  5
12d
100
AcDbEntity
  8
Layer_1
 62
7
100
AcDbPolyline
 90
3
 70
0
 10
149.624141
 20
455.138022
 30
0.0
 10
153.430067
 20
459.085068
 30
0.0
 10
151.378427
 20
469.013046
 30
0.0
  0
SPLINE
  5
12e
100
AcDbEntity
  8
Layer_1
 62
7
100
AcDbSpline
 70
8
 71
3
 72
8
 73
4
 74
0
 40
0
 40
0
 40
0
 40
0
 40
1
 40
1
 40
1
 40
1
 10
169.913642
 20
429.550611
 30
0.0
 10
171.736149
 20
429.800343
 30
0.0
 10
175.661297
 20
429.413698
 30
0.0
 10
179.370879
 20
428.619090
 30
0.0
  0
SPLINE
  5
12f
100
AcDbEntity
  8
Layer_1
 62
7
100
AcDbSpline
 70
8
 71
3
 72
8
 73
4
 74
0
 40
0
 40
0
 40
0
 40
0
 40
1
 40
1
 40
1
 40
1
 10
179.370879
 20
428.619090
 30
0.0
 10
183.742654
 20
427.682551
 30
0.0
 10
188.510749
 20
427.292617
 30
0.0
 10
194.721024
 20
427.363795
 30
0.0
  0
SPLINE
  5
130
100
AcDbEntity
  8
Layer_1
 62
7
100
AcDbSpline
 70
8
 71
3
 72
8
 73
4
 74
0
 40
0
 40
0
 40
0
 40
0
 40
1
 40
1
 40
1
 40
1
 10
194.721024
 20
427.363795
 30
0.0
 10
204.415254
 20
427.474913
 30
0.0
 10
207.283119
 20
428.128753
 30
0.0
 10
208.562681
 20
430.519635
 30
0.0
  0
SPLINE
  5
131
100
AcDbEntity
  8
Layer_1
 62
7
100
AcDbSpline
 70
8
 71
3
 72
8
 73
4
 74
0
 40
0
 40
0
 40
0
 40
0
 40
1
 40
1
 40
1
 40
1
 10
208.562681
 20
430.519635
 30
0.0
 10
209.011691
 20
431.358605
 30
0.0
 10
210.903979
 20
439.221657
 30
0.0
 10
212.767773
 20
447.993043
 30
0.0
  0
SPLINE
  5
132
100
AcDbEntity
  8
Layer_1
 62
7
100
AcDbSpline
 70
8
 71
3
 72
8
 73
4
 74
0
 40
0
 40
0
 40
0
 40
0
 40
1
 40
1
 40
1
 40
1
 10
212.767773
 20
447.993043
 30
0.0
 10
218.537147
 20
475.144923
 30
0.0
 10
219.223967
 20
477.979654
 30
0.0
 10
219.874674
 20
477.325531
 30
0.0
  0
SPLINE
  5
133
100
AcDbEntity
  8
Layer_1
 62
7
100
AcDbSpline
 70
8
 71
3
 72
8
 73
4
 74
0
 40
0
 40
0
 40
0
 40
0
 40
1
 40
1
 40
1
 40
1
 10
219.874674
 20
477.325531
 30
0.0
 10
220.221842
 20
476.976557
 30
0.0
 10
222.864055
 20
462.516009
 30
0.0
 10
225.746252
 20
445.191024
 30
0.0
  0
SPLINE
  5
134
100
AcDbEntity
  8
Layer_1
 62
7
100
AcDbSpline
 70
8
 71
3
 72
8
 73
4
 74
0
 40
0
 40
0
 40
0
 40
0
 40
1
 40
1
 40
1
 40
1
 10
225.746252
 20
445.191024
 30
0.0
 10
228.628451
 20
427.866009
 30
0.0
 10
231.299042
 20
412.852791
 30
0.0
 10
231.680911
 20
411.828321
 30
0.0
  0
SPLINE
  5
135
100
AcDbEntity
  8
Layer_1
 62
7
100
AcDbSpline
 70
8
 71
3
 72
8
 73
4
 74
0
 40
0
 40
0
 40
0
 40
0
 40
1
 40
1
 40
1
 40
1
 10
231.680911
 20
411.828321
 30
0.0
 10
232.455895
 20
409.749194
 30
0.0
 10
232.232913
 20
409.328419
 30
0.0
 10
234.059221
 20
416.316019
 30
0.0
  0
SPLINE
  5
136
100
AcDbEntity
  8
Layer_1
 62
7
100
AcDbSpline
 70
8
 71
3
 72
8
 73
4
 74
0
 40
0
 40
0
 40
0
 40
0
 40
1
 40
1
 40
1
 40
1
 10
234.059221
 20
416.316019
 30
0.0
 10
235.171174
 20
420.570397
 30
0.0
 10
238.320677
 20
425.233134
 30
0.0
 10
241.225217
 20
426.924964
 30
0.0
  0
SPLINE
  5
137
100
AcDbEntity
  8
Layer_1
 62
7
100
AcDbSpline
 70
8
 71
3
 72
8
 73
4
 74
0
 40
0
 40
0
 40
0
 40
0
 40
1
 40
1
 40
1
 40
1
 10
241.225217
 20
426.924964
 30
0.0
 10
244.073004
 20
428.583770
 30
0.0
 10
251.579305
 20
429.803093
 30
0.0
 10
258.988082
 20
429.810350
 30
0.0
  0
SPLINE
  5
138
100
AcDbEntity
  8
Layer_1
 62
7
100
AcDbSpline
 70
8
 71
3
 72
8
 73
4
 74
0
 40
0
 40
0
 40
0
 40
0
 40
1
 40
1
 40
1
 40
1
 10
258.988082
 20
429.810350
 30
0.0
 10
269.569069
 20
429.821688
 30
0.0
 10
275.240741
 20
432.052724
 30
0.0
 10
277.937425
 20
437.267537
 30
0.0
  0
SPLINE
  5
139
100
AcDbEntity
  8
Layer_1
 62
7
100
AcDbSpline
 70
8
 71
3
 72
8
 73
4
 74
0
 40
0
 40
0
 40
0
 40
0
 40
1
 40
1
 40
1
 40
1
 10
277.937425
 20
437.267537
 30
0.0
 10
279.400629
 20
440.097052
 30
0.0
 10
283.437595
 20
460.684176
 30
0.0
 10
288.830013
 20
492.816019
 30
0.0
  0
SPLINE
  5
13a
100
AcDbEntity
  8
Layer_1
 62
7
100
AcDbSpline
 70
8
 71
3
 72
8
 73
4
 74
0
 40
0
 40
0
 40
0
 40
0
 40
1
 40
1
 40
1
 40
1
 10
288.830013
 20
492.816019
 30
0.0
 10
291.356787
 20
507.872268
 30
0.0
 10
293.756202
 20
520.525701
 30
0.0
 10
294.162038
 20
520.934740
 30
0.0
  0
SPLINE
  5
13b
100
AcDbEntity
  8
Layer_1
 62
7
100
AcDbSpline
 70
8
 71
3
 72
8
 73
4
 74
0
 40
0
 40
0
 40
0
 40
0
 40
1
 40
1
 40
1
 40
1
 10
294.162038
 20
520.934740
 30
0.0
 10
294.991739
 20
521.770989
 30
0.0
 10
296.305739
 20
520.182198
 30
0.0
 10
296.327877
 20
518.316009
 30
0.0
  0
SPLINE
  5
13c
100
AcDbEntity
  8
Layer_1
 62
7
100
AcDbSpline
 70
8
 71
3
 72
8
 73
4
 74
0
 40
0
 40
0
 40
0
 40
0
 40
1
 40
1
 40
1
 40
1
 10
296.327877
 20
518.316009
 30
0.0
 10
296.336381
 20
517.697263
 30
0.0
 10
297.015619
 20
508.584756
 30
0.0
 10
297.839906
 20
498.066009
 30
0.0
  0
SPLINE
  5
13d
100
AcDbEntity
  8
Layer_1
 62
7
100
AcDbSpline
 70
8
 71
3
 72
8
 73
4
 74
0
 40
0
 40
0
 40
0
 40
0
 40
1
 40
1
 40
1
 40
1
 10
297.839906
 20
498.066009
 30
0.0
 10
298.664192
 20
487.547263
 30
0.0
 10
300.012236
 20
470.334756
 30
0.0
 10
300.835587
 20
459.816009
 30
0.0
  0
SPLINE
  5
13e
100
AcDbEntity
  8
Layer_1
 62
7
100
AcDbSpline
 70
8
 71
3
 72
8
 73
4
 74
0
 40
0
 40
0
 40
0
 40
0
 40
1
 40
1
 40
1
 40
1
 10
300.835587
 20
459.816009
 30
0.0
 10
301.658939
 20
449.297263
 30
0.0
 10
303.358054
 20
427.697263
 30
0.0
 10
304.611392
 20
411.816019
 30
0.0
  0
SPLINE
  5
13f
100
AcDbEntity
  8
Layer_1
 62
7
100
AcDbSpline
 70
8
 71
3
 72
8
 73
4
 74
0
 40
0
 40
0
 40
0
 40
0
 40
1
 40
1
 40
1
 40
1
 10
304.611392
 20
411.816019
 30
0.0
 10
305.864731
 20
395.934746
 30
0.0
 10
307.098794
 20
379.638340
 30
0.0
 10
307.353770
 20
375.601748
 30
0.0
  0
SPLINE
  5
140
100
AcDbEntity
  8
Layer_1
 62
7
100
AcDbSpline
 70
8
 71
3
 72
8
 73
4
 74
0
 40
0
 40
0
 40
0
 40
0
 40
1
 40
1
 40
1
 40
1
 10
307.353770
 20
375.601748
 30
0.0
 10
307.608605
 20
371.565156
 30
0.0
 10
308.033887
 20
368.128658
 30
0.0
 10
308.298557
 20
367.965071
 30
0.0
  0
SPLINE
  5
141
100
AcDbEntity
  8
Layer_1
 62
7
100
AcDbSpline
 70
8
 71
3
 72
8
 73
4
 74
0
 40
0
 40
0
 40
0
 40
0
 40
1
 40
1
 40
1
 40
1
 10
308.298557
 20
367.965071
 30
0.0
 10
308.563313
 20
367.801512
 30
0.0
 10
309.687676
 20
374.479172
 30
0.0
 10
310.797354
 20
382.804356
 30
0.0
  0
SPLINE
  5
142
100
AcDbEntity
  8
Layer_1
 62
7
100
AcDbSpline
 70
8
 71
3
 72
8
 73
4
 74
0
 40
0
 40
0
 40
0
 40
0
 40
1
 40
1
 40
1
 40
1
 10
310.797354
 20
382.804356
 30
0.0
 10
314.123357
 20
407.757146
 30
0.0
 10
318.142432
 20
421.851742
 30
0.0
 10
322.802391
 20
424.905080
 30
0.0
  0
SPLINE
  5
143
100
AcDbEntity
  8
Layer_1
 62
7
100
AcDbSpline
 70
8
 71
3
 72
8
 73
4
 74
0
 40
0
 40
0
 40
0
 40
0
 40
1
 40
1
 40
1
 40
1
 10
322.802391
 20
424.905080
 30
0.0
 10
324.065622
 20
425.732769
 30
0.0
 10
327.492652
 20
426.315713
 30
0.0
 10
333.583342
 20
426.738926
 30
0.0
  0
SPLINE
  5
144
100
AcDbEntity
  8
Layer_1
 62
7
100
AcDbSpline
 70
8
 71
3
 72
8
 73
4
 74
0
 40
0
 40
0
 40
0
 40
0
 40
1
 40
1
 40
1
 40
1
 10
333.583342
 20
426.738926
 30
0.0
 10
344.962403
 20
427.529622
 30
0.0
 10
347.544794
 20
428.766832
 30
0.0
 10
350.663868
 20
434.922151
 30
0.0
  0
SPLINE
  5
145
100
AcDbEntity
  8
Layer_1
 62
7
100
AcDbSpline
 70
8
 71
3
 72
8
 73
4
 74
0
 40
0
 40
0
 40
0
 40
0
 40
1
 40
1
 40
1
 40
1
 10
350.663868
 20
434.922151
 30
0.0
 10
352.414460
 20
438.376791
 30
0.0
 10
355.949206
 20
450.018595
 30
0.0
 10
358.998094
 20
462.370989
 30
0.0
  0
SPLINE
  5
146
100
AcDbEntity
  8
Layer_1
 62
7
100
AcDbSpline
 70
8
 71
3
 72
8
 73
4
 74
0
 40
0
 40
0
 40
0
 40
0
 40
1
 40
1
 40
1
 40
1
 10
358.998094
 20
462.370989
 30
0.0
 10
360.413972
 20
468.107490
 30
0.0
 10
361.715102
 20
472.943622
 30
0.0
 10
361.889461
 20
473.117953
 30
0.0
  0
SPLINE
  5
147
100
AcDbEntity
  8
Layer_1
 62
7
100
AcDbSpline
 70
8
 71
3
 72
8
 73
4
 74
0
 40
0
 40
0
 40
0
 40
0
 40
1
 40
1
 40
1
 40
1
 10
361.889461
 20
473.117953
 30
0.0
 10
362.300173
 20
473.528693
 30
0.0
 10
363.040781
 20
469.786932
 30
0.0
 10
367.565329
 20
444.441005
 30
0.0
  0
SPLINE
  5
148
100
AcDbEntity
  8
Layer_1
 62
7
100
AcDbSpline
 70
8
 71
3
 72
8
 73
4
 74
0
 40
0
 40
0
 40
0
 40
0
 40
1
 40
1
 40
1
 40
1
 10
367.565329
 20
444.441005
 30
0.0
 10
369.627137
 20
432.891014
 30
0.0
 10
372.048661
 20
419.391014
 30
0.0
 10
372.946450
 20
414.441014
 30
0.0
  0
LWPOLYLINE
  5
149
100
AcDbEntity
  8
Layer_1
 62
7
100
AcDbPolyline
 90
3
 70
0
 10
164.410841
 20
437.408334
 30
0.0
 10
166.798029
 20
429.123572
 30
0.0
 10
169.913642
 20
429.550611
 30
0.0
  0
SPLINE
  5
14a
100
AcDbEntity
  8
Layer_1
 62
7
100
AcDbSpline
 70
8
 71
3
 72
8
 73
4
 74
0
 40
0
 40
0
 40
0
 40
0
 40
1
 40
1
 40
1
 40
1
 10
376.201899
 20
410.691005
 30
0.0
 10
378.974268
 20
419.658548
 30
0.0
 10
381.608362
 20
423.201543
 30
0.0
 10
387.462501
 20
425.836998
 30
0.0
  0
SPLINE
  5
14b
100
AcDbEntity
  8
Layer_1
 62
7
100
AcDbSpline
 70
8
 71
3
 72
8
 73
4
 74
0
 40
0
 40
0
 40
0
 40
0
 40
1
 40
1
 40
1
 40
1
 10
387.462501
 20
425.836998
 30
0.0
 10
390.081175
 20
427.015899
 30
0.0
 10
392.337780
 20
427.162054
 30
0.0
 10
405.215858
 20
426.986872
 30
0.0
  0
SPLINE
  5
14c
100
AcDbEntity
  8
Layer_1
 62
7
100
AcDbSpline
 70
8
 71
3
 72
8
 73
4
 74
0
 40
0
 40
0
 40
0
 40
0
 40
1
 40
1
 40
1
 40
1
 10
405.215858
 20
426.986872
 30
0.0
 10
419.909301
 20
426.787030
 30
0.0
 10
419.977843
 20
426.793550
 30
0.0
 10
422.090844
 20
428.616057
 30
0.0
  0
SPLINE
  5
14d
100
AcDbEntity
  8
Layer_1
 62
7
100
AcDbSpline
 70
8
 71
3
 72
8
 73
4
 74
0
 40
0
 40
0
 40
0
 40
0
 40
1
 40
1
 40
1
 40
1
 10
422.090844
 20
428.616057
 30
0.0
 10
424.162261
 20
430.402592
 30
0.0
 10
424.210904
 20
430.620520
 30
0.0
 10
424.145169
 20
437.818479
 30
0.0
  0
SPLINE
  5
14e
100
AcDbEntity
  8
Layer_1
 62
7
100
AcDbSpline
 70
8
 71
3
 72
8
 73
4
 74
0
 40
0
 40
0
 40
0
 40
0
 40
1
 40
1
 40
1
 40
1
 10
424.145169
 20
437.818479
 30
0.0
 10
424.075153
 20
445.477153
 30
0.0
 10
423.647036
 20
448.161931
 30
0.0
 10
420.098315
 20
463.190995
 30
0.0
  0
SPLINE
  5
14f
100
AcDbEntity
  8
Layer_1
 62
7
100
AcDbSpline
 70
8
 71
3
 72
8
 73
4
 74
0
 40
0
 40
0
 40
0
 40
0
 40
1
 40
1
 40
1
 40
1
 10
420.098315
 20
463.190995
 30
0.0
 10
415.611751
 20
482.191852
 30
0.0
 10
415.461175
 20
483.803121
 30
0.0
 10
418.566841
 20
479.580066
 30
0.0
  0
SPLINE
  5
150
100
AcDbEntity
  8
Layer_1
 62
7
100
AcDbSpline
 70
8
 71
3
 72
8
 73
4
 74
0
 40
0
 40
0
 40
0
 40
0
 40
1
 40
1
 40
1
 40
1
 10
418.566841
 20
479.580066
 30
0.0
 10
424.785515
 20
471.123978
 30
0.0
 10
435.571994
 20
468.268980
 30
0.0
 10
446.599389
 20
472.160381
 30
0.0
  0
SPLINE
  5
151
100
AcDbEntity
  8
Layer_1
 62
7
100
AcDbSpline
 70
8
 71
3
 72
8
 73
4
 74
0
 40
0
 40
0
 40
0
 40
0
 40
1
 40
1
 40
1
 40
1
 10
446.599389
 20
472.160381
 30
0.0
 10
457.242208
 20
475.916032
 30
0.0
 10
465.251641
 20
482.629351
 30
0.0
 10
470.222135
 20
491.960381
 30
0.0
  0
SPLINE
  5
152
100
AcDbEntity
  8
Layer_1
 62
7
100
AcDbSpline
 70
8
 71
3
 72
8
 73
4
 74
0
 40
0
 40
0
 40
0
 40
0
 40
1
 40
1
 40
1
 40
1
 10
470.222135
 20
491.960381
 30
0.0
 10
471.602466
 20
494.551616
 30
0.0
 10
472.882620
 20
496.520872
 30
0.0
 10
473.066986
 20
496.336535
 30
0.0
  0
SPLINE
  5
153
100
AcDbEntity
  8
Layer_1
 62
7
100
AcDbSpline
 70
8
 71
3
 72
8
 73
4
 74
0
 40
0
 40
0
 40
0
 40
0
 40
1
 40
1
 40
1
 40
1
 10
473.066986
 20
496.336535
 30
0.0
 10
473.251238
 20
496.152283
 30
0.0
 10
472.821506
 20
487.944028
 30
0.0
 10
472.111682
 20
478.096157
 30
0.0
  0
SPLINE
  5
154
100
AcDbEntity
  8
Layer_1
 62
7
100
AcDbSpline
 70
8
 71
3
 72
8
 73
4
 74
0
 40
0
 40
0
 40
0
 40
0
 40
1
 40
1
 40
1
 40
1
 10
472.111682
 20
478.096157
 30
0.0
 10
471.061531
 20
463.525767
 30
0.0
 10
470.950753
 20
457.156545
 30
0.0
 10
471.516832
 20
443.898227
 30
0.0
  0
SPLINE
  5
155
100
AcDbEntity
  8
Layer_1
 62
7
100
AcDbSpline
 70
8
 71
3
 72
8
 73
4
 74
0
 40
0
 40
0
 40
0
 40
0
 40
1
 40
1
 40
1
 40
1
 10
471.516832
 20
443.898227
 30
0.0
 10
472.147909
 20
429.118072
 30
0.0
 10
472.351748
 20
427.468932
 30
0.0
 10
473.712491
 20
426.135118
 30
0.0
  0
SPLINE
  5
156
100
AcDbEntity
  8
Layer_1
 62
7
100
AcDbSpline
 70
8
 71
3
 72
8
 73
4
 74
0
 40
0
 40
0
 40
0
 40
0
 40
1
 40
1
 40
1
 40
1
 10
473.712491
 20
426.135118
 30
0.0
 10
475.008151
 20
424.865055
 30
0.0
 10
477.000510
 20
424.550041
 30
0.0
 10
488.337506
 20
423.822728
 30
0.0
  0
SPLINE
  5
157
100
AcDbEntity
  8
Layer_1
 62
7
100
AcDbSpline
 70
8
 71
3
 72
8
 73
4
 74
0
 40
0
 40
0
 40
0
 40
0
 40
1
 40
1
 40
1
 40
1
 10
488.337506
 20
423.822728
 30
0.0
 10
505.548935
 20
422.718520
 30
0.0
 10
523.128331
 20
421.696857
 30
0.0
 10
535.212482
 20
421.098463
 30
0.0
  0
SPLINE
  5
158
100
AcDbEntity
  8
Layer_1
 62
7
100
AcDbSpline
 70
8
 71
3
 72
8
 73
4
 74
0
 40
0
 40
0
 40
0
 40
0
 40
1
 40
1
 40
1
 40
1
 10
535.212482
 20
421.098463
 30
0.0
 10
545.829364
 20
420.572721
 30
0.0
 10
549.057883
 20
419.800139
 30
0.0
 10
543.752192
 20
419.054910
 30
0.0
  0
SPLINE
  5
159
100
AcDbEntity
  8
Layer_1
 62
7
100
AcDbSpline
 70
8
 71
3
 72
8
 73
4
 74
0
 40
0
 40
0
 40
0
 40
0
 40
1
 40
1
 40
1
 40
1
 10
543.752192
 20
419.054910
 30
0.0
 10
536.907742
 20
418.093512
 30
0.0
 10
493.988485
 20
416.177121
 30
0.0
 10
476.712482
 20
416.061496
 30
0.0
  0
SPLINE
  5
15a
100
AcDbEntity
  8
Layer_1
 62
7
100
AcDbSpline
 70
8
 71
3
 72
8
 73
4
 74
0
 40
0
 40
0
 40
0
 40
0
 40
1
 40
1
 40
1
 40
1
 10
476.712482
 20
416.061496
 30
0.0
 10
458.925307
 20
415.942441
 30
0.0
 10
458.674923
 20
415.962567
 30
0.0
 10
455.535298
 20
417.760838
 30
0.0
  0
SPLINE
  5
15b
100
AcDbEntity
  8
Layer_1
 62
7
100
AcDbSpline
 70
8
 71
3
 72
8
 73
4
 74
0
 40
0
 40
0
 40
0
 40
0
 40
1
 40
1
 40
1
 40
1
 10
455.535298
 20
417.760838
 30
0.0
 10
447.753203
 20
422.218205
 30
0.0
 10
443.999906
 20
434.688463
 30
0.0
 10
448.658022
 20
440.610350
 30
0.0
  0
SPLINE
  5
15c
100
AcDbEntity
  8
Layer_1
 62
7
100
AcDbSpline
 70
8
 71
3
 72
8
 73
4
 74
0
 40
0
 40
0
 40
0
 40
0
 40
1
 40
1
 40
1
 40
1
 10
448.658022
 20
440.610350
 30
0.0
 10
451.519058
 20
444.247569
 30
0.0
 10
457.985991
 20
443.948343
 30
0.0
 10
463.947222
 20
439.902964
 30
0.0
  0
LWPOLYLINE
  5
15d
100
AcDbEntity
  8
Layer_1
 62
7
100
AcDbPolyline
 90
3
 70
0
 10
372.946450
 20
414.441014
 30
0.0
 10
374.578838
 20
405.441014
 30
0.0
 10
376.201899
 20
410.691005
 30
0.0
  0
SPLINE
  5
15e
100
AcDbEntity
  8
Layer_1
 62
7
100
AcDbSpline
 70
8
 71
3
 72
8
 73
4
 74
0
 40
0
 40
0
 40
0
 40
0
 40
1
 40
1
 40
1
 40
1
 10
466.269902
 20
449.088208
 30
0.0
 10
465.993241
 20
455.194772
 30
0.0
 10
465.594661
 20
461.541033
 30
0.0
 10
465.384104
 20
463.191024
 30
0.0
  0
LWPOLYLINE
  5
15f
100
AcDbEntity
  8
Layer_1
 62
7
100
AcDbPolyline
 90
3
 70
0
 10
463.947222
 20
439.902964
 30
0.0
 10
466.772854
 20
437.985411
 30
0.0
 10
466.269902
 20
449.088208
 30
0.0
  0
SPLINE
  5
160
100
AcDbEntity
  8
Layer_1
 62
7
100
AcDbSpline
 70
8
 71
3
 72
8
 73
4
 74
0
 40
0
 40
0
 40
0
 40
0
 40
1
 40
1
 40
1
 40
1
 10
460.315956
 20
461.691043
 30
0.0
 10
450.949776
 20
452.695266
 30
0.0
 10
439.959515
 20
449.160832
 30
0.0
 10
430.127405
 20
451.982523
 30
0.0
  0
SPLINE
  5
161
100
AcDbEntity
  8
Layer_1
 62
7
100
AcDbSpline
 70
8
 71
3
 72
8
 73
4
 74
0
 40
0
 40
0
 40
0
 40
0
 40
1
 40
1
 40
1
 40
1
 10
430.127405
 20
451.982523
 30
0.0
 10
428.601061
 20
452.420561
 30
0.0
 10
428.566564
 20
452.289288
 30
0.0
 10
429.196564
 20
448.439216
 30
0.0
  0
SPLINE
  5
162
100
AcDbEntity
  8
Layer_1
 62
7
100
AcDbSpline
 70
8
 71
3
 72
8
 73
4
 74
0
 40
0
 40
0
 40
0
 40
0
 40
1
 40
1
 40
1
 40
1
 10
429.196564
 20
448.439216
 30
0.0
 10
430.559802
 20
440.108277
 30
0.0
 10
432.084217
 20
422.390523
 30
0.0
 10
432.085833
 20
414.858444
 30
0.0
  0
SPLINE
  5
163
100
AcDbEntity
  8
Layer_1
 62
7
100
AcDbSpline
 70
8
 71
3
 72
8
 73
4
 74
0
 40
0
 40
0
 40
0
 40
0
 40
1
 40
1
 40
1
 40
1
 10
432.085833
 20
414.858444
 30
0.0
 10
432.088072
 20
403.158444
 30
0.0
 10
430.714035
 20
386.943676
 30
0.0
 10
428.967468
 20
378.066019
 30
0.0
  0
SPLINE
  5
164
100
AcDbEntity
  8
Layer_1
 62
7
100
AcDbSpline
 70
8
 71
3
 72
8
 73
4
 74
0
 40
0
 40
0
 40
0
 40
0
 40
1
 40
1
 40
1
 40
1
 10
428.967468
 20
378.066019
 30
0.0
 10
426.494154
 20
365.494479
 30
0.0
 10
423.884494
 20
361.416019
 30
0.0
 10
418.313565
 20
361.416019
 30
0.0
  0
SPLINE
  5
165
100
AcDbEntity
  8
Layer_1
 62
7
100
AcDbSpline
 70
8
 71
3
 72
8
 73
4
 74
0
 40
0
 40
0
 40
0
 40
0
 40
1
 40
1
 40
1
 40
1
 10
418.313565
 20
361.416019
 30
0.0
 10
410.338063
 20
361.416019
 30
0.0
 10
403.638378
 20
370.055962
 30
0.0
 10
403.603965
 20
380.385581
 30
0.0
  0
SPLINE
  5
166
100
AcDbEntity
  8
Layer_1
 62
7
100
AcDbSpline
 70
8
 71
3
 72
8
 73
4
 74
0
 40
0
 40
0
 40
0
 40
0
 40
1
 40
1
 40
1
 40
1
 10
403.603965
 20
380.385581
 30
0.0
 10
403.554076
 20
395.402655
 30
0.0
 10
417.533953
 20
399.474510
 30
0.0
 10
423.519420
 20
386.186173
 30
0.0
  0
LWPOLYLINE
  5
167
100
AcDbEntity
  8
Layer_1
 62
7
100
AcDbPolyline
 90
3
 70
0
 10
465.384104
 20
463.191024
 30
0.0
 10
465.001257
 20
466.191043
 30
0.0
 10
460.315956
 20
461.691043
 30
0.0
  0
SPLINE
  5
168
100
AcDbEntity
  8
Layer_1
 62
7
100
AcDbSpline
 70
8
 71
3
 72
8
 73
4
 74
0
 40
0
 40
0
 40
0
 40
0
 40
1
 40
1
 40
1
 40
1
 10
425.451175
 20
386.336721
 30
0.0
 10
425.719899
 20
388.181594
 30
0.0
 10
426.187616
 20
394.437288
 30
0.0
 10
426.490441
 20
400.238277
 30
0.0
  0
SPLINE
  5
169
100
AcDbEntity
  8
Layer_1
 62
7
100
AcDbSpline
 70
8
 71
3
 72
8
 73
4
 74
0
 40
0
 40
0
 40
0
 40
0
 40
1
 40
1
 40
1
 40
1
 10
426.490441
 20
400.238277
 30
0.0
 10
426.963997
 20
409.310391
 30
0.0
 10
426.865606
 20
411.155093
 30
0.0
 10
425.787080
 20
413.427940
 30
0.0
  0
SPLINE
  5
16a
100
AcDbEntity
  8
Layer_1
 62
7
100
AcDbSpline
 70
8
 71
3
 72
8
 73
4
 74
0
 40
0
 40
0
 40
0
 40
0
 40
1
 40
1
 40
1
 40
1
 10
425.787080
 20
413.427940
 30
0.0
 10
423.138217
 20
419.010009
 30
0.0
 10
413.845115
 20
421.573124
 30
0.0
 10
401.523761
 20
420.120000
 30
0.0
  0
SPLINE
  5
16b
100
AcDbEntity
  8
Layer_1
 62
7
100
AcDbSpline
 70
8
 71
3
 72
8
 73
4
 74
0
 40
0
 40
0
 40
0
 40
0
 40
1
 40
1
 40
1
 40
1
 10
401.523761
 20
420.120000
 30
0.0
 10
387.286413
 20
418.440898
 30
0.0
 10
384.097635
 20
414.442913
 30
0.0
 10
378.125093
 20
390.783458
 30
0.0
  0
SPLINE
  5
16c
100
AcDbEntity
  8
Layer_1
 62
7
100
AcDbSpline
 70
8
 71
3
 72
8
 73
4
 74
0
 40
0
 40
0
 40
0
 40
0
 40
1
 40
1
 40
1
 40
1
 10
378.125093
 20
390.783458
 30
0.0
 10
376.437317
 20
384.097578
 30
0.0
 10
374.749654
 20
378.079172
 30
0.0
 10
374.374715
 20
377.409175
 30
0.0
  0
SPLINE
  5
16d
100
AcDbEntity
  8
Layer_1
 62
7
100
AcDbSpline
 70
8
 71
3
 72
8
 73
4
 74
0
 40
0
 40
0
 40
0
 40
0
 40
1
 40
1
 40
1
 40
1
 10
374.374715
 20
377.409175
 30
0.0
 10
373.791628
 20
376.367301
 30
0.0
 10
373.589660
 20
376.462772
 30
0.0
 10
372.978935
 20
378.069052
 30
0.0
  0
SPLINE
  5
16e
100
AcDbEntity
  8
Layer_1
 62
7
100
AcDbSpline
 70
8
 71
3
 72
8
 73
4
 74
0
 40
0
 40
0
 40
0
 40
0
 40
1
 40
1
 40
1
 40
1
 10
372.978935
 20
378.069052
 30
0.0
 10
372.294283
 20
379.869817
 30
0.0
 10
370.236841
 20
391.652844
 30
0.0
 10
366.824466
 20
413.316028
 30
0.0
  0
SPLINE
  5
16f
100
AcDbEntity
  8
Layer_1
 62
7
100
AcDbSpline
 70
8
 71
3
 72
8
 73
4
 74
0
 40
0
 40
0
 40
0
 40
0
 40
1
 40
1
 40
1
 40
1
 10
366.824466
 20
413.316028
 30
0.0
 10
365.185191
 20
423.722721
 30
0.0
 10
362.555858
 20
438.635877
 30
0.0
 10
361.832683
 20
441.628526
 30
0.0
  0
SPLINE
  5
170
100
AcDbEntity
  8
Layer_1
 62
7
100
AcDbSpline
 70
8
 71
3
 72
8
 73
4
 74
0
 40
0
 40
0
 40
0
 40
0
 40
1
 40
1
 40
1
 40
1
 10
361.832683
 20
441.628526
 30
0.0
 10
361.194917
 20
444.267638
 30
0.0
 10
360.417770
 20
443.630835
 30
0.0
 10
359.517742
 20
439.731638
 30
0.0
  0
SPLINE
  5
171
100
AcDbEntity
  8
Layer_1
 62
7
100
AcDbSpline
 70
8
 71
3
 72
8
 73
4
 74
0
 40
0
 40
0
 40
0
 40
0
 40
1
 40
1
 40
1
 40
1
 10
359.517742
 20
439.731638
 30
0.0
 10
356.023191
 20
424.592476
 30
0.0
 10
350.401209
 20
419.342230
 30
0.0
 10
337.638869
 20
419.299569
 30
0.0
  0
SPLINE
  5
172
100
AcDbEntity
  8
Layer_1
 62
7
100
AcDbSpline
 70
8
 71
3
 72
8
 73
4
 74
0
 40
0
 40
0
 40
0
 40
0
 40
1
 40
1
 40
1
 40
1
 10
337.638869
 20
419.299569
 30
0.0
 10
328.574665
 20
419.269238
 30
0.0
 10
325.184797
 20
416.430085
 30
0.0
 10
323.711688
 20
407.634860
 30
0.0
  0
SPLINE
  5
173
100
AcDbEntity
  8
Layer_1
 62
7
100
AcDbSpline
 70
8
 71
3
 72
8
 73
4
 74
0
 40
0
 40
0
 40
0
 40
0
 40
1
 40
1
 40
1
 40
1
 10
323.711688
 20
407.634860
 30
0.0
 10
323.440413
 20
406.015767
 30
0.0
 10
322.586674
 20
401.484784
 30
0.0
 10
321.814318
 20
397.566028
 30
0.0
  0
SPLINE
  5
174
100
AcDbEntity
  8
Layer_1
 62
7
100
AcDbSpline
 70
8
 71
3
 72
8
 73
4
 74
0
 40
0
 40
0
 40
0
 40
0
 40
1
 40
1
 40
1
 40
1
 10
321.814318
 20
397.566028
 30
0.0
 10
319.748769
 20
387.085861
 30
0.0
 10
316.209713
 20
368.202869
 30
0.0
 10
313.591266
 20
353.691043
 30
0.0
  0
SPLINE
  5
175
100
AcDbEntity
  8
Layer_1
 62
7
100
AcDbSpline
 70
8
 71
3
 72
8
 73
4
 74
0
 40
0
 40
0
 40
0
 40
0
 40
1
 40
1
 40
1
 40
1
 10
313.591266
 20
353.691043
 30
0.0
 10
310.038888
 20
334.003068
 30
0.0
 10
307.497969
 20
321.570283
 30
0.0
 10
306.732019
 20
320.128526
 30
0.0
  0
SPLINE
  5
176
100
AcDbEntity
  8
Layer_1
 62
7
100
AcDbSpline
 70
8
 71
3
 72
8
 73
4
 74
0
 40
0
 40
0
 40
0
 40
0
 40
1
 40
1
 40
1
 40
1
 10
306.732019
 20
320.128526
 30
0.0
 10
305.601789
 20
318.001096
 30
0.0
 10
303.941906
 20
318.583162
 30
0.0
 10
303.523965
 20
321.253540
 30
0.0
  0
LWPOLYLINE
  5
177
100
AcDbEntity
  8
Layer_1
 62
7
100
AcDbPolyline
 90
3
 70
0
 10
423.519420
 20
386.186173
 30
0.0
 10
424.962482
 20
382.982428
 30
0.0
 10
425.451175
 20
386.336721
 30
0.0
  0
SPLINE
  5
178
100
AcDbEntity
  8
Layer_1
 62
7
100
AcDbSpline
 70
8
 71
3
 72
8
 73
4
 74
0
 40
0
 40
0
 40
0
 40
0
 40
1
 40
1
 40
1
 40
1
 10
155.192672
 20
356.056668
 30
0.0
 10
155.502955
 20
358.233902
 30
0.0
 10
152.640227
 20
360.281395
 30
0.0
 10
150.721540
 20
359.254545
 30
0.0
  0
SPLINE
  5
179
100
AcDbEntity
  8
Layer_1
 62
7
100
AcDbSpline
 70
8
 71
3
 72
8
 73
4
 74
0
 40
0
 40
0
 40
0
 40
0
 40
1
 40
1
 40
1
 40
1
 10
150.721540
 20
359.254545
 30
0.0
 10
149.357928
 20
358.524765
 30
0.0
 10
148.828209
 20
355.575883
 30
0.0
 10
149.873043
 20
354.531061
 30
0.0
  0
SPLINE
  5
17a
100
AcDbEntity
  8
Layer_1
 62
7
100
AcDbSpline
 70
8
 71
3
 72
8
 73
4
 74
0
 40
0
 40
0
 40
0
 40
0
 40
1
 40
1
 40
1
 40
1
 10
149.873043
 20
354.531061
 30
0.0
 10
150.167591
 20
354.236513
 30
0.0
 10
151.433215
 20
354.095887
 30
0.0
 10
152.685541
 20
354.218570
 30
0.0
  0
SPLINE
  5
17b
100
AcDbEntity
  8
Layer_1
 62
7
100
AcDbSpline
 70
8
 71
3
 72
8
 73
4
 74
0
 40
0
 40
0
 40
0
 40
0
 40
1
 40
1
 40
1
 40
1
 10
152.685541
 20
354.218570
 30
0.0
 10
154.357226
 20
354.382413
 30
0.0
 10
155.023682
 20
354.870935
 30
0.0
 10
155.192672
 20
356.056668
 30
0.0
  0
LWPOLYLINE
  5
17c
100
AcDbEntity
  8
Layer_1
 62
7
100
AcDbPolyline
 90
2
 70
0
 10
303.523965
 20
321.253540
 30
0.0
 10
303.523965
 20
321.254107
 30
0.0
  0
SPLINE
  5
17d
100
AcDbEntity
  8
Layer_1
 62
7
100
AcDbSpline
 70
8
 71
3
 72
8
 73
4
 74
0
 40
0
 40
0
 40
0
 40
0
 40
1
 40
1
 40
1
 40
1
 10
169.550583
 20
384.878750
 30
0.0
 10
171.633385
 20
385.325433
 30
0.0
 10
173.337497
 20
385.886835
 30
0.0
 10
173.337497
 20
386.126334
 30
0.0
  0
SPLINE
  5
17e
100
AcDbEntity
  8
Layer_1
 62
7
100
AcDbSpline
 70
8
 71
3
 72
8
 73
4
 74
0
 40
0
 40
0
 40
0
 40
0
 40
1
 40
1
 40
1
 40
1
 10
173.337497
 20
386.126334
 30
0.0
 10
173.337497
 20
386.365861
 30
0.0
 10
171.596619
 20
393.594094
 30
0.0
 10
169.468886
 20
402.189194
 30
0.0
  0
SPLINE
  5
17f
100
AcDbEntity
  8
Layer_1
 62
7
100
AcDbSpline
 70
8
 71
3
 72
8
 73
4
 74
0
 40
0
 40
0
 40
0
 40
0
 40
1
 40
1
 40
1
 40
1
 10
169.468886
 20
402.189194
 30
0.0
 10
166.837501
 20
412.818718
 30
0.0
 10
165.279101
 20
417.816595
 30
0.0
 10
164.596045
 20
417.816595
 30
0.0
  0
SPLINE
  5
180
100
AcDbEntity
  8
Layer_1
 62
7
100
AcDbSpline
 70
8
 71
3
 72
8
 73
4
 74
0
 40
0
 40
0
 40
0
 40
0
 40
1
 40
1
 40
1
 40
1
 10
164.596045
 20
417.816595
 30
0.0
 10
164.043723
 20
417.816595
 30
0.0
 10
162.244060
 20
416.598973
 30
0.0
 10
160.596805
 20
415.110784
 30
0.0
  0
SPLINE
  5
181
100
AcDbEntity
  8
Layer_1
 62
7
100
AcDbSpline
 70
8
 71
3
 72
8
 73
4
 74
0
 40
0
 40
0
 40
0
 40
0
 40
1
 40
1
 40
1
 40
1
 10
160.596805
 20
415.110784
 30
0.0
 10
156.772675
 20
411.655918
 30
0.0
 10
155.525321
 20
407.628652
 30
0.0
 10
156.788949
 20
402.816586
 30
0.0
  0
SPLINE
  5
182
100
AcDbEntity
  8
Layer_1
 62
7
100
AcDbSpline
 70
8
 71
3
 72
8
 73
4
 74
0
 40
0
 40
0
 40
0
 40
0
 40
1
 40
1
 40
1
 40
1
 10
156.788949
 20
402.816586
 30
0.0
 10
157.932828
 20
398.460586
 30
0.0
 10
158.694894
 20
397.728822
 30
0.0
 10
160.441330
 20
399.309335
 30
0.0
  0
SPLINE
  5
183
100
AcDbEntity
  8
Layer_1
 62
7
100
AcDbSpline
 70
8
 71
3
 72
8
 73
4
 74
0
 40
0
 40
0
 40
0
 40
0
 40
1
 40
1
 40
1
 40
1
 10
160.441330
 20
399.309335
 30
0.0
 10
164.371195
 20
402.865795
 30
0.0
 10
169.596048
 20
398.620488
 30
0.0
 10
167.621613
 20
393.475209
 30
0.0
  0
SPLINE
  5
184
100
AcDbEntity
  8
Layer_1
 62
7
100
AcDbSpline
 70
8
 71
3
 72
8
 73
4
 74
0
 40
0
 40
0
 40
0
 40
0
 40
1
 40
1
 40
1
 40
1
 10
167.621613
 20
393.475209
 30
0.0
 10
166.877620
 20
391.536369
 30
0.0
 10
162.952217
 20
389.878129
 30
0.0
 10
160.289246
 20
390.377735
 30
0.0
  0
SPLINE
  5
185
100
AcDbEntity
  8
Layer_1
 62
7
100
AcDbSpline
 70
8
 71
3
 72
8
 73
4
 74
0
 40
0
 40
0
 40
0
 40
0
 40
1
 40
1
 40
1
 40
1
 10
160.289246
 20
390.377735
 30
0.0
 10
157.200820
 20
390.957109
 30
0.0
 10
152.659749
 20
394.744706
 30
0.0
 10
150.886735
 20
398.220094
 30
0.0
  0
SPLINE
  5
186
100
AcDbEntity
  8
Layer_1
 62
7
100
AcDbSpline
 70
8
 71
3
 72
8
 73
4
 74
0
 40
0
 40
0
 40
0
 40
0
 40
1
 40
1
 40
1
 40
1
 10
150.886735
 20
398.220094
 30
0.0
 10
148.638144
 20
402.627685
 30
0.0
 10
147.553157
 20
409.475339
 30
0.0
 10
148.529103
 20
413.099745
 30
0.0
  0
SPLINE
  5
187
100
AcDbEntity
  8
Layer_1
 62
7
100
AcDbSpline
 70
8
 71
3
 72
8
 73
4
 74
0
 40
0
 40
0
 40
0
 40
0
 40
1
 40
1
 40
1
 40
1
 10
148.529103
 20
413.099745
 30
0.0
 10
150.067233
 20
418.811924
 30
0.0
 10
154.912397
 20
424.594318
 30
0.0
 10
161.593781
 20
428.691600
 30
0.0
  0
SPLINE
  5
188
100
AcDbEntity
  8
Layer_1
 62
7
100
AcDbSpline
 70
8
 71
3
 72
8
 73
4
 74
0
 40
0
 40
0
 40
0
 40
0
 40
1
 40
1
 40
1
 40
1
 10
161.593781
 20
428.691600
 30
0.0
 10
162.710657
 20
429.376507
 30
0.0
 10
162.660444
 20
430.049027
 30
0.0
 10
161.015111
 20
436.441153
 30
0.0
  0
SPLINE
  5
189
100
AcDbEntity
  8
Layer_1
 62
7
100
AcDbSpline
 70
8
 71
3
 72
8
 73
4
 74
0
 40
0
 40
0
 40
0
 40
0
 40
1
 40
1
 40
1
 40
1
 10
161.015111
 20
436.441153
 30
0.0
 10
160.024181
 20
440.290885
 30
0.0
 10
159.074671
 20
443.579414
 30
0.0
 10
158.905097
 20
443.749011
 30
0.0
  0
SPLINE
  5
18a
100
AcDbEntity
  8
Layer_1
 62
7
100
AcDbSpline
 70
8
 71
3
 72
8
 73
4
 74
0
 40
0
 40
0
 40
0
 40
0
 40
1
 40
1
 40
1
 40
1
 10
158.905097
 20
443.749011
 30
0.0
 10
158.735529
 20
443.918523
 30
0.0
 10
154.719213
 20
440.262539
 30
0.0
 10
149.979977
 20
435.624463
 30
0.0
  0
SPLINE
  5
18b
100
AcDbEntity
  8
Layer_1
 62
7
100
AcDbSpline
 70
8
 71
3
 72
8
 73
4
 74
0
 40
0
 40
0
 40
0
 40
0
 40
1
 40
1
 40
1
 40
1
 10
149.979977
 20
435.624463
 30
0.0
 10
140.566893
 20
426.412318
 30
0.0
 10
138.210684
 20
422.659701
 30
0.0
 10
136.561839
 20
414.254098
 30
0.0
  0
SPLINE
  5
18c
100
AcDbEntity
  8
Layer_1
 62
7
100
AcDbSpline
 70
8
 71
3
 72
8
 73
4
 74
0
 40
0
 40
0
 40
0
 40
0
 40
1
 40
1
 40
1
 40
1
 10
136.561839
 20
414.254098
 30
0.0
 10
135.835659
 20
410.552107
 30
0.0
 10
135.835832
 20
408.583106
 30
0.0
 10
136.562590
 20
404.888683
 30
0.0
  0
SPLINE
  5
18d
100
AcDbEntity
  8
Layer_1
 62
7
100
AcDbSpline
 70
8
 71
3
 72
8
 73
4
 74
0
 40
0
 40
0
 40
0
 40
0
 40
1
 40
1
 40
1
 40
1
 10
136.562590
 20
404.888683
 30
0.0
 10
137.698495
 20
399.114964
 30
0.0
 10
138.854928
 20
396.827745
 30
0.0
 10
142.804826
 20
392.542611
 30
0.0
  0
SPLINE
  5
18e
100
AcDbEntity
  8
Layer_1
 62
7
100
AcDbSpline
 70
8
 71
3
 72
8
 73
4
 74
0
 40
0
 40
0
 40
0
 40
0
 40
1
 40
1
 40
1
 40
1
 10
142.804826
 20
392.542611
 30
0.0
 10
149.322954
 20
385.471276
 30
0.0
 10
159.164246
 20
382.651285
 30
0.0
 10
169.550507
 20
384.878750
 30
0.0
  0
LWPOLYLINE
  5
18f
100
AcDbEntity
  8
Layer_1
 62
7
100
AcDbPolyline
 90
1
 70
1
 10
155.192672
 20
356.056668
 30
0.0
  0
SPLINE
  5
190
100
AcDbEntity
  8
Layer_1
 62
7
100
AcDbSpline
 70
8
 71
3
 72
8
 73
4
 74
0
 40
0
 40
0
 40
0
 40
0
 40
1
 40
1
 40
1
 40
1
 10
416.197276
 20
387.977953
 30
0.0
 10
416.390598
 20
389.655808
 30
0.0
 10
416.073118
 20
390.104362
 30
0.0
 10
414.393109
 20
390.526044
 30
0.0
  0
SPLINE
  5
191
100
AcDbEntity
  8
Layer_1
 62
7
100
AcDbSpline
 70
8
 71
3
 72
8
 73
4
 74
0
 40
0
 40
0
 40
0
 40
0
 40
1
 40
1
 40
1
 40
1
 10
414.393109
 20
390.526044
 30
0.0
 10
411.790280
 20
391.179288
 30
0.0
 10
409.973726
 20
389.147698
 30
0.0
 10
411.166998
 20
386.918050
 30
0.0
  0
SPLINE
  5
192
100
AcDbEntity
  8
Layer_1
 62
7
100
AcDbSpline
 70
8
 71
3
 72
8
 73
4
 74
0
 40
0
 40
0
 40
0
 40
0
 40
1
 40
1
 40
1
 40
1
 10
411.166998
 20
386.918050
 30
0.0
 10
412.387427
 20
384.637691
 30
0.0
 10
415.897427
 20
385.377250
 30
0.0
 10
416.197276
 20
387.977953
 30
0.0
  0
LWPOLYLINE
  5
193
100
AcDbEntity
  8
Layer_1
 62
7
100
AcDbPolyline
 90
1
 70
1
 10
169.550507
 20
384.878750
 30
0.0
  0
SPLINE
  5
194
100
AcDbEntity
  8
Layer_1
 62
7
100
AcDbSpline
 70
8
 71
3
 72
8
 73
4
 74
0
 40
0
 40
0
 40
0
 40
0
 40
1
 40
1
 40
1
 40
1
 10
181.825316
 20
391.513521
 30
0.0
 10
186.038118
 20
396.176570
 30
0.0
 10
187.034006
 20
401.607128
 30
0.0
 10
184.958206
 20
408.597080
 30
0.0
  0
SPLINE
  5
195
100
AcDbEntity
  8
Layer_1
 62
7
100
AcDbSpline
 70
8
 71
3
 72
8
 73
4
 74
0
 40
0
 40
0
 40
0
 40
0
 40
1
 40
1
 40
1
 40
1
 10
184.958206
 20
408.597080
 30
0.0
 10
183.621070
 20
413.099717
 30
0.0
 10
179.432357
 20
417.303383
 30
0.0
 10
175.078083
 20
418.512501
 30
0.0
  0
SPLINE
  5
196
100
AcDbEntity
  8
Layer_1
 62
7
100
AcDbSpline
 70
8
 71
3
 72
8
 73
4
 74
0
 40
0
 40
0
 40
0
 40
0
 40
1
 40
1
 40
1
 40
1
 10
175.078083
 20
418.512501
 30
0.0
 10
170.789426
 20
419.703392
 30
0.0
 10
170.099966
 20
419.567896
 30
0.0
 10
170.582808
 20
417.629112
 30
0.0
  0
SPLINE
  5
197
100
AcDbEntity
  8
Layer_1
 62
7
100
AcDbSpline
 70
8
 71
3
 72
8
 73
4
 74
0
 40
0
 40
0
 40
0
 40
0
 40
1
 40
1
 40
1
 40
1
 10
170.582808
 20
417.629112
 30
0.0
 10
173.660530
 20
405.270879
 30
0.0
 10
178.317700
 20
388.573483
 30
0.0
 10
178.687726
 20
388.570479
 30
0.0
  0
SPLINE
  5
198
100
AcDbEntity
  8
Layer_1
 62
7
100
AcDbSpline
 70
8
 71
3
 72
8
 73
4
 74
0
 40
0
 40
0
 40
0
 40
0
 40
1
 40
1
 40
1
 40
1
 10
178.687726
 20
388.570479
 30
0.0
 10
178.949109
 20
388.568211
 30
0.0
 10
180.361015
 20
389.892699
 30
0.0
 10
181.825316
 20
391.513521
 30
0.0
  0
LWPOLYLINE
  5
199
100
AcDbEntity
  8
Layer_1
 62
7
100
AcDbPolyline
 90
1
 70
1
 10
416.197276
 20
387.977953
 30
0.0
  0
SPLINE
  5
19a
100
AcDbEntity
  8
Layer_1
 62
7
100
AcDbSpline
 70
8
 71
3
 72
8
 73
4
 74
0
 40
0
 40
0
 40
0
 40
0
 40
1
 40
1
 40
1
 40
1
 10
457.437487
 20
435.966605
 30
0.0
 10
459.892658
 20
438.421776
 30
0.0
 10
456.149112
 20
441.796280
 30
0.0
 10
453.452740
 20
439.558526
 30
0.0
  0
SPLINE
  5
19b
100
AcDbEntity
  8
Layer_1
 62
7
100
AcDbSpline
 70
8
 71
3
 72
8
 73
4
 74
0
 40
0
 40
0
 40
0
 40
0
 40
1
 40
1
 40
1
 40
1
 10
453.452740
 20
439.558526
 30
0.0
 10
451.488246
 20
437.928123
 30
0.0
 10
452.688888
 20
435.066605
 30
0.0
 10
455.337496
 20
435.066605
 30
0.0
  0
SPLINE
  5
19c
100
AcDbEntity
  8
Layer_1
 62
7
100
AcDbSpline
 70
8
 71
3
 72
8
 73
4
 74
0
 40
0
 40
0
 40
0
 40
0
 40
1
 40
1
 40
1
 40
1
 10
455.337496
 20
435.066605
 30
0.0
 10
455.997487
 20
435.066605
 30
0.0
 10
456.942501
 20
435.471591
 30
0.0
 10
457.437487
 20
435.966605
 30
0.0
  0
LWPOLYLINE
  5
19d
100
AcDbEntity
  8
Layer_1
 62
7
100
AcDbPolyline
 90
1
 70
1
 10
181.825316
 20
391.513521
 30
0.0
  0
SPLINE
  5
19e
100
AcDbEntity
  8
Layer_1
 62
7
100
AcDbSpline
 70
8
 71
3
 72
8
 73
4
 74
0
 40
0
 40
0
 40
0
 40
0
 40
1
 40
1
 40
1
 40
1
 10
163.367297
 20
470.373420
 30
0.0
 10
172.142342
 20
481.201030
 30
0.0
 10
175.533182
 20
493.871924
 30
0.0
 10
170.967243
 20
498.772885
 30
0.0
  0
SPLINE
  5
19f
100
AcDbEntity
  8
Layer_1
 62
7
100
AcDbSpline
 70
8
 71
3
 72
8
 73
4
 74
0
 40
0
 40
0
 40
0
 40
0
 40
1
 40
1
 40
1
 40
1
 10
170.967243
 20
498.772885
 30
0.0
 10
168.803821
 20
501.095055
 30
0.0
 10
166.729127
 20
500.655600
 30
0.0
 10
163.201518
 20
497.127997
 30
0.0
  0
SPLINE
  5
1a0
100
AcDbEntity
  8
Layer_1
 62
7
100
AcDbSpline
 70
8
 71
3
 72
8
 73
4
 74
0
 40
0
 40
0
 40
0
 40
0
 40
1
 40
1
 40
1
 40
1
 10
163.201518
 20
497.127997
 30
0.0
 10
158.943909
 20
492.870387
 30
0.0
 10
156.780454
 20
486.079058
 30
0.0
 10
156.765903
 20
476.925874
 30
0.0
  0
SPLINE
  5
1a1
100
AcDbEntity
  8
Layer_1
 62
7
100
AcDbSpline
 70
8
 71
3
 72
8
 73
4
 74
0
 40
0
 40
0
 40
0
 40
0
 40
1
 40
1
 40
1
 40
1
 10
156.765903
 20
476.925874
 30
0.0
 10
156.753714
 20
469.199537
 30
0.0
 10
157.437040
 20
464.893654
 30
0.0
 10
158.614586
 20
465.278287
 30
0.0
  0
SPLINE
  5
1a2
100
AcDbEntity
  8
Layer_1
 62
7
100
AcDbSpline
 70
8
 71
3
 72
8
 73
4
 74
0
 40
0
 40
0
 40
0
 40
0
 40
1
 40
1
 40
1
 40
1
 10
158.614586
 20
465.278287
 30
0.0
 10
159.080936
 20
465.430507
 30
0.0
 10
161.219659
 20
467.723424
 30
0.0
 10
163.367297
 20
470.373420
 30
0.0
  0
LWPOLYLINE
  5
1a3
100
AcDbEntity
  8
Layer_1
 62
7
100
AcDbPolyline
 90
1
 70
1
 10
457.437487
 20
435.966605
 30
0.0
  0
LWPOLYLINE
  5
1a4
100
AcDbEntity
  8
Layer_1
 62
7
100
AcDbPolyline
 90
1
 70
1
 10
163.367297
 20
470.373420
 30
0.0
  0
ENDSEC
  0
SECTION
  2
OBJECTS
  0
DICTIONARY
  5
C
330
0
100
AcDbDictionary
  3
ACAD_GROUP
350
D
  3
ACAD_MLINESTYLE
350
17
  0
DICTIONARY
  5
D
330
C
100
AcDbDictionary
  0
DICTIONARY
  5
1A
330
C
100
AcDbDictionary
  0
DICTIONARY
  5
17
330
C
100
AcDbDictionary
  3
STANDARD
350
18
  0
DICTIONARY
  5
19
330
C
100
AcDbDictionary
  0
ENDSEC
  0
EOF
