999
Inkscape export via OpenSCAD DXF Export
  0
SECTION
  2
HEADER
  9
$ACADVER
  1
AC1014
  9
$HANDSEED
  5
FFFF
  9
$MEASUREMENT
 70
     1
  0
ENDSEC
  0
SECTION
  2
TABLES
  0
TABLE
  2
VPORT
  5
8
330
0
100
AcDbSymbolTable
 70
     4
  0
VPORT
  5
2E
330
8
100
AcDbSymbolTableRecord
100
AcDbViewportTableRecord
  2
*ACTIVE
 70
     0
 10
0.0
 20
0.0
 11
1.0
 21
1.0
 12
210.0
 22
148.5
 13
0.0
 23
0.0
 14
10.0
 24
10.0
 15
10.0
 25
10.0
 16
0.0
 26
0.0
 36
1.0
 17
0.0
 27
0.0
 37
0.0
 40
341.0
 41
1.24
 42
50.0
 43
0.0
 44
0.0
 50
0.0
 51
0.0
 71
     0
 72
   100
 73
     1
 74
     3
 75
     0
 76
     0
 77
     0
 78
     0
  0
ENDTAB
  0
TABLE
  2
LTYPE
  5
5
330
0
100
AcDbSymbolTable
 70
     1
  0
LTYPE
  5
14
330
5
100
AcDbSymbolTableRecord
100
AcDbLinetypeTableRecord
  2
BYBLOCK
 70
     0
  3

 72
    65
 73
     0
 40
0.0
  0
LTYPE
  5
15
330
5
100
AcDbSymbolTableRecord
100
AcDbLinetypeTableRecord
  2
BYLAYER
 70
     0
  3

 72
    65
 73
     0
 40
0.0
  0
LTYPE
  5
16
330
5
100
AcDbSymbolTableRecord
100
AcDbLinetypeTableRecord
  2
CONTINUOUS
 70
     0
  3
Solid line
 72
    65
 73
     0
 40
0.0
  0
ENDTAB
  0
TABLE
0
TABLE
2
LAYER
5
2
330
0
100
AcDbSymbolTable
70
1
0
LAYER
5
10
330
2
100
AcDbSymbolTableRecord
100
AcDbLayerTableRecord
2
Layer_1
70
0
62
7
6
CONTINUOUS
0
ENDTAB
0
ENDSEC
  0
ENDTAB
  0
TABLE
  2
STYLE
  5
3
330
0
100
AcDbSymbolTable
 70
     1
  0
STYLE
  5
11
330
3
100
AcDbSymbolTableRecord
100
AcDbTextStyleTableRecord
  2
STANDARD
 70
     0
 40
0.0
 41
1.0
 50
0.0
 71
     0
 42
2.5
  3
txt
  4

  0
ENDTAB
  0
TABLE
  2
VIEW
  5
6
330
0
100
AcDbSymbolTable
 70
     0
  0
ENDTAB
  0
TABLE
  2
UCS
  5
7
330
0
100
AcDbSymbolTable
 70
     0
  0
ENDTAB
  0
TABLE
  2
APPID
  5
9
330
0
100
AcDbSymbolTable
 70
     2
  0
APPID
  5
12
330
9
100
AcDbSymbolTableRecord
100
AcDbRegAppTableRecord
  2
ACAD
 70
     0
  0
ENDTAB
  0
TABLE
  2
DIMSTYLE
  5
A
330
0
100
AcDbSymbolTable
 70
     1
  0
DIMSTYLE
105
27
330
A
100
AcDbSymbolTableRecord
100
AcDbDimStyleTableRecord
  2
ISO-25
 70
     0
  3

  4

  5

  6

  7

 40
1.0
 41
2.5
 42
0.625
 43
3.75
 44
1.25
 45
0.0
 46
0.0
 47
0.0
 48
0.0
140
2.5
141
2.5
142
0.0
143
0.03937007874016
144
1.0
145
0.0
146
1.0
147
0.625
 71
     0
 72
     0
 73
     0
 74
     0
 75
     0
 76
     0
 77
     1
 78
     8
170
     0
171
     3
172
     1
173
     0
174
     0
175
     0
176
     0
177
     0
178
     0
270
     2
271
     2
272
     2
273
     2
274
     3
340
11
275
     0
280
     0
281
     0
282
     0
283
     0
284
     8
285
     0
286
     0
287
     3
288
     0
  0
ENDTAB
  0
TABLE
  2
BLOCK_RECORD
  5
1
330
0
100
AcDbSymbolTable
 70
     1
  0
BLOCK_RECORD
  5
1F
330
1
100
AcDbSymbolTableRecord
100
AcDbBlockTableRecord
  2
*MODEL_SPACE
  0
BLOCK_RECORD
  5
1B
330
1
100
AcDbSymbolTableRecord
100
AcDbBlockTableRecord
  2
*PAPER_SPACE
  0
ENDTAB
  0
ENDSEC
  0
SECTION
  2
BLOCKS
  0
BLOCK
  5
20
330
1F
100
AcDbEntity
  8
0
100
AcDbBlockBegin
  2
*MODEL_SPACE
 70
     0
 10
0.0
 20
0.0
 30
0.0
  3
*MODEL_SPACE
  1

  0
ENDBLK
  5
21
330
1F
100
AcDbEntity
  8
0
100
AcDbBlockEnd
  0
BLOCK
  5
1C
330
1B
100
AcDbEntity
 67
     1
  8
0
100
AcDbBlockBegin
  2
*PAPER_SPACE
  1

  0
ENDBLK
  5
1D
330
1B
100
AcDbEntity
 67
     1
  8
0
100
AcDbBlockEnd
  0
ENDSEC
  0
SECTION
  2
ENTITIES
0
DIMENSION
5
83
100
AcDbEntity
62
256
370
-1
6
ByLayer
1
total_width
3
Standard
70
0
71
5
72
1
41
1.0
100
AcDbAlignedDimension
13
0.123132
23
0.000000
33
0.0
14
369.428889
24
0.000000
34
0.0
50
0.000000
100
AcDbRotatedDimension
0
DIMENSION
5
83
100
AcDbEntity
62
256
370
-1
6
ByLayer
1
total_minx
3
Standard
70
0
71
5
72
1
41
1.0
100
AcDbAlignedDimension
13
0.123132
23
0.000000
33
0.0
14
0.000000
24
0.000000
34
0.0
50
0.000000
100
AcDbRotatedDimension
0
DIMENSION
5
83
100
AcDbEntity
62
256
370
-1
6
ByLayer
1
total_maxx
3
Standard
70
0
71
5
72
1
41
1.0
100
AcDbAlignedDimension
13
0.000000
23
0.000000
33
0.0
14
369.428889
24
0.000000
34
0.0
50
0.000000
100
AcDbRotatedDimension
0
DIMENSION
5
83
100
AcDbEntity
62
256
370
-1
6
ByLayer
1
total_height
3
Standard
70
0
71
5
72
1
41
1.0
100
AcDbAlignedDimension
13
0.000000
23
0.077670
33
0.0
14
0.000000
24
369.295576
34
0.0
50
90.000000
100
AcDbRotatedDimension
0
DIMENSION
5
83
100
AcDbEntity
62
256
370
-1
6
ByLayer
1
total_miny
3
Standard
70
0
71
5
72
1
41
1.0
100
AcDbAlignedDimension
13
0.077670
23
0.000000
33
0.0
14
0.000000
24
0.000000
34
0.0
50
0.000000
100
AcDbRotatedDimension
0
DIMENSION
5
83
100
AcDbEntity
62
256
370
-1
6
ByLayer
1
total_maxy
3
Standard
70
0
71
5
72
1
41
1.0
100
AcDbAlignedDimension
13
0.000000
23
0.000000
33
0.0
14
369.295576
24
0.000000
34
0.0
50
0.000000
100
AcDbRotatedDimension
0
DIMENSION
8
Layer_1
5
83
100
AcDbEntity
62
256
370
-1
6
ByLayer
1
Layer_1_width
3
Standard
70
0
71
5
72
1
41
1.0
100
AcDbAlignedDimension
13
0.123132
23
0.000000
33
0.0
14
369.428889
24
0.000000
34
0.0
50
0.000000
100
AcDbRotatedDimension
0
DIMENSION
8
Layer_1
5
83
100
AcDbEntity
62
256
370
-1
6
ByLayer
1
Layer_1_minx
3
Standard
70
0
71
5
72
1
41
1.0
100
AcDbAlignedDimension
13
0.123132
23
0.000000
33
0.0
14
0.000000
24
0.000000
34
0.0
50
0.000000
100
AcDbRotatedDimension
0
DIMENSION
8
Layer_1
5
83
100
AcDbEntity
62
256
370
-1
6
ByLayer
1
Layer_1_maxx
3
Standard
70
0
71
5
72
1
41
1.0
100
AcDbAlignedDimension
13
0.000000
23
0.000000
33
0.0
14
369.428889
24
0.000000
34
0.0
50
0.000000
100
AcDbRotatedDimension
0
DIMENSION
8
Layer_1
5
83
100
AcDbEntity
62
256
370
-1
6
ByLayer
1
Layer_1_height
3
Standard
70
0
71
5
72
1
41
1.0
100
AcDbAlignedDimension
13
0.000000
23
0.077670
33
0.0
14
0.000000
24
369.295576
34
0.0
50
90.000000
100
AcDbRotatedDimension
0
DIMENSION
8
Layer_1
5
83
100
AcDbEntity
62
256
370
-1
6
ByLayer
1
Layer_1_miny
3
Standard
70
0
71
5
72
1
41
1.0
100
AcDbAlignedDimension
13
0.077670
23
0.000000
33
0.0
14
0.000000
24
0.000000
34
0.0
50
0.000000
100
AcDbRotatedDimension
0
DIMENSION
8
Layer_1
5
83
100
AcDbEntity
62
256
370
-1
6
ByLayer
1
Layer_1_maxy
3
Standard
70
0
71
5
72
1
41
1.0
100
AcDbAlignedDimension
13
0.000000
23
0.000000
33
0.0
14
369.295576
24
0.000000
34
0.0
50
0.000000
100
AcDbRotatedDimension
62
0
0
LWPOLYLINE
100
AcDbPolyline
8
Layer_1
90
157
70
0
10
174.413333
20
0.179070
30
0.0
10
165.463031
20
0.987724
30
0.0
10
156.725395
20
2.152245
30
0.0
10
148.178302
20
3.678172
30
0.0
10
139.799629
20
5.571042
30
0.0
10
131.567253
20
7.836394
30
0.0
10
123.459049
20
10.479766
30
0.0
10
115.452895
20
13.506696
30
0.0
10
107.526667
20
16.922722
30
0.0
10
98.225514
20
21.507414
30
0.0
10
89.233577
20
26.598298
30
0.0
10
80.568211
20
32.174537
30
0.0
10
72.246776
20
38.215296
30
0.0
10
64.286629
20
44.699739
30
0.0
10
56.705126
20
51.607031
30
0.0
10
49.519626
20
58.916335
30
0.0
10
42.747486
20
66.606817
30
0.0
10
36.406064
20
74.657640
30
0.0
10
30.512717
20
83.047969
30
0.0
10
25.084802
20
91.756968
30
0.0
10
20.139678
20
100.763802
30
0.0
10
15.694701
20
110.047634
30
0.0
10
11.767229
20
119.587630
30
0.0
10
8.374620
20
129.362953
30
0.0
10
5.534231
20
139.352768
30
0.0
10
3.960374
20
146.071398
30
0.0
10
2.642128
20
152.840663
30
0.0
10
1.549465
20
159.831955
30
0.0
10
0.652354
20
167.216667
30
0.0
10
0.281273
20
174.193268
30
0.0
10
0.123132
20
184.155954
30
0.0
10
0.191730
20
194.045108
30
0.0
10
0.500869
20
200.801111
30
0.0
10
1.963118
20
212.377327
30
0.0
10
2.857280
20
217.787986
30
0.0
10
3.876640
20
223.025595
30
0.0
10
5.033576
20
228.149087
30
0.0
10
6.340468
20
233.217399
30
0.0
10
7.809695
20
238.289466
30
0.0
10
9.453636
20
243.424225
30
0.0
10
13.043785
20
253.212188
30
0.0
10
17.166547
20
262.734364
30
0.0
10
21.804534
20
271.972886
30
0.0
10
26.940361
20
280.909885
30
0.0
10
32.556641
20
289.527494
30
0.0
10
38.635986
20
297.807846
30
0.0
10
45.161009
20
305.733072
30
0.0
10
52.114325
20
313.285304
30
0.0
10
59.478546
20
320.446675
30
0.0
10
67.236285
20
327.199317
30
0.0
10
75.370156
20
333.525362
30
0.0
10
83.862772
20
339.406943
30
0.0
10
92.696746
20
344.826191
30
0.0
10
101.854691
20
349.765240
30
0.0
10
111.319220
20
354.206220
30
0.0
10
121.072947
20
358.131265
30
0.0
10
126.776549
20
360.141489
30
0.0
10
132.459422
20
361.937206
30
0.0
10
138.178922
20
363.531244
30
0.0
10
143.992406
20
364.936431
30
0.0
10
149.957232
20
366.165597
30
0.0
10
156.130757
20
367.231569
30
0.0
10
162.570338
20
368.147176
30
0.0
10
169.333333
20
368.925247
30
0.0
10
175.712321
20
369.203026
30
0.0
10
185.420718
20
369.295576
30
0.0
10
195.128756
20
369.202915
30
0.0
10
201.506667
20
368.925062
30
0.0
10
210.738673
20
367.819874
30
0.0
10
219.266128
20
366.461625
30
0.0
10
227.346749
20
364.803509
30
0.0
10
235.238253
20
362.798718
30
0.0
10
241.538493
20
360.925537
30
0.0
10
247.737896
20
358.842738
30
0.0
10
253.832581
20
356.554519
30
0.0
10
259.818665
20
354.065080
30
0.0
10
265.692264
20
351.378618
30
0.0
10
271.449497
20
348.499332
30
0.0
10
277.086480
20
345.431419
30
0.0
10
282.599331
20
342.179079
30
0.0
10
287.984167
20
338.746509
30
0.0
10
293.237105
20
335.137907
30
0.0
10
298.354262
20
331.357472
30
0.0
10
303.331756
20
327.409402
30
0.0
10
308.165705
20
323.297896
30
0.0
10
312.852224
20
319.027151
30
0.0
10
317.387432
20
314.601366
30
0.0
10
321.767446
20
310.024740
30
0.0
10
325.988383
20
305.301469
30
0.0
10
330.046360
20
300.435754
30
0.0
10
333.937495
20
295.431791
30
0.0
10
337.657904
20
290.293779
30
0.0
10
341.203706
20
285.025917
30
0.0
10
344.571017
20
279.632403
30
0.0
10
347.755954
20
274.117435
30
0.0
10
350.754636
20
268.485210
30
0.0
10
353.563179
20
262.739929
30
0.0
10
356.177700
20
256.885788
30
0.0
10
358.594316
20
250.926986
30
0.0
10
360.809146
20
244.867721
30
0.0
10
362.818306
20
238.712192
30
0.0
10
364.617913
20
232.464596
30
0.0
10
366.204085
20
226.129133
30
0.0
10
367.572939
20
219.710000
30
0.0
10
368.669496
20
213.793339
30
0.0
10
369.000345
20
211.244864
30
0.0
10
369.217861
20
208.373406
30
0.0
10
369.407752
20
199.872881
30
0.0
10
369.428889
20
184.714444
30
0.0
10
369.345633
20
163.735527
30
0.0
10
369.172785
20
159.723878
30
0.0
10
368.851321
20
157.108375
30
0.0
10
367.929300
20
151.687549
30
0.0
10
366.855230
20
146.318436
30
0.0
10
365.630880
20
141.003526
30
0.0
10
364.258018
20
135.745310
30
0.0
10
362.738412
20
130.546282
30
0.0
10
361.073831
20
125.408931
30
0.0
10
359.266043
20
120.335749
30
0.0
10
357.316817
20
115.329228
30
0.0
10
355.227921
20
110.391859
30
0.0
10
353.001123
20
105.526134
30
0.0
10
350.638193
20
100.734543
30
0.0
10
348.140897
20
96.019579
30
0.0
10
345.511005
20
91.383732
30
0.0
10
342.750285
20
86.829495
30
0.0
10
339.860506
20
82.359358
30
0.0
10
336.843435
20
77.975813
30
0.0
10
333.700842
20
73.681351
30
0.0
10
330.434494
20
69.478464
30
0.0
10
327.046161
20
65.369644
30
0.0
10
323.537609
20
61.357380
30
0.0
10
319.910609
20
57.444166
30
0.0
10
316.166928
20
53.632493
30
0.0
10
312.308334
20
49.924851
30
0.0
10
308.336597
20
46.323732
30
0.0
10
304.253484
20
42.831628
30
0.0
10
300.060764
20
39.451030
30
0.0
10
295.760205
20
36.184430
30
0.0
10
291.353576
20
33.034318
30
0.0
10
286.842645
20
30.003187
30
0.0
10
282.229180
20
27.093528
30
0.0
10
277.514950
20
24.307831
30
0.0
10
272.701724
20
21.648589
30
0.0
10
264.578506
20
17.563053
30
0.0
10
256.314613
20
13.905354
30
0.0
10
247.894701
20
10.670885
30
0.0
10
239.303423
20
7.855035
30
0.0
10
230.525437
20
5.453194
30
0.0
10
221.545397
20
3.460753
30
0.0
10
212.347958
20
1.873102
30
0.0
10
202.917778
20
0.685631
30
0.0
10
197.281856
20
0.384774
30
0.0
10
188.633503
20
0.164179
30
0.0
10
180.001176
20
0.077670
30
0.0
10
174.413333
20
0.179070
30
0.0
10
174.413333
20
0.179070
30
0.0
62
0
0
LWPOLYLINE
100
AcDbPolyline
8
Layer_1
90
162
70
0
10
202.353333
20
5.760099
30
0.0
10
211.180331
20
6.845864
30
0.0
10
219.790149
20
8.295482
30
0.0
10
228.202103
20
10.114601
30
0.0
10
236.435512
20
12.308872
30
0.0
10
244.509689
20
14.883943
30
0.0
10
252.443952
20
17.845463
30
0.0
10
260.257617
20
21.199082
30
0.0
10
267.970000
20
24.950448
30
0.0
10
275.397946
20
29.001832
30
0.0
10
282.599375
20
33.379025
30
0.0
10
289.565584
20
38.072159
30
0.0
10
296.287868
20
43.071366
30
0.0
10
302.757520
20
48.366776
30
0.0
10
308.965838
20
53.948521
30
0.0
10
314.904114
20
59.806733
30
0.0
10
320.563646
20
65.931542
30
0.0
10
325.935727
20
72.313081
30
0.0
10
331.011653
20
78.941480
30
0.0
10
335.782718
20
85.806872
30
0.0
10
340.240219
20
92.899386
30
0.0
10
344.375450
20
100.209156
30
0.0
10
348.179706
20
107.726311
30
0.0
10
351.644282
20
115.440984
30
0.0
10
354.760474
20
123.343306
30
0.0
10
356.668212
20
128.818483
30
0.0
10
358.393689
20
134.368421
30
0.0
10
359.936240
20
139.985695
30
0.0
10
361.295199
20
145.662879
30
0.0
10
362.469901
20
151.392545
30
0.0
10
363.459681
20
157.167269
30
0.0
10
364.263874
20
162.979624
30
0.0
10
364.881813
20
168.822183
30
0.0
10
365.312833
20
174.687521
30
0.0
10
365.556270
20
180.568211
30
0.0
10
365.611457
20
186.456828
30
0.0
10
365.477730
20
192.345944
30
0.0
10
365.154422
20
198.228135
30
0.0
10
364.640869
20
204.095973
30
0.0
10
363.936406
20
209.942033
30
0.0
10
363.040366
20
215.758889
30
0.0
10
362.051437
20
221.059698
30
0.0
10
360.905679
20
226.319318
30
0.0
10
359.604514
20
231.534470
30
0.0
10
358.149362
20
236.701876
30
0.0
10
356.541647
20
241.818258
30
0.0
10
354.782788
20
246.880339
30
0.0
10
352.874209
20
251.884839
30
0.0
10
350.817332
20
256.828481
30
0.0
10
348.613577
20
261.707986
30
0.0
10
346.264366
20
266.520077
30
0.0
10
343.771122
20
271.261474
30
0.0
10
341.135267
20
275.928901
30
0.0
10
338.358221
20
280.519078
30
0.0
10
335.441406
20
285.028728
30
0.0
10
332.386246
20
289.454573
30
0.0
10
329.194160
20
293.793333
30
0.0
10
323.524703
20
300.892523
30
0.0
10
317.550185
20
307.662672
30
0.0
10
311.283303
20
314.096390
30
0.0
10
304.736752
20
320.186289
30
0.0
10
297.923230
20
325.924978
30
0.0
10
290.855432
20
331.305068
30
0.0
10
283.546057
20
336.319169
30
0.0
10
276.007799
20
340.959891
30
0.0
10
268.253355
20
345.219845
30
0.0
10
260.295422
20
349.091641
30
0.0
10
252.146697
20
352.567890
30
0.0
10
243.819875
20
355.641202
30
0.0
10
235.327653
20
358.304187
30
0.0
10
226.682729
20
360.549455
30
0.0
10
217.897797
20
362.369618
30
0.0
10
208.985556
20
363.757285
30
0.0
10
203.304706
20
364.433619
30
0.0
10
198.302229
20
364.825656
30
0.0
10
192.644193
20
365.004875
30
0.0
10
184.996667
20
365.042757
30
0.0
10
176.477920
20
364.948799
30
0.0
10
169.679387
20
364.624079
30
0.0
10
163.342827
20
363.975349
30
0.0
10
156.210000
20
362.909359
30
0.0
10
150.919240
20
361.959280
30
0.0
10
145.677420
20
360.855935
30
0.0
10
140.487267
20
359.601327
30
0.0
10
135.351511
20
358.197457
30
0.0
10
130.272881
20
356.646328
30
0.0
10
125.254103
20
354.949942
30
0.0
10
120.297908
20
353.110301
30
0.0
10
115.407024
20
351.129408
30
0.0
10
110.584179
20
349.009264
30
0.0
10
105.832101
20
346.751871
30
0.0
10
101.153519
20
344.359233
30
0.0
10
96.551163
20
341.833350
30
0.0
10
92.027759
20
339.176225
30
0.0
10
87.586037
20
336.389861
30
0.0
10
83.228725
20
333.476259
30
0.0
10
78.958551
20
330.437422
30
0.0
10
74.778245
20
327.275352
30
0.0
10
70.690535
20
323.992050
30
0.0
10
66.698149
20
320.589520
30
0.0
10
62.803815
20
317.069763
30
0.0
10
59.010263
20
313.434781
30
0.0
10
55.320221
20
309.686577
30
0.0
10
51.736416
20
305.827152
30
0.0
10
48.261579
20
301.858510
30
0.0
10
44.898436
20
297.782651
30
0.0
10
41.649718
20
293.601579
30
0.0
10
38.518152
20
289.317295
30
0.0
10
35.506466
20
284.931802
30
0.0
10
32.617390
20
280.447101
30
0.0
10
29.853651
20
275.865196
30
0.0
10
27.217979
20
271.188087
30
0.0
10
24.713102
20
266.417778
30
0.0
10
21.005954
20
258.672726
30
0.0
10
17.714015
20
250.889167
30
0.0
10
14.825560
20
243.026104
30
0.0
10
12.328862
20
235.042539
30
0.0
10
10.212194
20
226.897477
30
0.0
10
8.463829
20
218.549920
30
0.0
10
7.072042
20
209.958871
30
0.0
10
6.025105
20
201.083333
30
0.0
10
5.634302
20
194.098902
30
0.0
10
5.503197
20
185.152790
30
0.0
10
5.632036
20
176.199172
30
0.0
10
6.021066
20
169.192222
30
0.0
10
7.035929
20
160.529620
30
0.0
10
8.389232
20
152.118137
30
0.0
10
10.090669
20
143.923475
30
0.0
10
12.149930
20
135.911334
30
0.0
10
14.576707
20
128.047416
30
0.0
10
17.380693
20
120.297422
30
0.0
10
20.571578
20
112.627052
30
0.0
10
24.159055
20
105.002008
30
0.0
10
27.974149
20
97.741260
30
0.0
10
32.081814
20
90.702683
30
0.0
10
36.479998
20
83.889028
30
0.0
10
41.166646
20
77.303047
30
0.0
10
46.139706
20
70.947488
30
0.0
10
51.397123
20
64.825105
30
0.0
10
56.936845
20
58.938647
30
0.0
10
62.756819
20
53.290865
30
0.0
10
68.666162
20
48.036136
30
0.0
10
74.749622
20
43.070794
30
0.0
10
81.001697
20
38.397190
30
0.0
10
87.416883
20
34.017676
30
0.0
10
93.989678
20
29.934605
30
0.0
10
100.714580
20
26.150329
30
0.0
10
107.586085
20
22.667201
30
0.0
10
114.598692
20
19.487571
30
0.0
10
121.746898
20
16.613794
30
0.0
10
129.025200
20
14.048221
30
0.0
10
136.428096
20
11.793203
30
0.0
10
143.950083
20
9.851095
30
0.0
10
151.585658
20
8.224246
30
0.0
10
159.329319
20
6.915011
30
0.0
10
167.175564
20
5.925741
30
0.0
10
175.118889
20
5.258788
30
0.0
10
180.572254
20
5.165124
30
0.0
10
188.760405
20
5.251157
30
0.0
10
196.936409
20
5.466334
30
0.0
10
202.353333
20
5.760099
30
0.0
10
202.353333
20
5.760099
30
0.0
62
0
0
LWPOLYLINE
100
AcDbPolyline
8
Layer_1
90
156
70
0
10
178.787778
20
15.254676
30
0.0
10
173.710497
20
15.524101
30
0.0
10
168.660390
20
15.944647
30
0.0
10
163.640328
20
16.514701
30
0.0
10
158.653186
20
17.232651
30
0.0
10
148.789152
20
19.105794
30
0.0
10
139.091274
20
21.551183
30
0.0
10
129.582541
20
24.555923
30
0.0
10
120.285936
20
28.107120
30
0.0
10
111.224448
20
32.191880
30
0.0
10
102.421062
20
36.797311
30
0.0
10
93.898766
20
41.910516
30
0.0
10
85.680545
20
47.518604
30
0.0
10
77.789385
20
53.608679
30
0.0
10
70.248274
20
60.167849
30
0.0
10
63.080198
20
67.183218
30
0.0
10
56.308143
20
74.641894
30
0.0
10
53.077807
20
78.533442
30
0.0
10
49.955096
20
82.530982
30
0.0
10
46.942884
20
86.632901
30
0.0
10
44.044043
20
90.837588
30
0.0
10
38.998358
20
98.864173
30
0.0
10
34.427808
20
107.114384
30
0.0
10
30.336568
20
115.577345
30
0.0
10
26.728814
20
124.242183
30
0.0
10
23.608722
20
133.098024
30
0.0
10
20.980466
20
142.133993
30
0.0
10
18.848223
20
151.339217
30
0.0
10
17.216169
20
160.702820
30
0.0
10
16.555473
20
165.889675
30
0.0
10
16.057308
20
171.269624
30
0.0
10
15.722590
20
176.784179
30
0.0
10
15.552234
20
182.374848
30
0.0
10
15.547157
20
187.983144
30
0.0
10
15.708275
20
193.550575
30
0.0
10
16.036504
20
199.018653
30
0.0
10
16.532761
20
204.328889
30
0.0
10
17.296577
20
210.229136
30
0.0
10
18.265433
20
216.074224
30
0.0
10
19.435968
20
221.859853
30
0.0
10
20.804824
20
227.581723
30
0.0
10
22.368641
20
233.235534
30
0.0
10
24.124061
20
238.816988
30
0.0
10
26.067723
20
244.321784
30
0.0
10
28.196268
20
249.745624
30
0.0
10
30.506338
20
255.084206
30
0.0
10
32.994572
20
260.333233
30
0.0
10
35.657612
20
265.488404
30
0.0
10
38.492098
20
270.545419
30
0.0
10
41.494671
20
275.499980
30
0.0
10
44.661972
20
280.347786
30
0.0
10
47.990641
20
285.084538
30
0.0
10
51.477319
20
289.705937
30
0.0
10
55.118647
20
294.207683
30
0.0
10
58.911266
20
298.585476
30
0.0
10
62.851815
20
302.835017
30
0.0
10
66.936937
20
306.952006
30
0.0
10
71.163271
20
310.932144
30
0.0
10
75.527459
20
314.771131
30
0.0
10
80.026140
20
318.464667
30
0.0
10
84.655957
20
322.008454
30
0.0
10
89.413548
20
325.398191
30
0.0
10
94.295556
20
328.629579
30
0.0
10
99.298621
20
331.698318
30
0.0
10
104.419383
20
334.600108
30
0.0
10
109.654484
20
337.330651
30
0.0
10
115.000563
20
339.885647
30
0.0
10
120.454263
20
342.260795
30
0.0
10
126.012222
20
344.451797
30
0.0
10
133.118616
20
346.928986
30
0.0
10
140.312743
20
349.081490
30
0.0
10
147.582161
20
350.909242
30
0.0
10
154.914430
20
352.412174
30
0.0
10
162.297108
20
353.590219
30
0.0
10
169.717756
20
354.443310
30
0.0
10
177.163932
20
354.971380
30
0.0
10
184.623195
20
355.174360
30
0.0
10
192.083105
20
355.052184
30
0.0
10
199.531221
20
354.604784
30
0.0
10
206.955102
20
353.832093
30
0.0
10
214.342308
20
352.734043
30
0.0
10
221.680397
20
351.310568
30
0.0
10
228.956928
20
349.561599
30
0.0
10
236.159461
20
347.487069
30
0.0
10
243.275556
20
345.086911
30
0.0
10
251.737075
20
341.760529
30
0.0
10
259.970264
20
338.005734
30
0.0
10
267.961341
20
333.835877
30
0.0
10
275.696527
20
329.264310
30
0.0
10
283.162042
20
324.304385
30
0.0
10
290.344107
20
318.969454
30
0.0
10
297.228942
20
313.272868
30
0.0
10
303.802768
20
307.227981
30
0.0
10
310.051804
20
300.848143
30
0.0
10
315.962271
20
294.146706
30
0.0
10
321.520390
20
287.137023
30
0.0
10
326.712381
20
279.832444
30
0.0
10
331.524463
20
272.246324
30
0.0
10
335.942858
20
264.392012
30
0.0
10
339.953786
20
256.282860
30
0.0
10
343.543467
20
247.932222
30
0.0
10
346.355057
20
240.347630
30
0.0
10
348.791199
20
232.655320
30
0.0
10
350.851902
20
224.870593
30
0.0
10
352.537172
20
217.008750
30
0.0
10
353.847019
20
209.085093
30
0.0
10
354.781449
20
201.114923
30
0.0
10
355.340471
20
193.113541
30
0.0
10
355.524093
20
185.096250
30
0.0
10
355.332322
20
177.078350
30
0.0
10
354.765167
20
169.075143
30
0.0
10
353.822634
20
161.101931
30
0.0
10
352.504734
20
153.174014
30
0.0
10
350.811472
20
145.306694
30
0.0
10
348.742857
20
137.515273
30
0.0
10
346.298897
20
129.815051
30
0.0
10
343.479600
20
122.221331
30
0.0
10
341.413480
20
117.273152
30
0.0
10
339.199202
20
112.409146
30
0.0
10
336.839874
20
107.631909
30
0.0
10
334.338601
20
102.944035
30
0.0
10
331.698491
20
98.348119
30
0.0
10
328.922649
20
93.846755
30
0.0
10
326.014183
20
89.442538
30
0.0
10
322.976200
20
85.138063
30
0.0
10
319.811806
20
80.935923
30
0.0
10
316.524107
20
76.838715
30
0.0
10
313.116211
20
72.849032
30
0.0
10
309.591224
20
68.969468
30
0.0
10
305.952253
20
65.202620
30
0.0
10
302.202404
20
61.551080
30
0.0
10
298.344784
20
58.017444
30
0.0
10
294.382500
20
54.604307
30
0.0
10
290.318658
20
51.314262
30
0.0
10
286.156366
20
48.149905
30
0.0
10
281.898729
20
45.113830
30
0.0
10
277.548855
20
42.208632
30
0.0
10
273.109850
20
39.436905
30
0.0
10
268.584820
20
36.801244
30
0.0
10
263.976874
20
34.304244
30
0.0
10
259.289116
20
31.948498
30
0.0
10
254.524654
20
29.736603
30
0.0
10
249.686595
20
27.671152
30
0.0
10
244.778045
20
25.754740
30
0.0
10
239.802111
20
23.989961
30
0.0
10
234.761899
20
22.379411
30
0.0
10
229.660517
20
20.925683
30
0.0
10
224.501071
20
19.631372
30
0.0
10
219.286667
20
18.499074
30
0.0
10
212.834239
20
17.324178
30
0.0
10
206.508236
20
16.406918
30
0.0
10
200.397837
20
15.758517
30
0.0
10
194.592222
20
15.390199
30
0.0
10
185.689859
20
15.121862
30
0.0
10
178.787778
20
15.254676
30
0.0
10
178.787778
20
15.254676
30
0.0
62
0
0
LWPOLYLINE
100
AcDbPolyline
8
Layer_1
90
220
70
0
10
102.728889
20
92.733980
30
0.0
10
107.159041
20
93.777911
30
0.0
10
111.485320
20
95.319694
30
0.0
10
115.672734
20
97.335353
30
0.0
10
119.686292
20
99.800912
30
0.0
10
123.491002
20
102.692394
30
0.0
10
127.051871
20
105.985824
30
0.0
10
130.333909
20
109.657224
30
0.0
10
133.302124
20
113.682619
30
0.0
10
134.823090
20
116.109415
30
0.0
10
136.200757
20
118.612881
30
0.0
10
137.433741
20
121.183698
30
0.0
10
138.520656
20
123.812544
30
0.0
10
139.460116
20
126.490099
30
0.0
10
140.250735
20
129.207041
30
0.0
10
140.891129
20
131.954051
30
0.0
10
141.379911
20
134.721807
30
0.0
10
141.715696
20
137.500988
30
0.0
10
141.897098
20
140.282274
30
0.0
10
141.922733
20
143.056344
30
0.0
10
141.791213
20
145.813876
30
0.0
10
141.501155
20
148.545551
30
0.0
10
141.051171
20
151.242048
30
0.0
10
140.439878
20
153.894045
30
0.0
10
139.665888
20
156.492222
30
0.0
10
138.714140
20
159.085258
30
0.0
10
137.609404
20
161.610490
30
0.0
10
136.350833
20
164.069254
30
0.0
10
134.937585
20
166.462891
30
0.0
10
133.368814
20
168.792736
30
0.0
10
131.643674
20
171.060129
30
0.0
10
129.761323
20
173.266408
30
0.0
10
127.720914
20
175.412911
30
0.0
10
123.947648
20
178.903279
30
0.0
10
117.418980
20
184.433031
30
0.0
10
90.593333
20
206.168498
30
0.0
10
81.253803
20
213.804272
30
0.0
10
76.038764
20
218.314369
30
0.0
10
73.797143
20
220.724782
30
0.0
10
71.733056
20
223.277149
30
0.0
10
69.856237
20
225.954008
30
0.0
10
68.176417
20
228.737894
30
0.0
10
66.703329
20
231.611344
30
0.0
10
65.446707
20
234.556895
30
0.0
10
64.416282
20
237.557083
30
0.0
10
63.621787
20
240.594444
30
0.0
10
63.208986
20
243.389696
30
0.0
10
63.017231
20
246.729684
30
0.0
10
63.057948
20
250.106326
30
0.0
10
63.342562
20
253.011542
30
0.0
10
63.916425
20
255.839822
30
0.0
10
64.693027
20
258.572054
30
0.0
10
65.670709
20
261.205012
30
0.0
10
66.847809
20
263.735469
30
0.0
10
68.222665
20
266.160201
30
0.0
10
69.793616
20
268.475980
30
0.0
10
71.559001
20
270.679581
30
0.0
10
73.517159
20
272.767778
30
0.0
10
76.852002
20
275.685594
30
0.0
10
78.590282
20
276.917927
30
0.0
10
80.404049
20
278.014914
30
0.0
10
82.314488
20
278.988333
30
0.0
10
84.342787
20
279.849963
30
0.0
10
88.837705
20
281.284965
30
0.0
10
91.958002
20
281.890686
30
0.0
10
96.237778
20
282.146762
30
0.0
10
99.483848
20
282.183774
30
0.0
10
102.156654
20
282.042084
30
0.0
10
104.687514
20
281.679928
30
0.0
10
107.507746
20
281.055544
30
0.0
10
111.073857
20
279.937969
30
0.0
10
114.305068
20
278.446138
30
0.0
10
117.176457
20
276.605325
30
0.0
10
119.663099
20
274.440799
30
0.0
10
121.740073
20
271.977834
30
0.0
10
123.382454
20
269.241702
30
0.0
10
124.565321
20
266.257674
30
0.0
10
125.263749
20
263.051022
30
0.0
10
125.629375
20
261.425968
30
0.0
10
125.936886
20
260.915891
30
0.0
10
126.400224
20
260.440466
30
0.0
10
127.123405
20
259.924574
30
0.0
10
128.111537
20
259.681050
30
0.0
10
129.832018
20
259.665125
30
0.0
10
132.752245
20
259.832029
30
0.0
10
135.541156
20
260.016690
30
0.0
10
135.348483
20
262.814147
30
0.0
10
135.038583
20
265.529397
30
0.0
10
134.493426
20
268.153313
30
0.0
10
133.719825
20
270.679226
30
0.0
10
132.724594
20
273.100469
30
0.0
10
131.514544
20
275.410373
30
0.0
10
130.096489
20
277.602270
30
0.0
10
128.477242
20
279.669493
30
0.0
10
126.663614
20
281.605373
30
0.0
10
124.662419
20
283.403243
30
0.0
10
122.480470
20
285.056435
30
0.0
10
120.124579
20
286.558281
30
0.0
10
117.601559
20
287.902112
30
0.0
10
114.918223
20
289.081261
30
0.0
10
112.081383
20
290.089060
30
0.0
10
109.097853
20
290.918841
30
0.0
10
105.974444
20
291.563936
30
0.0
10
101.964461
20
292.037544
30
0.0
10
97.465156
20
292.226085
30
0.0
10
93.092994
20
292.123580
30
0.0
10
89.464444
20
291.724052
30
0.0
10
85.963646
20
290.966454
30
0.0
10
82.629351
20
289.983630
30
0.0
10
79.452181
20
288.770613
30
0.0
10
76.422758
20
287.322434
30
0.0
10
73.531703
20
285.634125
30
0.0
10
70.769640
20
283.700718
30
0.0
10
68.127190
20
281.517245
30
0.0
10
65.594975
20
279.078738
30
0.0
10
63.273773
20
276.497024
30
0.0
10
61.188287
20
273.800011
30
0.0
10
59.335385
20
270.981448
30
0.0
10
57.711934
20
268.035087
30
0.0
10
56.314802
20
264.954678
30
0.0
10
55.140857
20
261.733971
30
0.0
10
54.186967
20
258.366717
30
0.0
10
53.449999
20
254.846667
30
0.0
10
53.120021
20
251.844804
30
0.0
10
52.983339
20
248.150173
30
0.0
10
53.046787
20
244.452400
30
0.0
10
53.317196
20
241.441111
30
0.0
10
54.173697
20
237.126518
30
0.0
10
55.393013
20
232.914653
30
0.0
10
56.968831
20
228.817259
30
0.0
10
58.894836
20
224.846081
30
0.0
10
61.164714
20
221.012865
30
0.0
10
63.772150
20
217.329354
30
0.0
10
66.710832
20
213.807294
30
0.0
10
69.974443
20
210.458428
30
0.0
10
74.293828
20
206.723014
30
0.0
10
81.073633
20
201.172849
30
0.0
10
108.957881
20
178.538956
30
0.0
10
117.033526
20
171.722823
30
0.0
10
121.221435
20
167.887958
30
0.0
10
123.045272
20
165.833323
30
0.0
10
124.741059
20
163.619784
30
0.0
10
126.294448
20
161.274572
30
0.0
10
127.691091
20
158.824917
30
0.0
10
128.916639
20
156.298048
30
0.0
10
129.956745
20
153.721197
30
0.0
10
130.797060
20
151.121592
30
0.0
10
131.423238
20
148.526466
30
0.0
10
131.822271
20
145.306660
30
0.0
10
131.927498
20
141.517260
30
0.0
10
131.744535
20
137.707275
30
0.0
10
131.279000
20
134.425715
30
0.0
10
130.574890
20
131.587225
30
0.0
10
129.694933
20
128.829198
30
0.0
10
128.646044
20
126.159276
30
0.0
10
127.435141
20
123.585100
30
0.0
10
126.069139
20
121.114311
30
0.0
10
124.554956
20
118.754552
30
0.0
10
122.899508
20
116.513464
30
0.0
10
121.109711
20
114.398689
30
0.0
10
119.192483
20
112.417867
30
0.0
10
117.154739
20
110.578642
30
0.0
10
115.003398
20
108.888655
30
0.0
10
112.745374
20
107.355546
30
0.0
10
110.387585
20
105.986958
30
0.0
10
107.936947
20
104.790533
30
0.0
10
105.400377
20
103.773911
30
0.0
10
102.784791
20
102.944735
30
0.0
10
99.578020
20
102.444204
30
0.0
10
95.361681
20
102.282468
30
0.0
10
90.962366
20
102.458188
30
0.0
10
87.206667
20
102.970022
30
0.0
10
84.197701
20
103.705659
30
0.0
10
81.343432
20
104.584481
30
0.0
10
78.644280
20
105.606075
30
0.0
10
76.100667
20
106.770028
30
0.0
10
73.713013
20
108.075929
30
0.0
10
71.481742
20
109.523364
30
0.0
10
69.407273
20
111.111923
30
0.0
10
67.490028
20
112.841191
30
0.0
10
65.730428
20
114.710757
30
0.0
10
64.128896
20
116.720208
30
0.0
10
62.685851
20
118.869133
30
0.0
10
61.401716
20
121.157117
30
0.0
10
60.276912
20
123.583750
30
0.0
10
59.311860
20
126.148619
30
0.0
10
58.506982
20
128.851311
30
0.0
10
57.862699
20
131.691414
30
0.0
10
57.057589
20
137.806638
30
0.0
10
56.844743
20
140.619795
30
0.0
10
56.881418
20
141.979856
30
0.0
10
56.724954
20
143.375259
30
0.0
10
56.218203
20
144.541520
30
0.0
10
55.816123
20
144.935727
30
0.0
10
55.260520
20
145.224254
30
0.0
10
53.525587
20
145.545081
30
0.0
10
50.687086
20
145.625622
30
0.0
10
46.764169
20
145.626751
30
0.0
10
46.935350
20
140.617307
30
0.0
10
47.190370
20
136.310029
30
0.0
10
47.656973
20
132.266862
30
0.0
10
48.343552
20
128.459284
30
0.0
10
49.258502
20
124.858776
30
0.0
10
50.410216
20
121.436818
30
0.0
10
51.807086
20
118.164887
30
0.0
10
53.457506
20
115.014465
30
0.0
10
55.369869
20
111.957031
30
0.0
10
57.723947
20
108.950519
30
0.0
10
60.769161
20
105.707781
30
0.0
10
64.032255
20
102.697894
30
0.0
10
67.039975
20
100.389936
30
0.0
10
70.978626
20
98.076481
30
0.0
10
75.229625
20
96.115607
30
0.0
10
79.711437
20
94.524805
30
0.0
10
84.342524
20
93.321567
30
0.0
10
89.041350
20
92.523382
30
0.0
10
93.726377
20
92.147743
30
0.0
10
98.316069
20
92.212140
30
0.0
10
102.728889
20
92.734065
30
0.0
10
102.728889
20
92.733980
30
0.0
62
0
0
LWPOLYLINE
100
AcDbPolyline
8
Layer_1
90
99
70
0
10
173.039261
20
92.825412
30
0.0
10
174.923903
20
93.400163
30
0.0
10
176.768328
20
94.144365
30
0.0
10
178.557794
20
95.048146
30
0.0
10
180.277561
20
96.101634
30
0.0
10
181.912886
20
97.294959
30
0.0
10
183.449030
20
98.618247
30
0.0
10
184.871251
20
100.061628
30
0.0
10
186.164807
20
101.615229
30
0.0
10
187.080721
20
102.654713
30
0.0
10
187.352263
20
102.768880
30
0.0
10
187.562524
20
102.659742
30
0.0
10
191.051843
20
97.296111
30
0.0
10
194.210107
20
92.286667
30
0.0
10
200.146358
20
92.286667
30
0.0
10
204.823800
20
92.359743
30
0.0
10
205.734641
20
92.468096
30
0.0
10
205.941927
20
92.639444
30
0.0
10
199.193641
20
103.408407
30
0.0
10
192.586043
20
113.824591
30
0.0
10
193.242461
20
116.090912
30
0.0
10
193.896404
20
118.679444
30
0.0
10
194.460892
20
121.560994
30
0.0
10
195.170668
20
127.324392
30
0.0
10
195.371003
20
130.329898
30
0.0
10
193.006057
20
130.492170
30
0.0
10
186.225127
20
130.889681
30
0.0
10
185.473718
20
130.740063
30
0.0
10
185.320429
20
130.334351
30
0.0
10
185.121796
20
128.411111
30
0.0
10
184.906274
20
126.687055
30
0.0
10
184.462475
20
127.047522
30
0.0
10
183.290451
20
128.669831
30
0.0
10
178.505556
20
136.075733
30
0.0
10
172.193156
20
146.224210
30
0.0
10
172.533386
20
146.867066
30
0.0
10
173.496743
20
147.983310
30
0.0
10
175.564485
20
150.284304
30
0.0
10
177.300522
20
152.584886
30
0.0
10
178.716469
20
154.914508
30
0.0
10
179.823938
20
157.302622
30
0.0
10
180.634544
20
159.778678
30
0.0
10
181.159899
20
162.372129
30
0.0
10
181.411618
20
165.112425
30
0.0
10
181.401314
20
168.029018
30
0.0
10
180.969479
20
171.646025
30
0.0
10
180.555977
20
173.270201
30
0.0
10
180.004976
20
174.785100
30
0.0
10
179.312144
20
176.200928
30
0.0
10
178.473149
20
177.527893
30
0.0
10
177.483660
20
178.776200
30
0.0
10
176.339345
20
179.956056
30
0.0
10
174.275150
20
181.576979
30
0.0
10
172.032929
20
182.694544
30
0.0
10
169.522135
20
183.342382
30
0.0
10
166.652222
20
183.554127
30
0.0
10
164.467796
20
183.414506
30
0.0
10
162.394007
20
182.994831
30
0.0
10
160.446077
20
182.304587
30
0.0
10
158.639225
20
181.353258
30
0.0
10
156.988672
20
180.150329
30
0.0
10
155.509641
20
178.705284
30
0.0
10
154.217351
20
177.027607
30
0.0
10
153.127024
20
175.126783
30
0.0
10
152.179865
20
172.951743
30
0.0
10
151.580141
20
170.901066
30
0.0
10
151.269742
20
168.703496
30
0.0
10
151.190556
20
166.087778
30
0.0
10
151.445546
20
162.389210
30
0.0
10
151.781891
20
160.701094
30
0.0
10
152.288898
20
159.032405
30
0.0
10
152.990135
20
157.317131
30
0.0
10
153.909171
20
155.489261
30
0.0
10
156.494923
20
151.231679
30
0.0
10
158.273104
20
148.511139
30
0.0
10
157.145962
20
147.421679
30
0.0
10
154.089245
20
143.999638
30
0.0
10
151.071176
20
139.977918
30
0.0
10
148.824162
20
136.151174
30
0.0
10
146.881351
20
131.909637
30
0.0
10
145.360450
20
127.545744
30
0.0
10
144.379165
20
123.351933
30
0.0
10
143.954219
20
119.139481
30
0.0
10
144.015926
20
114.780894
30
0.0
10
144.542067
20
110.598962
30
0.0
10
145.510425
20
106.916474
30
0.0
10
146.784672
20
103.921870
30
0.0
10
148.361404
20
101.254661
30
0.0
10
150.239518
20
98.915721
30
0.0
10
152.417911
20
96.905922
30
0.0
10
154.895481
20
95.226140
30
0.0
10
157.671125
20
93.877247
30
0.0
10
160.743740
20
92.860118
30
0.0
10
164.112222
20
92.175626
30
0.0
10
165.935263
20
92.098918
30
0.0
10
168.448921
20
92.212082
30
0.0
10
171.025988
20
92.469464
30
0.0
10
173.039261
20
92.825412
30
0.0
10
173.039261
20
92.825412
30
0.0
62
0
0
LWPOLYLINE
100
AcDbPolyline
8
Layer_1
90
32
70
0
10
163.124444
20
102.676475
30
0.0
10
161.634386
20
103.148391
30
0.0
10
160.304306
20
103.750436
30
0.0
10
159.119799
20
104.496971
30
0.0
10
158.066459
20
105.402362
30
0.0
10
157.129878
20
106.480973
30
0.0
10
156.295649
20
107.747166
30
0.0
10
155.549367
20
109.215307
30
0.0
10
154.876624
20
110.899758
30
0.0
10
154.419829
20
113.004275
30
0.0
10
154.164525
20
115.862445
30
0.0
10
154.137817
20
118.906911
30
0.0
10
154.366812
20
121.570315
30
0.0
10
155.163240
20
125.089212
30
0.0
10
156.405876
20
128.632367
30
0.0
10
158.038294
20
132.062918
30
0.0
10
160.004071
20
135.244002
30
0.0
10
162.547985
20
138.507981
30
0.0
10
163.571493
20
139.624707
30
0.0
10
164.058589
20
139.966096
30
0.0
10
172.678956
20
126.337830
30
0.0
10
181.197067
20
112.834547
30
0.0
10
180.133532
20
110.847787
30
0.0
10
178.642311
20
108.485740
30
0.0
10
176.901898
20
106.474165
30
0.0
10
174.946186
20
104.829345
30
0.0
10
172.809069
20
103.567563
30
0.0
10
170.524442
20
102.705102
30
0.0
10
168.126200
20
102.258245
30
0.0
10
165.648236
20
102.243275
30
0.0
10
163.124444
20
102.676475
30
0.0
10
163.124444
20
102.676475
30
0.0
62
0
0
LWPOLYLINE
100
AcDbPolyline
8
Layer_1
90
31
70
0
10
164.600757
20
157.409444
30
0.0
10
162.398835
20
161.241197
30
0.0
10
161.797395
20
162.741858
30
0.0
10
161.419007
20
164.200408
30
0.0
10
161.221112
20
165.760645
30
0.0
10
161.251104
20
167.266790
30
0.0
10
161.508547
20
168.714355
30
0.0
10
161.993004
20
170.098853
30
0.0
10
162.536193
20
171.189756
30
0.0
10
163.097595
20
171.969638
30
0.0
10
163.777618
20
172.548385
30
0.0
10
164.676667
20
173.035883
30
0.0
10
165.536547
20
173.350803
30
0.0
10
166.381443
20
173.505159
30
0.0
10
167.199216
20
173.502665
30
0.0
10
167.977725
20
173.347036
30
0.0
10
168.704831
20
173.041987
30
0.0
10
169.368393
20
172.591232
30
0.0
10
169.956270
20
171.998485
30
0.0
10
170.456324
20
171.267461
30
0.0
10
170.814981
20
170.530561
30
0.0
10
171.042887
20
169.732256
30
0.0
10
171.261735
20
167.159378
30
0.0
10
171.156837
20
164.190022
30
0.0
10
170.541046
20
161.564827
30
0.0
10
169.332210
20
159.052479
30
0.0
10
167.448176
20
156.421667
30
0.0
10
166.237169
20
155.222222
30
0.0
10
165.659060
20
155.864719
30
0.0
10
164.600757
20
157.409444
30
0.0
10
164.600757
20
157.409444
30
0.0
62
0
0
LWPOLYLINE
100
AcDbPolyline
8
Layer_1
90
186
70
0
10
243.276730
20
92.694348
30
0.0
10
245.788115
20
93.175559
30
0.0
10
248.280572
20
93.850159
30
0.0
10
250.669702
20
94.691933
30
0.0
10
252.871111
20
95.674665
30
0.0
10
255.190133
20
97.004050
30
0.0
10
257.377386
20
98.588783
30
0.0
10
259.416476
20
100.409246
30
0.0
10
261.291008
20
102.445822
30
0.0
10
262.984586
20
104.678893
30
0.0
10
264.480817
20
107.088839
30
0.0
10
265.763306
20
109.656044
30
0.0
10
266.815657
20
112.360888
30
0.0
10
267.502327
20
114.400017
30
0.0
10
267.673633
20
113.291676
30
0.0
10
268.167744
20
110.710074
30
0.0
10
268.826255
20
108.315775
30
0.0
10
269.655736
20
106.096949
30
0.0
10
270.662755
20
104.041768
30
0.0
10
271.853880
20
102.138402
30
0.0
10
273.235681
20
100.375021
30
0.0
10
274.814726
20
98.739795
30
0.0
10
276.597584
20
97.220896
30
0.0
10
278.181162
20
96.094187
30
0.0
10
279.846158
20
95.106283
30
0.0
10
281.582309
20
94.260705
30
0.0
10
283.379350
20
93.560975
30
0.0
10
285.227015
20
93.010611
30
0.0
10
287.115040
20
92.613136
30
0.0
10
289.033161
20
92.372069
30
0.0
10
290.971111
20
92.290931
30
0.0
10
292.917236
20
92.375988
30
0.0
10
294.834148
20
92.626532
30
0.0
10
296.712811
20
93.035628
30
0.0
10
298.544192
20
93.596337
30
0.0
10
300.319257
20
94.301721
30
0.0
10
302.028971
20
95.144844
30
0.0
10
305.216211
20
97.216555
30
0.0
10
308.033639
20
99.755968
30
0.0
10
309.281088
20
101.183720
30
0.0
10
310.408981
20
102.707585
30
0.0
10
311.408285
20
104.320626
30
0.0
10
312.269965
20
106.015906
30
0.0
10
312.984987
20
107.786486
30
0.0
10
313.544317
20
109.625429
30
0.0
10
314.027979
20
111.998630
30
0.0
10
314.269536
20
114.359118
30
0.0
10
314.277071
20
116.693073
30
0.0
10
314.058666
20
118.986672
30
0.0
10
313.622405
20
121.226095
30
0.0
10
312.976369
20
123.397520
30
0.0
10
312.128643
20
125.487127
30
0.0
10
311.087308
20
127.481094
30
0.0
10
309.860447
20
129.365600
30
0.0
10
308.456144
20
131.126823
30
0.0
10
306.882481
20
132.750943
30
0.0
10
305.147541
20
134.224139
30
0.0
10
303.259407
20
135.532589
30
0.0
10
301.226161
20
136.662471
30
0.0
10
299.055887
20
137.599965
30
0.0
10
296.756667
20
138.331250
30
0.0
10
293.870395
20
138.836346
30
0.0
10
290.660236
20
138.977588
30
0.0
10
287.479340
20
138.759236
30
0.0
10
284.680858
20
138.185553
30
0.0
10
282.231393
20
137.320043
30
0.0
10
279.945733
20
136.249996
30
0.0
10
277.827869
20
134.978779
30
0.0
10
275.881794
20
133.509755
30
0.0
10
274.111500
20
131.846291
30
0.0
10
272.520979
20
129.991751
30
0.0
10
271.114223
20
127.949499
30
0.0
10
269.895224
20
125.722902
30
0.0
10
268.873478
20
123.239609
30
0.0
10
268.180199
20
120.854569
30
0.0
10
267.700218
20
118.533333
30
0.0
10
262.989785
20
118.533333
30
0.0
10
258.279352
20
118.533333
30
0.0
10
257.656635
20
116.628333
30
0.0
10
256.293526
20
113.247005
30
0.0
10
254.566253
20
110.316917
30
0.0
10
252.482423
20
107.843265
30
0.0
10
250.049639
20
105.831246
30
0.0
10
247.275508
20
104.286053
30
0.0
10
244.167634
20
103.212884
30
0.0
10
240.733623
20
102.616933
30
0.0
10
236.981080
20
102.503396
30
0.0
10
235.017879
20
102.633764
30
0.0
10
233.220101
20
102.899189
30
0.0
10
231.551364
20
103.315521
30
0.0
10
229.975283
20
103.898611
30
0.0
10
228.455476
20
104.664312
30
0.0
10
226.955559
20
105.628473
30
0.0
10
223.869865
20
108.215582
30
0.0
10
221.348231
20
110.962519
30
0.0
10
219.154819
20
114.092307
30
0.0
10
217.291815
20
117.598442
30
0.0
10
215.761402
20
121.474418
30
0.0
10
214.565767
20
125.713734
30
0.0
10
213.707093
20
130.309883
30
0.0
10
213.187566
20
135.256362
30
0.0
10
213.009370
20
140.546667
30
0.0
10
213.103402
20
144.800756
30
0.0
10
213.414953
20
148.652230
30
0.0
10
213.971248
20
152.337551
30
0.0
10
214.799517
20
156.093180
30
0.0
10
216.153667
20
160.637575
30
0.0
10
217.809647
20
164.729308
30
0.0
10
219.753375
20
168.351087
30
0.0
10
221.970771
20
171.485620
30
0.0
10
224.447752
20
174.115617
30
0.0
10
227.170238
20
176.223786
30
0.0
10
230.124148
20
177.792835
30
0.0
10
231.683486
20
178.369786
30
0.0
10
233.295399
20
178.805473
30
0.0
10
235.620816
20
179.103708
30
0.0
10
238.431744
20
179.147174
30
0.0
10
241.275372
20
178.948314
30
0.0
10
243.698889
20
178.519571
30
0.0
10
245.960768
20
177.785551
30
0.0
10
248.040795
20
176.816829
30
0.0
10
249.933800
20
175.618350
30
0.0
10
251.634618
20
174.195059
30
0.0
10
253.138079
20
172.551903
30
0.0
10
254.439017
20
170.693825
30
0.0
10
255.532263
20
168.625772
30
0.0
10
256.412650
20
166.352688
30
0.0
10
257.187367
20
163.971111
30
0.0
10
262.344783
20
163.971111
30
0.0
10
267.502200
20
163.971111
30
0.0
10
266.701691
20
167.022286
30
0.0
10
265.598444
20
170.664743
30
0.0
10
264.304517
20
173.795835
30
0.0
10
262.722668
20
176.616826
30
0.0
10
260.755655
20
179.328981
30
0.0
10
259.262904
20
181.021796
30
0.0
10
257.629867
20
182.564087
30
0.0
10
255.858029
20
183.954979
30
0.0
10
253.948878
20
185.193597
30
0.0
10
251.903901
20
186.279069
30
0.0
10
249.724586
20
187.210520
30
0.0
10
247.412419
20
187.987075
30
0.0
10
244.968889
20
188.607861
30
0.0
10
241.526766
20
189.086225
30
0.0
10
237.543720
20
189.241320
30
0.0
10
233.653265
20
189.074118
30
0.0
10
230.488919
20
188.585594
30
0.0
10
226.477487
20
187.300758
30
0.0
10
224.619569
20
186.478482
30
0.0
10
222.841794
20
185.525524
30
0.0
10
221.130370
20
184.433803
30
0.0
10
219.471505
20
183.195235
30
0.0
10
216.256283
20
180.245233
30
0.0
10
213.927232
20
177.600037
30
0.0
10
211.811821
20
174.700423
30
0.0
10
209.910182
20
171.546688
30
0.0
10
208.222451
20
168.139133
30
0.0
10
206.748759
20
164.478054
30
0.0
10
205.489240
20
160.563750
30
0.0
10
204.444029
20
156.396519
30
0.0
10
203.613258
20
151.976661
30
0.0
10
203.224089
20
148.021139
30
0.0
10
203.004224
20
142.794048
30
0.0
10
202.981379
20
137.497141
30
0.0
10
203.183270
20
133.332169
30
0.0
10
203.712413
20
129.207431
30
0.0
10
204.444761
20
125.249468
30
0.0
10
205.373604
20
121.467671
30
0.0
10
206.492233
20
117.871433
30
0.0
10
207.793938
20
114.470144
30
0.0
10
209.272011
20
111.273196
30
0.0
10
210.919741
20
108.289979
30
0.0
10
212.730420
20
105.529887
30
0.0
10
214.697339
20
103.002309
30
0.0
10
216.813786
20
100.716637
30
0.0
10
219.073055
20
98.682263
30
0.0
10
221.468434
20
96.908579
30
0.0
10
223.993215
20
95.404974
30
0.0
10
226.640689
20
94.180842
30
0.0
10
229.404145
20
93.245573
30
0.0
10
232.276876
20
92.608558
30
0.0
10
234.604597
20
92.390064
30
0.0
10
237.582378
20
92.334404
30
0.0
10
240.657372
20
92.437267
30
0.0
10
243.276730
20
92.694342
30
0.0
10
243.276730
20
92.694348
30
0.0
62
0
0
LWPOLYLINE
100
AcDbPolyline
8
Layer_1
90
43
70
0
10
287.761567
20
102.760007
30
0.0
10
286.417484
20
103.241954
30
0.0
10
284.720679
20
104.040288
30
0.0
10
282.706242
20
105.359322
30
0.0
10
281.000986
20
107.004393
30
0.0
10
279.627941
20
108.914726
30
0.0
10
278.610139
20
111.029545
30
0.0
10
277.970612
20
113.288075
30
0.0
10
277.732391
20
115.629540
30
0.0
10
277.918509
20
117.993164
30
0.0
10
278.551996
20
120.318172
30
0.0
10
279.147993
20
121.632450
30
0.0
10
279.913053
20
122.895683
30
0.0
10
280.826196
20
124.087811
30
0.0
10
281.866444
20
125.188775
30
0.0
10
283.012817
20
126.178515
30
0.0
10
284.244334
20
127.036972
30
0.0
10
285.540018
20
127.744086
30
0.0
10
286.878889
20
128.279799
30
0.0
10
289.016832
20
128.736616
30
0.0
10
291.383381
20
128.845702
30
0.0
10
293.705798
20
128.614179
30
0.0
10
295.711344
20
128.049167
30
0.0
10
297.459787
20
127.186726
30
0.0
10
299.035538
20
126.131282
30
0.0
10
300.425936
20
124.899858
30
0.0
10
301.618315
20
123.509479
30
0.0
10
302.600013
20
121.977168
30
0.0
10
303.358367
20
120.319950
30
0.0
10
303.880713
20
118.554849
30
0.0
10
304.154388
20
116.698889
30
0.0
10
304.185997
20
115.273151
30
0.0
10
304.065751
20
113.879676
30
0.0
10
303.401207
20
111.223203
30
0.0
10
302.223782
20
108.796846
30
0.0
10
300.596501
20
106.667982
30
0.0
10
298.582390
20
104.903990
30
0.0
10
296.244475
20
103.572247
30
0.0
10
293.645781
20
102.740129
30
0.0
10
292.268337
20
102.532486
30
0.0
10
290.849332
20
102.475016
30
0.0
10
287.761567
20
102.760007
30
0.0
10
287.761567
20
102.760007
30
0.0
62
0
0
LWPOLYLINE
100
AcDbPolyline
8
Layer_1
90
28
70
0
10
320.676468
20
93.296334
30
0.0
10
321.745712
20
94.261152
30
0.0
10
322.511787
20
95.416933
30
0.0
10
322.974374
20
96.700045
30
0.0
10
323.133156
20
98.046857
30
0.0
10
322.987815
20
99.393738
30
0.0
10
322.538034
20
100.677056
30
0.0
10
321.783495
20
101.833180
30
0.0
10
320.723881
20
102.798479
30
0.0
10
319.881866
20
103.292273
30
0.0
10
319.018593
20
103.622027
30
0.0
10
317.280290
20
103.827673
30
0.0
10
315.613013
20
103.491932
30
0.0
10
314.120802
20
102.691318
30
0.0
10
312.907695
20
101.502347
30
0.0
10
312.077733
20
100.001534
30
0.0
10
311.734955
20
98.265393
30
0.0
10
311.778773
20
97.332985
30
0.0
10
311.983402
20
96.370439
30
0.0
10
312.540808
20
95.098718
30
0.0
10
313.360859
20
94.041149
30
0.0
10
314.387835
20
93.217435
30
0.0
10
315.566019
20
92.647281
30
0.0
10
316.839693
20
92.350391
30
0.0
10
318.153138
20
92.346467
30
0.0
10
319.450635
20
92.655213
30
0.0
10
320.676468
20
93.296334
30
0.0
10
320.676468
20
93.296334
30
0.0
62
0
0
LWPOLYLINE
100
AcDbPolyline
8
Layer_1
90
81
70
0
10
226.631847
20
195.031436
30
0.0
10
229.048117
20
195.477182
30
0.0
10
231.561490
20
196.195320
30
0.0
10
233.964928
20
197.116808
30
0.0
10
236.051395
20
198.172606
30
0.0
10
237.998795
20
199.542820
30
0.0
10
240.129920
20
201.385792
30
0.0
10
242.131173
20
203.408186
30
0.0
10
243.688955
20
205.316667
30
0.0
10
246.344457
20
209.761667
30
0.0
10
247.810867
20
212.513333
30
0.0
10
242.052938
20
212.513333
30
0.0
10
236.295006
20
212.513333
30
0.0
10
235.592403
20
211.455000
30
0.0
10
234.725970
20
210.328342
30
0.0
10
233.621316
20
209.143833
30
0.0
10
232.441412
20
208.063069
30
0.0
10
231.349228
20
207.247645
30
0.0
10
228.811916
20
205.988589
30
0.0
10
226.097090
20
205.255577
30
0.0
10
223.304236
20
205.030275
30
0.0
10
220.532838
20
205.294349
30
0.0
10
217.882379
20
206.029465
30
0.0
10
215.452343
20
207.217290
30
0.0
10
213.342216
20
208.839489
30
0.0
10
212.438206
20
209.807749
30
0.0
10
211.651480
20
210.877729
30
0.0
10
210.876035
20
212.290428
30
0.0
10
210.152371
20
213.955622
30
0.0
10
209.617614
20
215.521258
30
0.0
10
209.408889
20
216.635285
30
0.0
10
210.140888
20
216.837220
30
0.0
10
212.995423
20
216.956917
30
0.0
10
229.023333
20
217.028889
30
0.0
10
246.162800
20
217.101470
30
0.0
10
248.322613
20
217.272421
30
0.0
10
248.596934
20
217.414960
30
0.0
10
248.637778
20
217.604456
30
0.0
10
248.277010
20
221.390955
30
0.0
10
247.629765
20
225.456837
30
0.0
10
246.651381
20
228.659915
30
0.0
10
245.220210
20
231.762107
30
0.0
10
243.385992
20
234.671838
30
0.0
10
241.198465
20
237.297533
30
0.0
10
238.806780
20
239.475380
30
0.0
10
236.159030
20
241.273232
30
0.0
10
233.239660
20
242.700099
30
0.0
10
230.033113
20
243.764991
30
0.0
10
227.055481
20
244.352231
30
0.0
10
223.096667
20
244.484576
30
0.0
10
219.940249
20
244.388437
30
0.0
10
217.332355
20
244.051783
30
0.0
10
214.968300
20
243.414960
30
0.0
10
212.543401
20
242.418311
30
0.0
10
209.689468
20
240.794261
30
0.0
10
207.059125
20
238.731773
30
0.0
10
204.700830
20
236.304740
30
0.0
10
202.663042
20
233.587055
30
0.0
10
200.994217
20
230.652609
30
0.0
10
199.742815
20
227.575295
30
0.0
10
198.957293
20
224.429006
30
0.0
10
198.686110
20
221.287634
30
0.0
10
198.779876
20
218.680983
30
0.0
10
199.054579
20
216.177915
30
0.0
10
199.505785
20
213.784020
30
0.0
10
200.129063
20
211.504888
30
0.0
10
200.919978
20
209.346111
30
0.0
10
201.874099
20
207.313278
30
0.0
10
202.986992
20
205.411982
30
0.0
10
204.254225
20
203.647812
30
0.0
10
205.671365
20
202.026359
30
0.0
10
207.233979
20
200.553214
30
0.0
10
208.937633
20
199.233968
30
0.0
10
210.777897
20
198.074211
30
0.0
10
212.750335
20
197.079535
30
0.0
10
214.850517
20
196.255530
30
0.0
10
217.074008
20
195.607786
30
0.0
10
219.416376
20
195.141895
30
0.0
10
223.022791
20
194.779169
30
0.0
10
226.631847
20
195.031436
30
0.0
10
226.631847
20
195.031436
30
0.0
62
0
0
LWPOLYLINE
100
AcDbPolyline
8
Layer_1
90
19
70
0
10
210.820000
20
227.445768
30
0.0
10
211.159139
20
228.084728
30
0.0
10
211.995573
20
229.175156
30
0.0
10
214.074426
20
231.393255
30
0.0
10
216.046802
20
232.752806
30
0.0
10
218.331981
20
233.705691
30
0.0
10
220.830621
20
234.253976
30
0.0
10
223.443382
20
234.399727
30
0.0
10
226.070923
20
234.145009
30
0.0
10
228.613904
20
233.491888
30
0.0
10
230.972985
20
232.442430
30
0.0
10
233.048824
20
230.998700
30
0.0
10
234.894149
20
228.988845
30
0.0
10
235.636697
20
227.970707
30
0.0
10
235.937778
20
227.349705
30
0.0
10
223.378889
20
227.188889
30
0.0
10
214.340033
20
227.260887
30
0.0
10
210.820000
20
227.445768
30
0.0
10
210.820000
20
227.445768
30
0.0
62
0
0
LWPOLYLINE
100
AcDbPolyline
8
Layer_1
90
49
70
0
10
282.363333
20
195.580144
30
0.0
10
285.397222
20
196.287720
30
0.0
10
285.785602
20
196.317446
30
0.0
10
285.891111
20
195.892417
30
0.0
10
285.984853
20
195.553686
30
0.0
10
286.564423
20
195.376592
30
0.0
10
290.971111
20
195.297778
30
0.0
10
296.051111
20
195.297778
30
0.0
10
296.051111
20
243.840000
30
0.0
10
296.051111
20
292.382222
30
0.0
10
290.971111
20
292.382222
30
0.0
10
285.891111
20
292.382222
30
0.0
10
285.891111
20
267.516472
30
0.0
10
285.819744
20
246.273867
30
0.0
10
285.671917
20
243.311987
30
0.0
10
285.552871
20
242.892361
30
0.0
10
285.397222
20
242.855118
30
0.0
10
282.786667
20
243.640904
30
0.0
10
279.957622
20
244.101648
30
0.0
10
276.366295
20
244.280157
30
0.0
10
272.810153
20
244.168925
30
0.0
10
270.086667
20
243.760444
30
0.0
10
267.227819
20
242.745896
30
0.0
10
264.481076
20
241.321566
30
0.0
10
261.890580
20
239.531282
30
0.0
10
259.500475
20
237.418869
30
0.0
10
257.354903
20
235.028152
30
0.0
10
255.498006
20
232.402959
30
0.0
10
253.973928
20
229.587114
30
0.0
10
252.826811
20
226.624444
30
0.0
10
252.479726
20
225.362739
30
0.0
10
252.279529
20
224.094415
30
0.0
10
252.165731
20
219.992222
30
0.0
10
252.281845
20
215.880949
30
0.0
10
252.813566
20
213.218889
30
0.0
10
254.179414
20
209.506178
30
0.0
10
256.050044
20
206.014079
30
0.0
10
258.332693
20
202.890358
30
0.0
10
259.599536
20
201.512816
30
0.0
10
260.934598
20
200.282779
30
0.0
10
263.177942
20
198.595392
30
0.0
10
265.528633
20
197.225898
30
0.0
10
267.995175
20
196.172428
30
0.0
10
270.586074
20
195.433119
30
0.0
10
273.309834
20
195.006101
30
0.0
10
276.174961
20
194.889511
30
0.0
10
279.189959
20
195.081480
30
0.0
10
282.363333
20
195.580144
30
0.0
10
282.363333
20
195.580144
30
0.0
62
0
0
LWPOLYLINE
100
AcDbPolyline
8
Layer_1
90
38
70
0
10
272.518784
20
205.207249
30
0.0
10
271.240311
20
205.657361
30
0.0
10
269.705119
20
206.378344
30
0.0
10
267.780395
20
207.667285
30
0.0
10
266.068043
20
209.334379
30
0.0
10
264.602968
20
211.302438
30
0.0
10
263.420079
20
213.494272
30
0.0
10
262.554282
20
215.832691
30
0.0
10
262.040484
20
218.240504
30
0.0
10
261.913593
20
220.640522
30
0.0
10
262.208515
20
222.955556
30
0.0
10
262.819777
20
224.851123
30
0.0
10
263.746380
20
226.697664
30
0.0
10
264.943915
20
228.450537
30
0.0
10
266.367972
20
230.065096
30
0.0
10
267.974141
20
231.496700
30
0.0
10
269.718012
20
232.700704
30
0.0
10
271.555174
20
233.632465
30
0.0
10
273.441219
20
234.247340
30
0.0
10
274.704171
20
234.444440
30
0.0
10
276.094643
20
234.490832
30
0.0
10
279.064867
20
234.168850
30
0.0
10
281.965323
20
233.356111
30
0.0
10
283.268586
20
232.789056
30
0.0
10
284.409444
20
232.127332
30
0.0
10
285.891111
20
231.125006
30
0.0
10
285.891111
20
219.610587
30
0.0
10
285.891111
20
208.096169
30
0.0
10
285.256111
20
207.514379
30
0.0
10
284.340166
20
206.839531
30
0.0
10
283.155195
20
206.222660
30
0.0
10
281.778480
20
205.698195
30
0.0
10
280.287301
20
205.300566
30
0.0
10
278.432162
20
205.044056
30
0.0
10
276.254838
20
204.939827
30
0.0
10
274.151617
20
204.992638
30
0.0
10
272.518784
20
205.207249
30
0.0
10
272.518784
20
205.207249
30
0.0
62
0
0
LWPOLYLINE
100
AcDbPolyline
8
Layer_1
90
32
70
0
10
156.829334
20
202.494444
30
0.0
10
162.225522
20
209.903091
30
0.0
10
164.101403
20
207.756126
30
0.0
10
168.337326
20
202.494758
30
0.0
10
174.253883
20
195.015556
30
0.0
10
177.790831
20
195.022498
30
0.0
10
181.327778
20
195.029441
30
0.0
10
186.747692
20
207.651931
30
0.0
10
197.375994
20
232.339444
30
0.0
10
202.584383
20
244.404444
30
0.0
10
196.894969
20
244.399477
30
0.0
10
191.205556
20
244.394510
30
0.0
10
183.740676
20
227.042813
30
0.0
10
176.084651
20
209.691111
30
0.0
10
169.044676
20
218.369444
30
0.0
10
162.003161
20
227.267318
30
0.0
10
160.012479
20
224.806901
30
0.0
10
155.496951
20
218.583140
30
0.0
10
150.376871
20
211.530209
30
0.0
10
149.319560
20
210.299126
30
0.0
10
149.052899
20
210.111788
30
0.0
10
148.917592
20
210.154435
30
0.0
10
140.808690
20
227.403398
30
0.0
10
132.846095
20
244.296870
30
0.0
10
127.084280
20
244.339864
30
0.0
10
121.441989
20
244.263333
30
0.0
10
132.110483
20
221.403333
30
0.0
10
143.639896
20
196.771023
30
0.0
10
144.500812
20
194.998715
30
0.0
10
148.064604
20
195.077690
30
0.0
10
151.628396
20
195.156667
30
0.0
10
156.829334
20
202.494444
30
0.0
  0
ENDSEC
  0
SECTION
  2
OBJECTS
  0
DICTIONARY
  5
C
330
0
100
AcDbDictionary
  3
ACAD_GROUP
350
D
  3
ACAD_MLINESTYLE
350
17
  0
DICTIONARY
  5
D
330
C
100
AcDbDictionary
  0
DICTIONARY
  5
1A
330
C
100
AcDbDictionary
  0
DICTIONARY
  5
17
330
C
100
AcDbDictionary
  3
STANDARD
350
18
  0
DICTIONARY
  5
19
330
C
100
AcDbDictionary
  0
ENDSEC
  0
EOF
