solid OpenSCAD_Model
  facet normal -0 0 1
    outer loop
      vertex -27.6 27.6 30
      vertex -23.6 -23.6 30
      vertex -23.6 27.6 30
    endloop
  endfacet
  facet normal 0 0 1
    outer loop
      vertex -23.6 -23.6 30
      vertex -27.6 27.6 30
      vertex -27.6 -23.6 30
    endloop
  endfacet
  facet normal 0 0 -1
    outer loop
      vertex -27.6 -23.6 -10
      vertex -23.6 27.6 -10
      vertex -23.6 -23.6 -10
    endloop
  endfacet
  facet normal -0 0 -1
    outer loop
      vertex -23.6 27.6 -10
      vertex -27.6 -23.6 -10
      vertex -27.6 27.6 -10
    endloop
  endfacet
  facet normal 0 -1 0
    outer loop
      vertex -27.6 -23.6 -10
      vertex -23.6 -23.6 30
      vertex -27.6 -23.6 30
    endloop
  endfacet
  facet normal 0 -1 -0
    outer loop
      vertex -23.6 -23.6 30
      vertex -27.6 -23.6 -10
      vertex -23.6 -23.6 -10
    endloop
  endfacet
  facet normal 1 -0 0
    outer loop
      vertex -23.6 -23.6 30
      vertex -23.6 27.6 -10
      vertex -23.6 27.6 30
    endloop
  endfacet
  facet normal 1 0 0
    outer loop
      vertex -23.6 27.6 -10
      vertex -23.6 -23.6 30
      vertex -23.6 -23.6 -10
    endloop
  endfacet
  facet normal 0 1 -0
    outer loop
      vertex -23.6 27.6 -10
      vertex -27.6 27.6 30
      vertex -23.6 27.6 30
    endloop
  endfacet
  facet normal 0 1 0
    outer loop
      vertex -27.6 27.6 30
      vertex -23.6 27.6 -10
      vertex -27.6 27.6 -10
    endloop
  endfacet
  facet normal -1 0 0
    outer loop
      vertex -27.6 -23.6 -10
      vertex -27.6 27.6 30
      vertex -27.6 27.6 -10
    endloop
  endfacet
  facet normal -1 -0 0
    outer loop
      vertex -27.6 27.6 30
      vertex -27.6 -23.6 -10
      vertex -27.6 -23.6 30
    endloop
  endfacet
endsolid OpenSCAD_Model
